<?xml version="1.0" encoding="utf-8" standalone="no"?>
<!DOCTYPE svg PUBLIC "-//W3C//DTD SVG 1.1//EN"
  "http://www.w3.org/Graphics/SVG/1.1/DTD/svg11.dtd">
<!-- Created with matplotlib (http://matplotlib.org/) -->
<svg height="432pt" version="1.1" viewBox="0 0 576 432" width="576pt" xmlns="http://www.w3.org/2000/svg" xmlns:xlink="http://www.w3.org/1999/xlink">
 <defs>
  <style type="text/css">
*{stroke-linecap:butt;stroke-linejoin:round;stroke-miterlimit:100000;}
  </style>
 </defs>
 <g id="figure_1">
  <g id="patch_1">
   <path d="M 0 432 
L 576 432 
L 576 0 
L 0 0 
z
" style="fill:#ffffff;"/>
  </g>
  <g id="axes_1">
   <g id="patch_2">
    <path d="M 72 388.8 
L 518.4 388.8 
L 518.4 43.2 
L 72 43.2 
z
" style="fill:#ffffff;"/>
   </g>
   <g id="PathCollection_1">
    <path clip-path="url(#pee77ec3d76)" d="M 312.768426 211.157638 
L 290.141009 199.843929 
L 290.141009 222.471346 
z
" style="fill:#ff0000;fill-opacity:0.7;"/>
   </g>
   <g id="PathCollection_2">
    <path clip-path="url(#pee77ec3d76)" d="M 297.766976 217.556563 
C 299.642246 217.556563 301.440961 216.811511 302.766976 215.485495 
C 304.092992 214.15948 304.838044 212.360764 304.838044 210.485495 
C 304.838044 208.610226 304.092992 206.811511 302.766976 205.485495 
C 301.440961 204.15948 299.642246 203.414427 297.766976 203.414427 
C 295.891707 203.414427 294.092992 204.15948 292.766976 205.485495 
C 291.440961 206.811511 290.695909 208.610226 290.695909 210.485495 
C 290.695909 212.360764 291.440961 214.15948 292.766976 215.485495 
C 294.092992 216.811511 295.891707 217.556563 297.766976 217.556563 
z
" style="fill:#0000ff;fill-opacity:0.6;"/>
   </g>
   <g id="PathCollection_3">
    <path clip-path="url(#pee77ec3d76)" d="M 155.39992 228.564083 
C 157.275189 228.564083 159.073904 227.81903 160.39992 226.493015 
C 161.725935 225.166999 162.470988 223.368284 162.470988 221.493015 
C 162.470988 219.617746 161.725935 217.81903 160.39992 216.493015 
C 159.073904 215.166999 157.275189 214.421947 155.39992 214.421947 
C 153.524651 214.421947 151.725935 215.166999 150.39992 216.493015 
C 149.073904 217.81903 148.328852 219.617746 148.328852 221.493015 
C 148.328852 223.368284 149.073904 225.166999 150.39992 226.493015 
C 151.725935 227.81903 153.524651 228.564083 155.39992 228.564083 
z
" style="fill:#ffc0cb;fill-opacity:0.6;"/>
   </g>
   <g id="PathCollection_4">
    <path clip-path="url(#pee77ec3d76)" d="M 432.869054 100.395273 
C 434.744323 100.395273 436.543038 99.65022 437.869054 98.324205 
C 439.195069 96.998189 439.940122 95.199474 439.940122 93.324205 
C 439.940122 91.448936 439.195069 89.65022 437.869054 88.324205 
C 436.543038 86.998189 434.744323 86.253137 432.869054 86.253137 
C 430.993785 86.253137 429.195069 86.998189 427.869054 88.324205 
C 426.543038 89.65022 425.797986 91.448936 425.797986 93.324205 
C 425.797986 95.199474 426.543038 96.998189 427.869054 98.324205 
C 429.195069 99.65022 430.993785 100.395273 432.869054 100.395273 
z
" style="fill:#a52a2a;fill-opacity:0.6;"/>
   </g>
   <g id="PathCollection_5">
    <path clip-path="url(#pee77ec3d76)" d="M 252.851034 96.439087 
C 254.726303 96.439087 256.525019 95.694035 257.851034 94.368019 
C 259.17705 93.042004 259.922102 91.243289 259.922102 89.368019 
C 259.922102 87.49275 259.17705 85.694035 257.851034 84.368019 
C 256.525019 83.042004 254.726303 82.296952 252.851034 82.296952 
C 250.975765 82.296952 249.17705 83.042004 247.851034 84.368019 
C 246.525019 85.694035 245.779966 87.49275 245.779966 89.368019 
C 245.779966 91.243289 246.525019 93.042004 247.851034 94.368019 
C 249.17705 95.694035 250.975765 96.439087 252.851034 96.439087 
z
" style="fill:#ffa500;fill-opacity:0.6;"/>
   </g>
   <g id="PathCollection_6">
    <path clip-path="url(#pee77ec3d76)" d="M 200.854225 255.40991 
C 202.729494 255.40991 204.52821 254.664858 205.854225 253.338843 
C 207.180241 252.012827 207.925293 250.214112 207.925293 248.338843 
C 207.925293 246.463573 207.180241 244.664858 205.854225 243.338843 
C 204.52821 242.012827 202.729494 241.267775 200.854225 241.267775 
C 198.978956 241.267775 197.180241 242.012827 195.854225 243.338843 
C 194.52821 244.664858 193.783157 246.463573 193.783157 248.338843 
C 193.783157 250.214112 194.52821 252.012827 195.854225 253.338843 
C 197.180241 254.664858 198.978956 255.40991 200.854225 255.40991 
z
" style="fill:#ffff00;fill-opacity:0.6;"/>
   </g>
   <g id="PathCollection_7">
    <path clip-path="url(#pee77ec3d76)" d="M 402.857515 322.773609 
C 404.732784 322.773609 406.5315 322.028557 407.857515 320.702541 
C 409.183531 319.376526 409.928583 317.57781 409.928583 315.702541 
C 409.928583 313.827272 409.183531 312.028557 407.857515 310.702541 
C 406.5315 309.376526 404.732784 308.631473 402.857515 308.631473 
C 400.982246 308.631473 399.183531 309.376526 397.857515 310.702541 
C 396.5315 312.028557 395.786447 313.827272 395.786447 315.702541 
C 395.786447 317.57781 396.5315 319.376526 397.857515 320.702541 
C 399.183531 322.028557 400.982246 322.773609 402.857515 322.773609 
z
" style="fill:#ffa500;fill-opacity:0.6;"/>
   </g>
   <g id="PathCollection_8">
    <path clip-path="url(#pee77ec3d76)" d="M 341.499894 356.579871 
C 343.375163 356.579871 345.173879 355.834818 346.499894 354.508803 
C 347.82591 353.182787 348.570962 351.384072 348.570962 349.508803 
C 348.570962 347.633534 347.82591 345.834818 346.499894 344.508803 
C 345.173879 343.182787 343.375163 342.437735 341.499894 342.437735 
C 339.624625 342.437735 337.82591 343.182787 336.499894 344.508803 
C 335.173879 345.834818 334.428826 347.633534 334.428826 349.508803 
C 334.428826 351.384072 335.173879 353.182787 336.499894 354.508803 
C 337.82591 355.834818 339.624625 356.579871 341.499894 356.579871 
z
" style="fill:#a52a2a;fill-opacity:0.6;"/>
   </g>
   <g id="PathCollection_9">
    <path clip-path="url(#pee77ec3d76)" d="M 197.372052 301.12989 
C 199.247321 301.12989 201.046036 300.384838 202.372052 299.058823 
C 203.698067 297.732807 204.44312 295.934092 204.44312 294.058823 
C 204.44312 292.183554 203.698067 290.384838 202.372052 289.058823 
C 201.046036 287.732807 199.247321 286.987755 197.372052 286.987755 
C 195.496783 286.987755 193.698067 287.732807 192.372052 289.058823 
C 191.046036 290.384838 190.300984 292.183554 190.300984 294.058823 
C 190.300984 295.934092 191.046036 297.732807 192.372052 299.058823 
C 193.698067 300.384838 195.496783 301.12989 197.372052 301.12989 
z
" style="fill:#ffc0cb;fill-opacity:0.6;"/>
   </g>
   <g id="PathCollection_10">
    <path clip-path="url(#pee77ec3d76)" d="M 315.909021 369.061602 
C 317.78429 369.061602 319.583006 368.31655 320.909021 366.990534 
C 322.235037 365.664519 322.980089 363.865803 322.980089 361.990534 
C 322.980089 360.115265 322.235037 358.31655 320.909021 356.990534 
C 319.583006 355.664519 317.78429 354.919466 315.909021 354.919466 
C 314.033752 354.919466 312.235037 355.664519 310.909021 356.990534 
C 309.583006 358.31655 308.837953 360.115265 308.837953 361.990534 
C 308.837953 363.865803 309.583006 365.664519 310.909021 366.990534 
C 312.235037 368.31655 314.033752 369.061602 315.909021 369.061602 
z
" style="fill:#a52a2a;fill-opacity:0.6;"/>
   </g>
   <g id="PathCollection_11">
    <path clip-path="url(#pee77ec3d76)" d="M 430.631907 168.177628 
C 432.507176 168.177628 434.305891 167.432576 435.631907 166.10656 
C 436.957922 164.780545 437.702975 162.981829 437.702975 161.10656 
C 437.702975 159.231291 436.957922 157.432576 435.631907 156.10656 
C 434.305891 154.780545 432.507176 154.035492 430.631907 154.035492 
C 428.756638 154.035492 426.957922 154.780545 425.631907 156.10656 
C 424.305891 157.432576 423.560839 159.231291 423.560839 161.10656 
C 423.560839 162.981829 424.305891 164.780545 425.631907 166.10656 
C 426.957922 167.432576 428.756638 168.177628 430.631907 168.177628 
z
" style="fill:#ffc0cb;fill-opacity:0.6;"/>
   </g>
   <g id="PathCollection_12">
    <path clip-path="url(#pee77ec3d76)" d="M 179.531115 144.012016 
C 181.406384 144.012016 183.205099 143.266963 184.531115 141.940948 
C 185.85713 140.614932 186.602182 138.816217 186.602182 136.940948 
C 186.602182 135.065679 185.85713 133.266963 184.531115 131.940948 
C 183.205099 130.614932 181.406384 129.86988 179.531115 129.86988 
C 177.655845 129.86988 175.85713 130.614932 174.531115 131.940948 
C 173.205099 133.266963 172.460047 135.065679 172.460047 136.940948 
C 172.460047 138.816217 173.205099 140.614932 174.531115 141.940948 
C 175.85713 143.266963 177.655845 144.012016 179.531115 144.012016 
z
" style="fill:#800080;fill-opacity:0.6;"/>
   </g>
   <g id="PathCollection_13">
    <path clip-path="url(#pee77ec3d76)" d="M 118.337508 191.998158 
C 120.212777 191.998158 122.011493 191.253106 123.337508 189.92709 
C 124.663524 188.601075 125.408576 186.802359 125.408576 184.92709 
C 125.408576 183.051821 124.663524 181.253106 123.337508 179.92709 
C 122.011493 178.601075 120.212777 177.856022 118.337508 177.856022 
C 116.462239 177.856022 114.663524 178.601075 113.337508 179.92709 
C 112.011493 181.253106 111.26644 183.051821 111.26644 184.92709 
C 111.26644 186.802359 112.011493 188.601075 113.337508 189.92709 
C 114.663524 191.253106 116.462239 191.998158 118.337508 191.998158 
z
" style="fill:#a52a2a;fill-opacity:0.6;"/>
   </g>
   <g id="PathCollection_14">
    <path clip-path="url(#pee77ec3d76)" d="M 446.765659 198.449571 
C 448.640928 198.449571 450.439644 197.704519 451.765659 196.378503 
C 453.091675 195.052488 453.836727 193.253772 453.836727 191.378503 
C 453.836727 189.503234 453.091675 187.704519 451.765659 186.378503 
C 450.439644 185.052488 448.640928 184.307436 446.765659 184.307436 
C 444.89039 184.307436 443.091675 185.052488 441.765659 186.378503 
C 440.439644 187.704519 439.694591 189.503234 439.694591 191.378503 
C 439.694591 193.253772 440.439644 195.052488 441.765659 196.378503 
C 443.091675 197.704519 444.89039 198.449571 446.765659 198.449571 
z
" style="fill:#ffc0cb;fill-opacity:0.6;"/>
   </g>
   <g id="PathCollection_15">
    <path clip-path="url(#pee77ec3d76)" d="M 221.871569 369.638551 
C 223.746838 369.638551 225.545554 368.893499 226.871569 367.567483 
C 228.197585 366.241468 228.942637 364.442752 228.942637 362.567483 
C 228.942637 360.692214 228.197585 358.893499 226.871569 357.567483 
C 225.545554 356.241468 223.746838 355.496415 221.871569 355.496415 
C 219.9963 355.496415 218.197585 356.241468 216.871569 357.567483 
C 215.545554 358.893499 214.800501 360.692214 214.800501 362.567483 
C 214.800501 364.442752 215.545554 366.241468 216.871569 367.567483 
C 218.197585 368.893499 219.9963 369.638551 221.871569 369.638551 
z
" style="fill:#a52a2a;fill-opacity:0.6;"/>
   </g>
   <g id="PathCollection_16">
    <path clip-path="url(#pee77ec3d76)" d="M 377.464662 233.506623 
C 379.339931 233.506623 381.138647 232.76157 382.464662 231.435555 
C 383.790678 230.109539 384.53573 228.310824 384.53573 226.435555 
C 384.53573 224.560286 383.790678 222.76157 382.464662 221.435555 
C 381.138647 220.109539 379.339931 219.364487 377.464662 219.364487 
C 375.589393 219.364487 373.790678 220.109539 372.464662 221.435555 
C 371.138647 222.76157 370.393595 224.560286 370.393595 226.435555 
C 370.393595 228.310824 371.138647 230.109539 372.464662 231.435555 
C 373.790678 232.76157 375.589393 233.506623 377.464662 233.506623 
z
" style="fill:#0000ff;fill-opacity:0.6;"/>
   </g>
   <g id="PathCollection_17">
    <path clip-path="url(#pee77ec3d76)" d="M 192.229548 148.610791 
C 194.104817 148.610791 195.903532 147.865739 197.229548 146.539723 
C 198.555563 145.213708 199.300615 143.414993 199.300615 141.539723 
C 199.300615 139.664454 198.555563 137.865739 197.229548 136.539723 
C 195.903532 135.213708 194.104817 134.468656 192.229548 134.468656 
C 190.354279 134.468656 188.555563 135.213708 187.229548 136.539723 
C 185.903532 137.865739 185.15848 139.664454 185.15848 141.539723 
C 185.15848 143.414993 185.903532 145.213708 187.229548 146.539723 
C 188.555563 147.865739 190.354279 148.610791 192.229548 148.610791 
z
" style="fill:#800080;fill-opacity:0.6;"/>
   </g>
   <g id="PathCollection_18">
    <path clip-path="url(#pee77ec3d76)" d="M 413.421652 261.856609 
C 415.296921 261.856609 417.095637 261.111556 418.421652 259.785541 
C 419.747668 258.459525 420.49272 256.66081 420.49272 254.785541 
C 420.49272 252.910272 419.747668 251.111556 418.421652 249.785541 
C 417.095637 248.459525 415.296921 247.714473 413.421652 247.714473 
C 411.546383 247.714473 409.747668 248.459525 408.421652 249.785541 
C 407.095637 251.111556 406.350585 252.910272 406.350585 254.785541 
C 406.350585 256.66081 407.095637 258.459525 408.421652 259.785541 
C 409.747668 261.111556 411.546383 261.856609 413.421652 261.856609 
z
" style="fill:#ffff00;fill-opacity:0.6;"/>
   </g>
   <g id="PathCollection_19">
    <path clip-path="url(#pee77ec3d76)" d="M 142.220939 200.94404 
C 144.096208 200.94404 145.894923 200.198987 147.220939 198.872972 
C 148.546954 197.546956 149.292007 195.748241 149.292007 193.872972 
C 149.292007 191.997703 148.546954 190.198987 147.220939 188.872972 
C 145.894923 187.546956 144.096208 186.801904 142.220939 186.801904 
C 140.34567 186.801904 138.546954 187.546956 137.220939 188.872972 
C 135.894923 190.198987 135.149871 191.997703 135.149871 193.872972 
C 135.149871 195.748241 135.894923 197.546956 137.220939 198.872972 
C 138.546954 200.198987 140.34567 200.94404 142.220939 200.94404 
z
" style="fill:#ffa500;fill-opacity:0.6;"/>
   </g>
   <g id="PathCollection_20">
    <path clip-path="url(#pee77ec3d76)" d="M 423.799053 317.091824 
C 425.674322 317.091824 427.473037 316.346771 428.799053 315.020756 
C 430.125068 313.69474 430.87012 311.896025 430.87012 310.020756 
C 430.87012 308.145487 430.125068 306.346771 428.799053 305.020756 
C 427.473037 303.69474 425.674322 302.949688 423.799053 302.949688 
C 421.923784 302.949688 420.125068 303.69474 418.799053 305.020756 
C 417.473037 306.346771 416.727985 308.145487 416.727985 310.020756 
C 416.727985 311.896025 417.473037 313.69474 418.799053 315.020756 
C 420.125068 316.346771 421.923784 317.091824 423.799053 317.091824 
z
" style="fill:#a52a2a;fill-opacity:0.6;"/>
   </g>
   <g id="PathCollection_21">
    <path clip-path="url(#pee77ec3d76)" d="M 343.23209 295.996607 
C 345.107359 295.996607 346.906074 295.251554 348.23209 293.925539 
C 349.558105 292.599523 350.303157 290.800808 350.303157 288.925539 
C 350.303157 287.05027 349.558105 285.251554 348.23209 283.925539 
C 346.906074 282.599523 345.107359 281.854471 343.23209 281.854471 
C 341.35682 281.854471 339.558105 282.599523 338.23209 283.925539 
C 336.906074 285.251554 336.161022 287.05027 336.161022 288.925539 
C 336.161022 290.800808 336.906074 292.599523 338.23209 293.925539 
C 339.558105 295.251554 341.35682 295.996607 343.23209 295.996607 
z
" style="fill:#ffff00;fill-opacity:0.6;"/>
   </g>
   <g id="patch_3">
    <path d="M 518.4 388.8 
L 518.4 43.2 
" style="fill:none;stroke:#000000;stroke-linecap:square;stroke-linejoin:miter;"/>
   </g>
   <g id="patch_4">
    <path d="M 72 388.8 
L 518.4 388.8 
" style="fill:none;stroke:#000000;stroke-linecap:square;stroke-linejoin:miter;"/>
   </g>
   <g id="patch_5">
    <path d="M 72 43.2 
L 518.4 43.2 
" style="fill:none;stroke:#000000;stroke-linecap:square;stroke-linejoin:miter;"/>
   </g>
   <g id="patch_6">
    <path d="M 72 388.8 
L 72 43.2 
" style="fill:none;stroke:#000000;stroke-linecap:square;stroke-linejoin:miter;"/>
   </g>
   <g id="matplotlib.axis_1">
    <g id="xtick_1">
     <g id="line2d_1">
      <path clip-path="url(#pee77ec3d76)" d="M 72 388.8 
L 72 43.2 
" style="fill:none;stroke:#000000;stroke-dasharray:1.000000,3.000000;stroke-dashoffset:0.0;stroke-width:0.5;"/>
     </g>
     <g id="line2d_2">
      <defs>
       <path d="M 0 0 
L 0 -4 
" id="md2bd92ea24" style="stroke:#000000;stroke-width:0.5;"/>
      </defs>
      <g>
       <use style="stroke:#000000;stroke-width:0.5;" x="72.0" xlink:href="#md2bd92ea24" y="388.8"/>
      </g>
     </g>
     <g id="line2d_3">
      <defs>
       <path d="M 0 0 
L 0 4 
" id="m8a1ead998a" style="stroke:#000000;stroke-width:0.5;"/>
      </defs>
      <g>
       <use style="stroke:#000000;stroke-width:0.5;" x="72.0" xlink:href="#m8a1ead998a" y="43.2"/>
      </g>
     </g>
     <g id="text_1">
      <!-- 0 -->
      <defs>
       <path d="M 31.78125 66.40625 
Q 24.171875 66.40625 20.328125 58.90625 
Q 16.5 51.421875 16.5 36.375 
Q 16.5 21.390625 20.328125 13.890625 
Q 24.171875 6.390625 31.78125 6.390625 
Q 39.453125 6.390625 43.28125 13.890625 
Q 47.125 21.390625 47.125 36.375 
Q 47.125 51.421875 43.28125 58.90625 
Q 39.453125 66.40625 31.78125 66.40625 
M 31.78125 74.21875 
Q 44.046875 74.21875 50.515625 64.515625 
Q 56.984375 54.828125 56.984375 36.375 
Q 56.984375 17.96875 50.515625 8.265625 
Q 44.046875 -1.421875 31.78125 -1.421875 
Q 19.53125 -1.421875 13.0625 8.265625 
Q 6.59375 17.96875 6.59375 36.375 
Q 6.59375 54.828125 13.0625 64.515625 
Q 19.53125 74.21875 31.78125 74.21875 
" id="BitstreamVeraSans-Roman-30"/>
      </defs>
      <g transform="translate(68.1825 401.918125)scale(0.12 -0.12)">
       <use xlink:href="#BitstreamVeraSans-Roman-30"/>
      </g>
     </g>
    </g>
    <g id="xtick_2">
     <g id="line2d_4">
      <path clip-path="url(#pee77ec3d76)" d="M 161.28 388.8 
L 161.28 43.2 
" style="fill:none;stroke:#000000;stroke-dasharray:1.000000,3.000000;stroke-dashoffset:0.0;stroke-width:0.5;"/>
     </g>
     <g id="line2d_5">
      <g>
       <use style="stroke:#000000;stroke-width:0.5;" x="161.28" xlink:href="#md2bd92ea24" y="388.8"/>
      </g>
     </g>
     <g id="line2d_6">
      <g>
       <use style="stroke:#000000;stroke-width:0.5;" x="161.28" xlink:href="#m8a1ead998a" y="43.2"/>
      </g>
     </g>
     <g id="text_2">
      <!-- 50 -->
      <defs>
       <path d="M 10.796875 72.90625 
L 49.515625 72.90625 
L 49.515625 64.59375 
L 19.828125 64.59375 
L 19.828125 46.734375 
Q 21.96875 47.46875 24.109375 47.828125 
Q 26.265625 48.1875 28.421875 48.1875 
Q 40.625 48.1875 47.75 41.5 
Q 54.890625 34.8125 54.890625 23.390625 
Q 54.890625 11.625 47.5625 5.09375 
Q 40.234375 -1.421875 26.90625 -1.421875 
Q 22.3125 -1.421875 17.546875 -0.640625 
Q 12.796875 0.140625 7.71875 1.703125 
L 7.71875 11.625 
Q 12.109375 9.234375 16.796875 8.0625 
Q 21.484375 6.890625 26.703125 6.890625 
Q 35.15625 6.890625 40.078125 11.328125 
Q 45.015625 15.765625 45.015625 23.390625 
Q 45.015625 31 40.078125 35.4375 
Q 35.15625 39.890625 26.703125 39.890625 
Q 22.75 39.890625 18.8125 39.015625 
Q 14.890625 38.140625 10.796875 36.28125 
z
" id="BitstreamVeraSans-Roman-35"/>
      </defs>
      <g transform="translate(153.645 401.918125)scale(0.12 -0.12)">
       <use xlink:href="#BitstreamVeraSans-Roman-35"/>
       <use x="63.623046875" xlink:href="#BitstreamVeraSans-Roman-30"/>
      </g>
     </g>
    </g>
    <g id="xtick_3">
     <g id="line2d_7">
      <path clip-path="url(#pee77ec3d76)" d="M 250.56 388.8 
L 250.56 43.2 
" style="fill:none;stroke:#000000;stroke-dasharray:1.000000,3.000000;stroke-dashoffset:0.0;stroke-width:0.5;"/>
     </g>
     <g id="line2d_8">
      <g>
       <use style="stroke:#000000;stroke-width:0.5;" x="250.56" xlink:href="#md2bd92ea24" y="388.8"/>
      </g>
     </g>
     <g id="line2d_9">
      <g>
       <use style="stroke:#000000;stroke-width:0.5;" x="250.56" xlink:href="#m8a1ead998a" y="43.2"/>
      </g>
     </g>
     <g id="text_3">
      <!-- 100 -->
      <defs>
       <path d="M 12.40625 8.296875 
L 28.515625 8.296875 
L 28.515625 63.921875 
L 10.984375 60.40625 
L 10.984375 69.390625 
L 28.421875 72.90625 
L 38.28125 72.90625 
L 38.28125 8.296875 
L 54.390625 8.296875 
L 54.390625 0 
L 12.40625 0 
z
" id="BitstreamVeraSans-Roman-31"/>
      </defs>
      <g transform="translate(239.1075 401.918125)scale(0.12 -0.12)">
       <use xlink:href="#BitstreamVeraSans-Roman-31"/>
       <use x="63.623046875" xlink:href="#BitstreamVeraSans-Roman-30"/>
       <use x="127.24609375" xlink:href="#BitstreamVeraSans-Roman-30"/>
      </g>
     </g>
    </g>
    <g id="xtick_4">
     <g id="line2d_10">
      <path clip-path="url(#pee77ec3d76)" d="M 339.84 388.8 
L 339.84 43.2 
" style="fill:none;stroke:#000000;stroke-dasharray:1.000000,3.000000;stroke-dashoffset:0.0;stroke-width:0.5;"/>
     </g>
     <g id="line2d_11">
      <g>
       <use style="stroke:#000000;stroke-width:0.5;" x="339.84" xlink:href="#md2bd92ea24" y="388.8"/>
      </g>
     </g>
     <g id="line2d_12">
      <g>
       <use style="stroke:#000000;stroke-width:0.5;" x="339.84" xlink:href="#m8a1ead998a" y="43.2"/>
      </g>
     </g>
     <g id="text_4">
      <!-- 150 -->
      <g transform="translate(328.3875 401.918125)scale(0.12 -0.12)">
       <use xlink:href="#BitstreamVeraSans-Roman-31"/>
       <use x="63.623046875" xlink:href="#BitstreamVeraSans-Roman-35"/>
       <use x="127.24609375" xlink:href="#BitstreamVeraSans-Roman-30"/>
      </g>
     </g>
    </g>
    <g id="xtick_5">
     <g id="line2d_13">
      <path clip-path="url(#pee77ec3d76)" d="M 429.12 388.8 
L 429.12 43.2 
" style="fill:none;stroke:#000000;stroke-dasharray:1.000000,3.000000;stroke-dashoffset:0.0;stroke-width:0.5;"/>
     </g>
     <g id="line2d_14">
      <g>
       <use style="stroke:#000000;stroke-width:0.5;" x="429.12" xlink:href="#md2bd92ea24" y="388.8"/>
      </g>
     </g>
     <g id="line2d_15">
      <g>
       <use style="stroke:#000000;stroke-width:0.5;" x="429.12" xlink:href="#m8a1ead998a" y="43.2"/>
      </g>
     </g>
     <g id="text_5">
      <!-- 200 -->
      <defs>
       <path d="M 19.1875 8.296875 
L 53.609375 8.296875 
L 53.609375 0 
L 7.328125 0 
L 7.328125 8.296875 
Q 12.9375 14.109375 22.625 23.890625 
Q 32.328125 33.6875 34.8125 36.53125 
Q 39.546875 41.84375 41.421875 45.53125 
Q 43.3125 49.21875 43.3125 52.78125 
Q 43.3125 58.59375 39.234375 62.25 
Q 35.15625 65.921875 28.609375 65.921875 
Q 23.96875 65.921875 18.8125 64.3125 
Q 13.671875 62.703125 7.8125 59.421875 
L 7.8125 69.390625 
Q 13.765625 71.78125 18.9375 73 
Q 24.125 74.21875 28.421875 74.21875 
Q 39.75 74.21875 46.484375 68.546875 
Q 53.21875 62.890625 53.21875 53.421875 
Q 53.21875 48.921875 51.53125 44.890625 
Q 49.859375 40.875 45.40625 35.40625 
Q 44.1875 33.984375 37.640625 27.21875 
Q 31.109375 20.453125 19.1875 8.296875 
" id="BitstreamVeraSans-Roman-32"/>
      </defs>
      <g transform="translate(417.6675 401.918125)scale(0.12 -0.12)">
       <use xlink:href="#BitstreamVeraSans-Roman-32"/>
       <use x="63.623046875" xlink:href="#BitstreamVeraSans-Roman-30"/>
       <use x="127.24609375" xlink:href="#BitstreamVeraSans-Roman-30"/>
      </g>
     </g>
    </g>
    <g id="xtick_6">
     <g id="line2d_16">
      <path clip-path="url(#pee77ec3d76)" d="M 518.4 388.8 
L 518.4 43.2 
" style="fill:none;stroke:#000000;stroke-dasharray:1.000000,3.000000;stroke-dashoffset:0.0;stroke-width:0.5;"/>
     </g>
     <g id="line2d_17">
      <g>
       <use style="stroke:#000000;stroke-width:0.5;" x="518.4" xlink:href="#md2bd92ea24" y="388.8"/>
      </g>
     </g>
     <g id="line2d_18">
      <g>
       <use style="stroke:#000000;stroke-width:0.5;" x="518.4" xlink:href="#m8a1ead998a" y="43.2"/>
      </g>
     </g>
     <g id="text_6">
      <!-- 250 -->
      <g transform="translate(506.9475 401.918125)scale(0.12 -0.12)">
       <use xlink:href="#BitstreamVeraSans-Roman-32"/>
       <use x="63.623046875" xlink:href="#BitstreamVeraSans-Roman-35"/>
       <use x="127.24609375" xlink:href="#BitstreamVeraSans-Roman-30"/>
      </g>
     </g>
    </g>
    <g id="text_7">
     <!-- Distance(m) -->
     <defs>
      <path d="M 52 44.1875 
Q 55.375 50.25 60.0625 53.125 
Q 64.75 56 71.09375 56 
Q 79.640625 56 84.28125 50.015625 
Q 88.921875 44.046875 88.921875 33.015625 
L 88.921875 0 
L 79.890625 0 
L 79.890625 32.71875 
Q 79.890625 40.578125 77.09375 44.375 
Q 74.3125 48.1875 68.609375 48.1875 
Q 61.625 48.1875 57.5625 43.546875 
Q 53.515625 38.921875 53.515625 30.90625 
L 53.515625 0 
L 44.484375 0 
L 44.484375 32.71875 
Q 44.484375 40.625 41.703125 44.40625 
Q 38.921875 48.1875 33.109375 48.1875 
Q 26.21875 48.1875 22.15625 43.53125 
Q 18.109375 38.875 18.109375 30.90625 
L 18.109375 0 
L 9.078125 0 
L 9.078125 54.6875 
L 18.109375 54.6875 
L 18.109375 46.1875 
Q 21.1875 51.21875 25.484375 53.609375 
Q 29.78125 56 35.6875 56 
Q 41.65625 56 45.828125 52.96875 
Q 50 49.953125 52 44.1875 
" id="BitstreamVeraSans-Roman-6d"/>
      <path d="M 9.421875 54.6875 
L 18.40625 54.6875 
L 18.40625 0 
L 9.421875 0 
z
M 9.421875 75.984375 
L 18.40625 75.984375 
L 18.40625 64.59375 
L 9.421875 64.59375 
z
" id="BitstreamVeraSans-Roman-69"/>
      <path d="M 54.890625 33.015625 
L 54.890625 0 
L 45.90625 0 
L 45.90625 32.71875 
Q 45.90625 40.484375 42.875 44.328125 
Q 39.84375 48.1875 33.796875 48.1875 
Q 26.515625 48.1875 22.3125 43.546875 
Q 18.109375 38.921875 18.109375 30.90625 
L 18.109375 0 
L 9.078125 0 
L 9.078125 54.6875 
L 18.109375 54.6875 
L 18.109375 46.1875 
Q 21.34375 51.125 25.703125 53.5625 
Q 30.078125 56 35.796875 56 
Q 45.21875 56 50.046875 50.171875 
Q 54.890625 44.34375 54.890625 33.015625 
" id="BitstreamVeraSans-Roman-6e"/>
      <path d="M 19.671875 64.796875 
L 19.671875 8.109375 
L 31.59375 8.109375 
Q 46.6875 8.109375 53.6875 14.9375 
Q 60.6875 21.78125 60.6875 36.53125 
Q 60.6875 51.171875 53.6875 57.984375 
Q 46.6875 64.796875 31.59375 64.796875 
z
M 9.8125 72.90625 
L 30.078125 72.90625 
Q 51.265625 72.90625 61.171875 64.09375 
Q 71.09375 55.28125 71.09375 36.53125 
Q 71.09375 17.671875 61.125 8.828125 
Q 51.171875 0 30.078125 0 
L 9.8125 0 
z
" id="BitstreamVeraSans-Roman-44"/>
      <path d="M 8.015625 75.875 
L 15.828125 75.875 
Q 23.140625 64.359375 26.78125 53.3125 
Q 30.421875 42.28125 30.421875 31.390625 
Q 30.421875 20.453125 26.78125 9.375 
Q 23.140625 -1.703125 15.828125 -13.1875 
L 8.015625 -13.1875 
Q 14.5 -2 17.703125 9.0625 
Q 20.90625 20.125 20.90625 31.390625 
Q 20.90625 42.671875 17.703125 53.65625 
Q 14.5 64.65625 8.015625 75.875 
" id="BitstreamVeraSans-Roman-29"/>
      <path d="M 56.203125 29.59375 
L 56.203125 25.203125 
L 14.890625 25.203125 
Q 15.484375 15.921875 20.484375 11.0625 
Q 25.484375 6.203125 34.421875 6.203125 
Q 39.59375 6.203125 44.453125 7.46875 
Q 49.3125 8.734375 54.109375 11.28125 
L 54.109375 2.78125 
Q 49.265625 0.734375 44.1875 -0.34375 
Q 39.109375 -1.421875 33.890625 -1.421875 
Q 20.796875 -1.421875 13.15625 6.1875 
Q 5.515625 13.8125 5.515625 26.8125 
Q 5.515625 40.234375 12.765625 48.109375 
Q 20.015625 56 32.328125 56 
Q 43.359375 56 49.78125 48.890625 
Q 56.203125 41.796875 56.203125 29.59375 
M 47.21875 32.234375 
Q 47.125 39.59375 43.09375 43.984375 
Q 39.0625 48.390625 32.421875 48.390625 
Q 24.90625 48.390625 20.390625 44.140625 
Q 15.875 39.890625 15.1875 32.171875 
z
" id="BitstreamVeraSans-Roman-65"/>
      <path d="M 34.28125 27.484375 
Q 23.390625 27.484375 19.1875 25 
Q 14.984375 22.515625 14.984375 16.5 
Q 14.984375 11.71875 18.140625 8.90625 
Q 21.296875 6.109375 26.703125 6.109375 
Q 34.1875 6.109375 38.703125 11.40625 
Q 43.21875 16.703125 43.21875 25.484375 
L 43.21875 27.484375 
z
M 52.203125 31.203125 
L 52.203125 0 
L 43.21875 0 
L 43.21875 8.296875 
Q 40.140625 3.328125 35.546875 0.953125 
Q 30.953125 -1.421875 24.3125 -1.421875 
Q 15.921875 -1.421875 10.953125 3.296875 
Q 6 8.015625 6 15.921875 
Q 6 25.140625 12.171875 29.828125 
Q 18.359375 34.515625 30.609375 34.515625 
L 43.21875 34.515625 
L 43.21875 35.40625 
Q 43.21875 41.609375 39.140625 45 
Q 35.0625 48.390625 27.6875 48.390625 
Q 23 48.390625 18.546875 47.265625 
Q 14.109375 46.140625 10.015625 43.890625 
L 10.015625 52.203125 
Q 14.9375 54.109375 19.578125 55.046875 
Q 24.21875 56 28.609375 56 
Q 40.484375 56 46.34375 49.84375 
Q 52.203125 43.703125 52.203125 31.203125 
" id="BitstreamVeraSans-Roman-61"/>
      <path d="M 18.3125 70.21875 
L 18.3125 54.6875 
L 36.8125 54.6875 
L 36.8125 47.703125 
L 18.3125 47.703125 
L 18.3125 18.015625 
Q 18.3125 11.328125 20.140625 9.421875 
Q 21.96875 7.515625 27.59375 7.515625 
L 36.8125 7.515625 
L 36.8125 0 
L 27.59375 0 
Q 17.1875 0 13.234375 3.875 
Q 9.28125 7.765625 9.28125 18.015625 
L 9.28125 47.703125 
L 2.6875 47.703125 
L 2.6875 54.6875 
L 9.28125 54.6875 
L 9.28125 70.21875 
z
" id="BitstreamVeraSans-Roman-74"/>
      <path d="M 48.78125 52.59375 
L 48.78125 44.1875 
Q 44.96875 46.296875 41.140625 47.34375 
Q 37.3125 48.390625 33.40625 48.390625 
Q 24.65625 48.390625 19.8125 42.84375 
Q 14.984375 37.3125 14.984375 27.296875 
Q 14.984375 17.28125 19.8125 11.734375 
Q 24.65625 6.203125 33.40625 6.203125 
Q 37.3125 6.203125 41.140625 7.25 
Q 44.96875 8.296875 48.78125 10.40625 
L 48.78125 2.09375 
Q 45.015625 0.34375 40.984375 -0.53125 
Q 36.96875 -1.421875 32.421875 -1.421875 
Q 20.0625 -1.421875 12.78125 6.34375 
Q 5.515625 14.109375 5.515625 27.296875 
Q 5.515625 40.671875 12.859375 48.328125 
Q 20.21875 56 33.015625 56 
Q 37.15625 56 41.109375 55.140625 
Q 45.0625 54.296875 48.78125 52.59375 
" id="BitstreamVeraSans-Roman-63"/>
      <path d="M 44.28125 53.078125 
L 44.28125 44.578125 
Q 40.484375 46.53125 36.375 47.5 
Q 32.28125 48.484375 27.875 48.484375 
Q 21.1875 48.484375 17.84375 46.4375 
Q 14.5 44.390625 14.5 40.28125 
Q 14.5 37.15625 16.890625 35.375 
Q 19.28125 33.59375 26.515625 31.984375 
L 29.59375 31.296875 
Q 39.15625 29.25 43.1875 25.515625 
Q 47.21875 21.78125 47.21875 15.09375 
Q 47.21875 7.46875 41.1875 3.015625 
Q 35.15625 -1.421875 24.609375 -1.421875 
Q 20.21875 -1.421875 15.453125 -0.5625 
Q 10.6875 0.296875 5.421875 2 
L 5.421875 11.28125 
Q 10.40625 8.6875 15.234375 7.390625 
Q 20.0625 6.109375 24.8125 6.109375 
Q 31.15625 6.109375 34.5625 8.28125 
Q 37.984375 10.453125 37.984375 14.40625 
Q 37.984375 18.0625 35.515625 20.015625 
Q 33.0625 21.96875 24.703125 23.78125 
L 21.578125 24.515625 
Q 13.234375 26.265625 9.515625 29.90625 
Q 5.8125 33.546875 5.8125 39.890625 
Q 5.8125 47.609375 11.28125 51.796875 
Q 16.75 56 26.8125 56 
Q 31.78125 56 36.171875 55.265625 
Q 40.578125 54.546875 44.28125 53.078125 
" id="BitstreamVeraSans-Roman-73"/>
      <path d="M 31 75.875 
Q 24.46875 64.65625 21.28125 53.65625 
Q 18.109375 42.671875 18.109375 31.390625 
Q 18.109375 20.125 21.3125 9.0625 
Q 24.515625 -2 31 -13.1875 
L 23.1875 -13.1875 
Q 15.875 -1.703125 12.234375 9.375 
Q 8.59375 20.453125 8.59375 31.390625 
Q 8.59375 42.28125 12.203125 53.3125 
Q 15.828125 64.359375 23.1875 75.875 
z
" id="BitstreamVeraSans-Roman-28"/>
     </defs>
     <g transform="translate(258.43875 418.531875)scale(0.12 -0.12)">
      <use xlink:href="#BitstreamVeraSans-Roman-44"/>
      <use x="77.001953125" xlink:href="#BitstreamVeraSans-Roman-69"/>
      <use x="104.78515625" xlink:href="#BitstreamVeraSans-Roman-73"/>
      <use x="156.884765625" xlink:href="#BitstreamVeraSans-Roman-74"/>
      <use x="196.09375" xlink:href="#BitstreamVeraSans-Roman-61"/>
      <use x="257.373046875" xlink:href="#BitstreamVeraSans-Roman-6e"/>
      <use x="320.751953125" xlink:href="#BitstreamVeraSans-Roman-63"/>
      <use x="375.732421875" xlink:href="#BitstreamVeraSans-Roman-65"/>
      <use x="437.255859375" xlink:href="#BitstreamVeraSans-Roman-28"/>
      <use x="476.26953125" xlink:href="#BitstreamVeraSans-Roman-6d"/>
      <use x="573.681640625" xlink:href="#BitstreamVeraSans-Roman-29"/>
     </g>
    </g>
   </g>
   <g id="matplotlib.axis_2">
    <g id="ytick_1">
     <g id="line2d_19">
      <path clip-path="url(#pee77ec3d76)" d="M 72 388.8 
L 518.4 388.8 
" style="fill:none;stroke:#000000;stroke-dasharray:1.000000,3.000000;stroke-dashoffset:0.0;stroke-width:0.5;"/>
     </g>
     <g id="line2d_20">
      <defs>
       <path d="M 0 0 
L 4 0 
" id="md343313e2e" style="stroke:#000000;stroke-width:0.5;"/>
      </defs>
      <g>
       <use style="stroke:#000000;stroke-width:0.5;" x="72.0" xlink:href="#md343313e2e" y="388.8"/>
      </g>
     </g>
     <g id="line2d_21">
      <defs>
       <path d="M 0 0 
L -4 0 
" id="m5866b08115" style="stroke:#000000;stroke-width:0.5;"/>
      </defs>
      <g>
       <use style="stroke:#000000;stroke-width:0.5;" x="518.4" xlink:href="#m5866b08115" y="388.8"/>
      </g>
     </g>
     <g id="text_8">
      <!-- 0 -->
      <g transform="translate(60.365 392.11125)scale(0.12 -0.12)">
       <use xlink:href="#BitstreamVeraSans-Roman-30"/>
      </g>
     </g>
    </g>
    <g id="ytick_2">
     <g id="line2d_22">
      <path clip-path="url(#pee77ec3d76)" d="M 72 319.68 
L 518.4 319.68 
" style="fill:none;stroke:#000000;stroke-dasharray:1.000000,3.000000;stroke-dashoffset:0.0;stroke-width:0.5;"/>
     </g>
     <g id="line2d_23">
      <g>
       <use style="stroke:#000000;stroke-width:0.5;" x="72.0" xlink:href="#md343313e2e" y="319.68"/>
      </g>
     </g>
     <g id="line2d_24">
      <g>
       <use style="stroke:#000000;stroke-width:0.5;" x="518.4" xlink:href="#m5866b08115" y="319.68"/>
      </g>
     </g>
     <g id="text_9">
      <!-- 50 -->
      <g transform="translate(52.73 322.99125)scale(0.12 -0.12)">
       <use xlink:href="#BitstreamVeraSans-Roman-35"/>
       <use x="63.623046875" xlink:href="#BitstreamVeraSans-Roman-30"/>
      </g>
     </g>
    </g>
    <g id="ytick_3">
     <g id="line2d_25">
      <path clip-path="url(#pee77ec3d76)" d="M 72 250.56 
L 518.4 250.56 
" style="fill:none;stroke:#000000;stroke-dasharray:1.000000,3.000000;stroke-dashoffset:0.0;stroke-width:0.5;"/>
     </g>
     <g id="line2d_26">
      <g>
       <use style="stroke:#000000;stroke-width:0.5;" x="72.0" xlink:href="#md343313e2e" y="250.56"/>
      </g>
     </g>
     <g id="line2d_27">
      <g>
       <use style="stroke:#000000;stroke-width:0.5;" x="518.4" xlink:href="#m5866b08115" y="250.56"/>
      </g>
     </g>
     <g id="text_10">
      <!-- 100 -->
      <g transform="translate(45.095 253.87125)scale(0.12 -0.12)">
       <use xlink:href="#BitstreamVeraSans-Roman-31"/>
       <use x="63.623046875" xlink:href="#BitstreamVeraSans-Roman-30"/>
       <use x="127.24609375" xlink:href="#BitstreamVeraSans-Roman-30"/>
      </g>
     </g>
    </g>
    <g id="ytick_4">
     <g id="line2d_28">
      <path clip-path="url(#pee77ec3d76)" d="M 72 181.44 
L 518.4 181.44 
" style="fill:none;stroke:#000000;stroke-dasharray:1.000000,3.000000;stroke-dashoffset:0.0;stroke-width:0.5;"/>
     </g>
     <g id="line2d_29">
      <g>
       <use style="stroke:#000000;stroke-width:0.5;" x="72.0" xlink:href="#md343313e2e" y="181.44"/>
      </g>
     </g>
     <g id="line2d_30">
      <g>
       <use style="stroke:#000000;stroke-width:0.5;" x="518.4" xlink:href="#m5866b08115" y="181.44"/>
      </g>
     </g>
     <g id="text_11">
      <!-- 150 -->
      <g transform="translate(45.095 184.75125)scale(0.12 -0.12)">
       <use xlink:href="#BitstreamVeraSans-Roman-31"/>
       <use x="63.623046875" xlink:href="#BitstreamVeraSans-Roman-35"/>
       <use x="127.24609375" xlink:href="#BitstreamVeraSans-Roman-30"/>
      </g>
     </g>
    </g>
    <g id="ytick_5">
     <g id="line2d_31">
      <path clip-path="url(#pee77ec3d76)" d="M 72 112.32 
L 518.4 112.32 
" style="fill:none;stroke:#000000;stroke-dasharray:1.000000,3.000000;stroke-dashoffset:0.0;stroke-width:0.5;"/>
     </g>
     <g id="line2d_32">
      <g>
       <use style="stroke:#000000;stroke-width:0.5;" x="72.0" xlink:href="#md343313e2e" y="112.32"/>
      </g>
     </g>
     <g id="line2d_33">
      <g>
       <use style="stroke:#000000;stroke-width:0.5;" x="518.4" xlink:href="#m5866b08115" y="112.32"/>
      </g>
     </g>
     <g id="text_12">
      <!-- 200 -->
      <g transform="translate(45.095 115.63125)scale(0.12 -0.12)">
       <use xlink:href="#BitstreamVeraSans-Roman-32"/>
       <use x="63.623046875" xlink:href="#BitstreamVeraSans-Roman-30"/>
       <use x="127.24609375" xlink:href="#BitstreamVeraSans-Roman-30"/>
      </g>
     </g>
    </g>
    <g id="ytick_6">
     <g id="line2d_34">
      <path clip-path="url(#pee77ec3d76)" d="M 72 43.2 
L 518.4 43.2 
" style="fill:none;stroke:#000000;stroke-dasharray:1.000000,3.000000;stroke-dashoffset:0.0;stroke-width:0.5;"/>
     </g>
     <g id="line2d_35">
      <g>
       <use style="stroke:#000000;stroke-width:0.5;" x="72.0" xlink:href="#md343313e2e" y="43.2"/>
      </g>
     </g>
     <g id="line2d_36">
      <g>
       <use style="stroke:#000000;stroke-width:0.5;" x="518.4" xlink:href="#m5866b08115" y="43.2"/>
      </g>
     </g>
     <g id="text_13">
      <!-- 250 -->
      <g transform="translate(45.095 46.51125)scale(0.12 -0.12)">
       <use xlink:href="#BitstreamVeraSans-Roman-32"/>
       <use x="63.623046875" xlink:href="#BitstreamVeraSans-Roman-35"/>
       <use x="127.24609375" xlink:href="#BitstreamVeraSans-Roman-30"/>
      </g>
     </g>
    </g>
    <g id="text_14">
     <!-- Distance(m) -->
     <g transform="translate(37.599375 252.76125)rotate(-90.0)scale(0.12 -0.12)">
      <use xlink:href="#BitstreamVeraSans-Roman-44"/>
      <use x="77.001953125" xlink:href="#BitstreamVeraSans-Roman-69"/>
      <use x="104.78515625" xlink:href="#BitstreamVeraSans-Roman-73"/>
      <use x="156.884765625" xlink:href="#BitstreamVeraSans-Roman-74"/>
      <use x="196.09375" xlink:href="#BitstreamVeraSans-Roman-61"/>
      <use x="257.373046875" xlink:href="#BitstreamVeraSans-Roman-6e"/>
      <use x="320.751953125" xlink:href="#BitstreamVeraSans-Roman-63"/>
      <use x="375.732421875" xlink:href="#BitstreamVeraSans-Roman-65"/>
      <use x="437.255859375" xlink:href="#BitstreamVeraSans-Roman-28"/>
      <use x="476.26953125" xlink:href="#BitstreamVeraSans-Roman-6d"/>
      <use x="573.681640625" xlink:href="#BitstreamVeraSans-Roman-29"/>
     </g>
    </g>
   </g>
   <g id="text_15">
    <!-- Deployment -->
    <defs>
     <path d="M 30.609375 48.390625 
Q 23.390625 48.390625 19.1875 42.75 
Q 14.984375 37.109375 14.984375 27.296875 
Q 14.984375 17.484375 19.15625 11.84375 
Q 23.34375 6.203125 30.609375 6.203125 
Q 37.796875 6.203125 41.984375 11.859375 
Q 46.1875 17.53125 46.1875 27.296875 
Q 46.1875 37.015625 41.984375 42.703125 
Q 37.796875 48.390625 30.609375 48.390625 
M 30.609375 56 
Q 42.328125 56 49.015625 48.375 
Q 55.71875 40.765625 55.71875 27.296875 
Q 55.71875 13.875 49.015625 6.21875 
Q 42.328125 -1.421875 30.609375 -1.421875 
Q 18.84375 -1.421875 12.171875 6.21875 
Q 5.515625 13.875 5.515625 27.296875 
Q 5.515625 40.765625 12.171875 48.375 
Q 18.84375 56 30.609375 56 
" id="BitstreamVeraSans-Roman-6f"/>
     <path d="M 18.109375 8.203125 
L 18.109375 -20.796875 
L 9.078125 -20.796875 
L 9.078125 54.6875 
L 18.109375 54.6875 
L 18.109375 46.390625 
Q 20.953125 51.265625 25.265625 53.625 
Q 29.59375 56 35.59375 56 
Q 45.5625 56 51.78125 48.09375 
Q 58.015625 40.1875 58.015625 27.296875 
Q 58.015625 14.40625 51.78125 6.484375 
Q 45.5625 -1.421875 35.59375 -1.421875 
Q 29.59375 -1.421875 25.265625 0.953125 
Q 20.953125 3.328125 18.109375 8.203125 
M 48.6875 27.296875 
Q 48.6875 37.203125 44.609375 42.84375 
Q 40.53125 48.484375 33.40625 48.484375 
Q 26.265625 48.484375 22.1875 42.84375 
Q 18.109375 37.203125 18.109375 27.296875 
Q 18.109375 17.390625 22.1875 11.75 
Q 26.265625 6.109375 33.40625 6.109375 
Q 40.53125 6.109375 44.609375 11.75 
Q 48.6875 17.390625 48.6875 27.296875 
" id="BitstreamVeraSans-Roman-70"/>
     <path d="M 9.421875 75.984375 
L 18.40625 75.984375 
L 18.40625 0 
L 9.421875 0 
z
" id="BitstreamVeraSans-Roman-6c"/>
     <path d="M 32.171875 -5.078125 
Q 28.375 -14.84375 24.75 -17.8125 
Q 21.140625 -20.796875 15.09375 -20.796875 
L 7.90625 -20.796875 
L 7.90625 -13.28125 
L 13.1875 -13.28125 
Q 16.890625 -13.28125 18.9375 -11.515625 
Q 21 -9.765625 23.484375 -3.21875 
L 25.09375 0.875 
L 2.984375 54.6875 
L 12.5 54.6875 
L 29.59375 11.921875 
L 46.6875 54.6875 
L 56.203125 54.6875 
z
" id="BitstreamVeraSans-Roman-79"/>
    </defs>
    <g transform="translate(251.1585 38.2)scale(0.144 -0.144)">
     <use xlink:href="#BitstreamVeraSans-Roman-44"/>
     <use x="77.001953125" xlink:href="#BitstreamVeraSans-Roman-65"/>
     <use x="138.525390625" xlink:href="#BitstreamVeraSans-Roman-70"/>
     <use x="202.001953125" xlink:href="#BitstreamVeraSans-Roman-6c"/>
     <use x="229.78515625" xlink:href="#BitstreamVeraSans-Roman-6f"/>
     <use x="290.966796875" xlink:href="#BitstreamVeraSans-Roman-79"/>
     <use x="350.146484375" xlink:href="#BitstreamVeraSans-Roman-6d"/>
     <use x="447.55859375" xlink:href="#BitstreamVeraSans-Roman-65"/>
     <use x="509.08203125" xlink:href="#BitstreamVeraSans-Roman-6e"/>
     <use x="572.4609375" xlink:href="#BitstreamVeraSans-Roman-74"/>
    </g>
   </g>
   <g id="legend_1">
    <g id="patch_7">
     <path d="M 411.54525 477.45 
L 511.2 477.45 
L 511.2 50.4 
L 411.54525 50.4 
z
" style="fill:#ffffff;stroke:#000000;stroke-linejoin:miter;"/>
    </g>
    <g id="PathCollection_22">
     <path d="M 421.62525 70.392818 
C 423.500519 70.392818 425.299235 69.647766 426.62525 68.32175 
C 427.951265 66.995735 428.696318 65.197019 428.696318 63.32175 
C 428.696318 61.446481 427.951265 59.647766 426.62525 58.32175 
C 425.299235 56.995735 423.500519 56.250682 421.62525 56.250682 
C 419.749981 56.250682 417.951265 56.995735 416.62525 58.32175 
C 415.299235 59.647766 414.554182 61.446481 414.554182 63.32175 
C 414.554182 65.197019 415.299235 66.995735 416.62525 68.32175 
C 417.951265 69.647766 419.749981 70.392818 421.62525 70.392818 
z
" style="fill:#0000ff;fill-opacity:0.6;"/>
     <path d="M 431.70525 69.132818 
C 433.580519 69.132818 435.379234 68.387765 436.70525 67.06175 
C 438.031265 65.735734 438.776318 63.937019 438.776318 62.06175 
C 438.776318 60.186481 438.031265 58.387765 436.70525 57.06175 
C 435.379234 55.735734 433.580519 54.990682 431.70525 54.990682 
C 429.829981 54.990682 428.031265 55.735734 426.70525 57.06175 
C 425.379234 58.387765 424.634182 60.186481 424.634182 62.06175 
C 424.634182 63.937019 425.379234 65.735734 426.70525 67.06175 
C 428.031265 68.387765 429.829981 69.132818 431.70525 69.132818 
z
" style="fill:#0000ff;fill-opacity:0.6;"/>
     <path d="M 441.78525 71.022818 
C 443.660519 71.022818 445.459235 70.277766 446.78525 68.95175 
C 448.111266 67.625735 448.856318 65.827019 448.856318 63.95175 
C 448.856318 62.076481 448.111266 60.277766 446.78525 58.95175 
C 445.459235 57.625735 443.660519 56.880682 441.78525 56.880682 
C 439.909981 56.880682 438.111266 57.625735 436.78525 58.95175 
C 435.459235 60.277766 434.714182 62.076481 434.714182 63.95175 
C 434.714182 65.827019 435.459235 67.625735 436.78525 68.95175 
C 438.111266 70.277766 439.909981 71.022818 441.78525 71.022818 
z
" style="fill:#0000ff;fill-opacity:0.6;"/>
    </g>
    <g id="text_16">
     <!-- SF=7 -->
     <defs>
      <path d="M 10.59375 45.40625 
L 73.1875 45.40625 
L 73.1875 37.203125 
L 10.59375 37.203125 
z
M 10.59375 25.484375 
L 73.1875 25.484375 
L 73.1875 17.1875 
L 10.59375 17.1875 
z
" id="BitstreamVeraSans-Roman-3d"/>
      <path d="M 53.515625 70.515625 
L 53.515625 60.890625 
Q 47.90625 63.578125 42.921875 64.890625 
Q 37.9375 66.21875 33.296875 66.21875 
Q 25.25 66.21875 20.875 63.09375 
Q 16.5 59.96875 16.5 54.203125 
Q 16.5 49.359375 19.40625 46.890625 
Q 22.3125 44.4375 30.421875 42.921875 
L 36.375 41.703125 
Q 47.40625 39.59375 52.65625 34.296875 
Q 57.90625 29 57.90625 20.125 
Q 57.90625 9.515625 50.796875 4.046875 
Q 43.703125 -1.421875 29.984375 -1.421875 
Q 24.8125 -1.421875 18.96875 -0.25 
Q 13.140625 0.921875 6.890625 3.21875 
L 6.890625 13.375 
Q 12.890625 10.015625 18.65625 8.296875 
Q 24.421875 6.59375 29.984375 6.59375 
Q 38.421875 6.59375 43.015625 9.90625 
Q 47.609375 13.234375 47.609375 19.390625 
Q 47.609375 24.75 44.3125 27.78125 
Q 41.015625 30.8125 33.5 32.328125 
L 27.484375 33.5 
Q 16.453125 35.6875 11.515625 40.375 
Q 6.59375 45.0625 6.59375 53.421875 
Q 6.59375 63.09375 13.40625 68.65625 
Q 20.21875 74.21875 32.171875 74.21875 
Q 37.3125 74.21875 42.625 73.28125 
Q 47.953125 72.359375 53.515625 70.515625 
" id="BitstreamVeraSans-Roman-53"/>
      <path d="M 9.8125 72.90625 
L 51.703125 72.90625 
L 51.703125 64.59375 
L 19.671875 64.59375 
L 19.671875 43.109375 
L 48.578125 43.109375 
L 48.578125 34.8125 
L 19.671875 34.8125 
L 19.671875 0 
L 9.8125 0 
z
" id="BitstreamVeraSans-Roman-46"/>
      <path d="M 8.203125 72.90625 
L 55.078125 72.90625 
L 55.078125 68.703125 
L 28.609375 0 
L 18.3125 0 
L 43.21875 64.59375 
L 8.203125 64.59375 
z
" id="BitstreamVeraSans-Roman-37"/>
     </defs>
     <g transform="translate(457.62525 67.10175)scale(0.144 -0.144)">
      <use xlink:href="#BitstreamVeraSans-Roman-53"/>
      <use x="63.4765625" xlink:href="#BitstreamVeraSans-Roman-46"/>
      <use x="120.99609375" xlink:href="#BitstreamVeraSans-Roman-3d"/>
      <use x="204.78515625" xlink:href="#BitstreamVeraSans-Roman-37"/>
     </g>
    </g>
    <g id="PathCollection_23">
     <path d="M 421.62525 91.529318 
C 423.500519 91.529318 425.299235 90.784265 426.62525 89.45825 
C 427.951265 88.132234 428.696318 86.333519 428.696318 84.45825 
C 428.696318 82.582981 427.951265 80.784265 426.62525 79.45825 
C 425.299235 78.132234 423.500519 77.387182 421.62525 77.387182 
C 419.749981 77.387182 417.951265 78.132234 416.62525 79.45825 
C 415.299235 80.784265 414.554182 82.582981 414.554182 84.45825 
C 414.554182 86.333519 415.299235 88.132234 416.62525 89.45825 
C 417.951265 90.784265 419.749981 91.529318 421.62525 91.529318 
z
" style="fill:#ffc0cb;fill-opacity:0.6;"/>
     <path d="M 431.70525 90.269318 
C 433.580519 90.269318 435.379234 89.524265 436.70525 88.19825 
C 438.031265 86.872234 438.776318 85.073519 438.776318 83.19825 
C 438.776318 81.322981 438.031265 79.524265 436.70525 78.19825 
C 435.379234 76.872234 433.580519 76.127182 431.70525 76.127182 
C 429.829981 76.127182 428.031265 76.872234 426.70525 78.19825 
C 425.379234 79.524265 424.634182 81.322981 424.634182 83.19825 
C 424.634182 85.073519 425.379234 86.872234 426.70525 88.19825 
C 428.031265 89.524265 429.829981 90.269318 431.70525 90.269318 
z
" style="fill:#ffc0cb;fill-opacity:0.6;"/>
     <path d="M 441.78525 92.159318 
C 443.660519 92.159318 445.459235 91.414265 446.78525 90.08825 
C 448.111266 88.762234 448.856318 86.963519 448.856318 85.08825 
C 448.856318 83.212981 448.111266 81.414265 446.78525 80.08825 
C 445.459235 78.762234 443.660519 78.017182 441.78525 78.017182 
C 439.909981 78.017182 438.111266 78.762234 436.78525 80.08825 
C 435.459235 81.414265 434.714182 83.212981 434.714182 85.08825 
C 434.714182 86.963519 435.459235 88.762234 436.78525 90.08825 
C 438.111266 91.414265 439.909981 92.159318 441.78525 92.159318 
z
" style="fill:#ffc0cb;fill-opacity:0.6;"/>
    </g>
    <g id="text_17">
     <!-- SF=9 -->
     <defs>
      <path d="M 10.984375 1.515625 
L 10.984375 10.5 
Q 14.703125 8.734375 18.5 7.8125 
Q 22.3125 6.890625 25.984375 6.890625 
Q 35.75 6.890625 40.890625 13.453125 
Q 46.046875 20.015625 46.78125 33.40625 
Q 43.953125 29.203125 39.59375 26.953125 
Q 35.25 24.703125 29.984375 24.703125 
Q 19.046875 24.703125 12.671875 31.3125 
Q 6.296875 37.9375 6.296875 49.421875 
Q 6.296875 60.640625 12.9375 67.421875 
Q 19.578125 74.21875 30.609375 74.21875 
Q 43.265625 74.21875 49.921875 64.515625 
Q 56.59375 54.828125 56.59375 36.375 
Q 56.59375 19.140625 48.40625 8.859375 
Q 40.234375 -1.421875 26.421875 -1.421875 
Q 22.703125 -1.421875 18.890625 -0.6875 
Q 15.09375 0.046875 10.984375 1.515625 
M 30.609375 32.421875 
Q 37.25 32.421875 41.125 36.953125 
Q 45.015625 41.5 45.015625 49.421875 
Q 45.015625 57.28125 41.125 61.84375 
Q 37.25 66.40625 30.609375 66.40625 
Q 23.96875 66.40625 20.09375 61.84375 
Q 16.21875 57.28125 16.21875 49.421875 
Q 16.21875 41.5 20.09375 36.953125 
Q 23.96875 32.421875 30.609375 32.421875 
" id="BitstreamVeraSans-Roman-39"/>
     </defs>
     <g transform="translate(457.62525 88.23825)scale(0.144 -0.144)">
      <use xlink:href="#BitstreamVeraSans-Roman-53"/>
      <use x="63.4765625" xlink:href="#BitstreamVeraSans-Roman-46"/>
      <use x="120.99609375" xlink:href="#BitstreamVeraSans-Roman-3d"/>
      <use x="204.78515625" xlink:href="#BitstreamVeraSans-Roman-39"/>
     </g>
    </g>
    <g id="PathCollection_24">
     <path d="M 421.62525 112.665818 
C 423.500519 112.665818 425.299235 111.920765 426.62525 110.59475 
C 427.951265 109.268734 428.696318 107.470019 428.696318 105.59475 
C 428.696318 103.719481 427.951265 101.920765 426.62525 100.59475 
C 425.299235 99.268734 423.500519 98.523682 421.62525 98.523682 
C 419.749981 98.523682 417.951265 99.268734 416.62525 100.59475 
C 415.299235 101.920765 414.554182 103.719481 414.554182 105.59475 
C 414.554182 107.470019 415.299235 109.268734 416.62525 110.59475 
C 417.951265 111.920765 419.749981 112.665818 421.62525 112.665818 
z
" style="fill:#a52a2a;fill-opacity:0.6;"/>
     <path d="M 431.70525 111.405818 
C 433.580519 111.405818 435.379234 110.660765 436.70525 109.33475 
C 438.031265 108.008734 438.776318 106.210019 438.776318 104.33475 
C 438.776318 102.459481 438.031265 100.660765 436.70525 99.33475 
C 435.379234 98.008734 433.580519 97.263682 431.70525 97.263682 
C 429.829981 97.263682 428.031265 98.008734 426.70525 99.33475 
C 425.379234 100.660765 424.634182 102.459481 424.634182 104.33475 
C 424.634182 106.210019 425.379234 108.008734 426.70525 109.33475 
C 428.031265 110.660765 429.829981 111.405818 431.70525 111.405818 
z
" style="fill:#a52a2a;fill-opacity:0.6;"/>
     <path d="M 441.78525 113.295818 
C 443.660519 113.295818 445.459235 112.550765 446.78525 111.22475 
C 448.111266 109.898734 448.856318 108.100019 448.856318 106.22475 
C 448.856318 104.349481 448.111266 102.550765 446.78525 101.22475 
C 445.459235 99.898734 443.660519 99.153682 441.78525 99.153682 
C 439.909981 99.153682 438.111266 99.898734 436.78525 101.22475 
C 435.459235 102.550765 434.714182 104.349481 434.714182 106.22475 
C 434.714182 108.100019 435.459235 109.898734 436.78525 111.22475 
C 438.111266 112.550765 439.909981 113.295818 441.78525 113.295818 
z
" style="fill:#a52a2a;fill-opacity:0.6;"/>
    </g>
    <g id="text_18">
     <!-- SF=12 -->
     <g transform="translate(457.62525 109.37475)scale(0.144 -0.144)">
      <use xlink:href="#BitstreamVeraSans-Roman-53"/>
      <use x="63.4765625" xlink:href="#BitstreamVeraSans-Roman-46"/>
      <use x="120.99609375" xlink:href="#BitstreamVeraSans-Roman-3d"/>
      <use x="204.78515625" xlink:href="#BitstreamVeraSans-Roman-31"/>
      <use x="268.408203125" xlink:href="#BitstreamVeraSans-Roman-32"/>
     </g>
    </g>
    <g id="PathCollection_25">
     <path d="M 421.62525 133.802318 
C 423.500519 133.802318 425.299235 133.057265 426.62525 131.73125 
C 427.951265 130.405234 428.696318 128.606519 428.696318 126.73125 
C 428.696318 124.855981 427.951265 123.057265 426.62525 121.73125 
C 425.299235 120.405234 423.500519 119.660182 421.62525 119.660182 
C 419.749981 119.660182 417.951265 120.405234 416.62525 121.73125 
C 415.299235 123.057265 414.554182 124.855981 414.554182 126.73125 
C 414.554182 128.606519 415.299235 130.405234 416.62525 131.73125 
C 417.951265 133.057265 419.749981 133.802318 421.62525 133.802318 
z
" style="fill:#ffa500;fill-opacity:0.6;"/>
     <path d="M 431.70525 132.542318 
C 433.580519 132.542318 435.379234 131.797265 436.70525 130.47125 
C 438.031265 129.145234 438.776318 127.346519 438.776318 125.47125 
C 438.776318 123.595981 438.031265 121.797265 436.70525 120.47125 
C 435.379234 119.145234 433.580519 118.400182 431.70525 118.400182 
C 429.829981 118.400182 428.031265 119.145234 426.70525 120.47125 
C 425.379234 121.797265 424.634182 123.595981 424.634182 125.47125 
C 424.634182 127.346519 425.379234 129.145234 426.70525 130.47125 
C 428.031265 131.797265 429.829981 132.542318 431.70525 132.542318 
z
" style="fill:#ffa500;fill-opacity:0.6;"/>
     <path d="M 441.78525 134.432318 
C 443.660519 134.432318 445.459235 133.687265 446.78525 132.36125 
C 448.111266 131.035234 448.856318 129.236519 448.856318 127.36125 
C 448.856318 125.485981 448.111266 123.687265 446.78525 122.36125 
C 445.459235 121.035234 443.660519 120.290182 441.78525 120.290182 
C 439.909981 120.290182 438.111266 121.035234 436.78525 122.36125 
C 435.459235 123.687265 434.714182 125.485981 434.714182 127.36125 
C 434.714182 129.236519 435.459235 131.035234 436.78525 132.36125 
C 438.111266 133.687265 439.909981 134.432318 441.78525 134.432318 
z
" style="fill:#ffa500;fill-opacity:0.6;"/>
    </g>
    <g id="text_19">
     <!-- SF=10 -->
     <g transform="translate(457.62525 130.51125)scale(0.144 -0.144)">
      <use xlink:href="#BitstreamVeraSans-Roman-53"/>
      <use x="63.4765625" xlink:href="#BitstreamVeraSans-Roman-46"/>
      <use x="120.99609375" xlink:href="#BitstreamVeraSans-Roman-3d"/>
      <use x="204.78515625" xlink:href="#BitstreamVeraSans-Roman-31"/>
      <use x="268.408203125" xlink:href="#BitstreamVeraSans-Roman-30"/>
     </g>
    </g>
    <g id="PathCollection_26">
     <path d="M 421.62525 154.938818 
C 423.500519 154.938818 425.299235 154.193766 426.62525 152.86775 
C 427.951265 151.541734 428.696318 149.743019 428.696318 147.86775 
C 428.696318 145.992481 427.951265 144.193766 426.62525 142.86775 
C 425.299235 141.541734 423.500519 140.796682 421.62525 140.796682 
C 419.749981 140.796682 417.951265 141.541734 416.62525 142.86775 
C 415.299235 144.193766 414.554182 145.992481 414.554182 147.86775 
C 414.554182 149.743019 415.299235 151.541734 416.62525 152.86775 
C 417.951265 154.193766 419.749981 154.938818 421.62525 154.938818 
z
" style="fill:#ffff00;fill-opacity:0.6;"/>
     <path d="M 431.70525 153.678818 
C 433.580519 153.678818 435.379234 152.933765 436.70525 151.60775 
C 438.031265 150.281734 438.776318 148.483019 438.776318 146.60775 
C 438.776318 144.732481 438.031265 142.933765 436.70525 141.60775 
C 435.379234 140.281734 433.580519 139.536682 431.70525 139.536682 
C 429.829981 139.536682 428.031265 140.281734 426.70525 141.60775 
C 425.379234 142.933765 424.634182 144.732481 424.634182 146.60775 
C 424.634182 148.483019 425.379234 150.281734 426.70525 151.60775 
C 428.031265 152.933765 429.829981 153.678818 431.70525 153.678818 
z
" style="fill:#ffff00;fill-opacity:0.6;"/>
     <path d="M 441.78525 155.568818 
C 443.660519 155.568818 445.459235 154.823766 446.78525 153.49775 
C 448.111266 152.171734 448.856318 150.373019 448.856318 148.49775 
C 448.856318 146.622481 448.111266 144.823766 446.78525 143.49775 
C 445.459235 142.171734 443.660519 141.426682 441.78525 141.426682 
C 439.909981 141.426682 438.111266 142.171734 436.78525 143.49775 
C 435.459235 144.823766 434.714182 146.622481 434.714182 148.49775 
C 434.714182 150.373019 435.459235 152.171734 436.78525 153.49775 
C 438.111266 154.823766 439.909981 155.568818 441.78525 155.568818 
z
" style="fill:#ffff00;fill-opacity:0.6;"/>
    </g>
    <g id="text_20">
     <!-- SF=8 -->
     <defs>
      <path d="M 31.78125 34.625 
Q 24.75 34.625 20.71875 30.859375 
Q 16.703125 27.09375 16.703125 20.515625 
Q 16.703125 13.921875 20.71875 10.15625 
Q 24.75 6.390625 31.78125 6.390625 
Q 38.8125 6.390625 42.859375 10.171875 
Q 46.921875 13.96875 46.921875 20.515625 
Q 46.921875 27.09375 42.890625 30.859375 
Q 38.875 34.625 31.78125 34.625 
M 21.921875 38.8125 
Q 15.578125 40.375 12.03125 44.71875 
Q 8.5 49.078125 8.5 55.328125 
Q 8.5 64.0625 14.71875 69.140625 
Q 20.953125 74.21875 31.78125 74.21875 
Q 42.671875 74.21875 48.875 69.140625 
Q 55.078125 64.0625 55.078125 55.328125 
Q 55.078125 49.078125 51.53125 44.71875 
Q 48 40.375 41.703125 38.8125 
Q 48.828125 37.15625 52.796875 32.3125 
Q 56.78125 27.484375 56.78125 20.515625 
Q 56.78125 9.90625 50.3125 4.234375 
Q 43.84375 -1.421875 31.78125 -1.421875 
Q 19.734375 -1.421875 13.25 4.234375 
Q 6.78125 9.90625 6.78125 20.515625 
Q 6.78125 27.484375 10.78125 32.3125 
Q 14.796875 37.15625 21.921875 38.8125 
M 18.3125 54.390625 
Q 18.3125 48.734375 21.84375 45.5625 
Q 25.390625 42.390625 31.78125 42.390625 
Q 38.140625 42.390625 41.71875 45.5625 
Q 45.3125 48.734375 45.3125 54.390625 
Q 45.3125 60.0625 41.71875 63.234375 
Q 38.140625 66.40625 31.78125 66.40625 
Q 25.390625 66.40625 21.84375 63.234375 
Q 18.3125 60.0625 18.3125 54.390625 
" id="BitstreamVeraSans-Roman-38"/>
     </defs>
     <g transform="translate(457.62525 151.64775)scale(0.144 -0.144)">
      <use xlink:href="#BitstreamVeraSans-Roman-53"/>
      <use x="63.4765625" xlink:href="#BitstreamVeraSans-Roman-46"/>
      <use x="120.99609375" xlink:href="#BitstreamVeraSans-Roman-3d"/>
      <use x="204.78515625" xlink:href="#BitstreamVeraSans-Roman-38"/>
     </g>
    </g>
    <g id="PathCollection_27">
     <path d="M 421.62525 176.075318 
C 423.500519 176.075318 425.299235 175.330266 426.62525 174.00425 
C 427.951265 172.678235 428.696318 170.879519 428.696318 169.00425 
C 428.696318 167.128981 427.951265 165.330266 426.62525 164.00425 
C 425.299235 162.678235 423.500519 161.933182 421.62525 161.933182 
C 419.749981 161.933182 417.951265 162.678235 416.62525 164.00425 
C 415.299235 165.330266 414.554182 167.128981 414.554182 169.00425 
C 414.554182 170.879519 415.299235 172.678235 416.62525 174.00425 
C 417.951265 175.330266 419.749981 176.075318 421.62525 176.075318 
z
" style="fill:#ffa500;fill-opacity:0.6;"/>
     <path d="M 431.70525 174.815318 
C 433.580519 174.815318 435.379234 174.070265 436.70525 172.74425 
C 438.031265 171.418234 438.776318 169.619519 438.776318 167.74425 
C 438.776318 165.868981 438.031265 164.070265 436.70525 162.74425 
C 435.379234 161.418234 433.580519 160.673182 431.70525 160.673182 
C 429.829981 160.673182 428.031265 161.418234 426.70525 162.74425 
C 425.379234 164.070265 424.634182 165.868981 424.634182 167.74425 
C 424.634182 169.619519 425.379234 171.418234 426.70525 172.74425 
C 428.031265 174.070265 429.829981 174.815318 431.70525 174.815318 
z
" style="fill:#ffa500;fill-opacity:0.6;"/>
     <path d="M 441.78525 176.705318 
C 443.660519 176.705318 445.459235 175.960266 446.78525 174.63425 
C 448.111266 173.308234 448.856318 171.509519 448.856318 169.63425 
C 448.856318 167.758981 448.111266 165.960266 446.78525 164.63425 
C 445.459235 163.308234 443.660519 162.563182 441.78525 162.563182 
C 439.909981 162.563182 438.111266 163.308234 436.78525 164.63425 
C 435.459235 165.960266 434.714182 167.758981 434.714182 169.63425 
C 434.714182 171.509519 435.459235 173.308234 436.78525 174.63425 
C 438.111266 175.960266 439.909981 176.705318 441.78525 176.705318 
z
" style="fill:#ffa500;fill-opacity:0.6;"/>
    </g>
    <g id="text_21">
     <!-- SF=10 -->
     <g transform="translate(457.62525 172.78425)scale(0.144 -0.144)">
      <use xlink:href="#BitstreamVeraSans-Roman-53"/>
      <use x="63.4765625" xlink:href="#BitstreamVeraSans-Roman-46"/>
      <use x="120.99609375" xlink:href="#BitstreamVeraSans-Roman-3d"/>
      <use x="204.78515625" xlink:href="#BitstreamVeraSans-Roman-31"/>
      <use x="268.408203125" xlink:href="#BitstreamVeraSans-Roman-30"/>
     </g>
    </g>
    <g id="PathCollection_28">
     <path d="M 421.62525 197.211818 
C 423.500519 197.211818 425.299235 196.466765 426.62525 195.14075 
C 427.951265 193.814734 428.696318 192.016019 428.696318 190.14075 
C 428.696318 188.265481 427.951265 186.466765 426.62525 185.14075 
C 425.299235 183.814734 423.500519 183.069682 421.62525 183.069682 
C 419.749981 183.069682 417.951265 183.814734 416.62525 185.14075 
C 415.299235 186.466765 414.554182 188.265481 414.554182 190.14075 
C 414.554182 192.016019 415.299235 193.814734 416.62525 195.14075 
C 417.951265 196.466765 419.749981 197.211818 421.62525 197.211818 
z
" style="fill:#a52a2a;fill-opacity:0.6;"/>
     <path d="M 431.70525 195.951818 
C 433.580519 195.951818 435.379234 195.206765 436.70525 193.88075 
C 438.031265 192.554734 438.776318 190.756019 438.776318 188.88075 
C 438.776318 187.005481 438.031265 185.206765 436.70525 183.88075 
C 435.379234 182.554734 433.580519 181.809682 431.70525 181.809682 
C 429.829981 181.809682 428.031265 182.554734 426.70525 183.88075 
C 425.379234 185.206765 424.634182 187.005481 424.634182 188.88075 
C 424.634182 190.756019 425.379234 192.554734 426.70525 193.88075 
C 428.031265 195.206765 429.829981 195.951818 431.70525 195.951818 
z
" style="fill:#a52a2a;fill-opacity:0.6;"/>
     <path d="M 441.78525 197.841818 
C 443.660519 197.841818 445.459235 197.096765 446.78525 195.77075 
C 448.111266 194.444734 448.856318 192.646019 448.856318 190.77075 
C 448.856318 188.895481 448.111266 187.096765 446.78525 185.77075 
C 445.459235 184.444734 443.660519 183.699682 441.78525 183.699682 
C 439.909981 183.699682 438.111266 184.444734 436.78525 185.77075 
C 435.459235 187.096765 434.714182 188.895481 434.714182 190.77075 
C 434.714182 192.646019 435.459235 194.444734 436.78525 195.77075 
C 438.111266 197.096765 439.909981 197.841818 441.78525 197.841818 
z
" style="fill:#a52a2a;fill-opacity:0.6;"/>
    </g>
    <g id="text_22">
     <!-- SF=12 -->
     <g transform="translate(457.62525 193.92075)scale(0.144 -0.144)">
      <use xlink:href="#BitstreamVeraSans-Roman-53"/>
      <use x="63.4765625" xlink:href="#BitstreamVeraSans-Roman-46"/>
      <use x="120.99609375" xlink:href="#BitstreamVeraSans-Roman-3d"/>
      <use x="204.78515625" xlink:href="#BitstreamVeraSans-Roman-31"/>
      <use x="268.408203125" xlink:href="#BitstreamVeraSans-Roman-32"/>
     </g>
    </g>
    <g id="PathCollection_29">
     <path d="M 421.62525 218.348318 
C 423.500519 218.348318 425.299235 217.603265 426.62525 216.27725 
C 427.951265 214.951234 428.696318 213.152519 428.696318 211.27725 
C 428.696318 209.401981 427.951265 207.603265 426.62525 206.27725 
C 425.299235 204.951234 423.500519 204.206182 421.62525 204.206182 
C 419.749981 204.206182 417.951265 204.951234 416.62525 206.27725 
C 415.299235 207.603265 414.554182 209.401981 414.554182 211.27725 
C 414.554182 213.152519 415.299235 214.951234 416.62525 216.27725 
C 417.951265 217.603265 419.749981 218.348318 421.62525 218.348318 
z
" style="fill:#ffc0cb;fill-opacity:0.6;"/>
     <path d="M 431.70525 217.088318 
C 433.580519 217.088318 435.379234 216.343265 436.70525 215.01725 
C 438.031265 213.691234 438.776318 211.892519 438.776318 210.01725 
C 438.776318 208.141981 438.031265 206.343265 436.70525 205.01725 
C 435.379234 203.691234 433.580519 202.946182 431.70525 202.946182 
C 429.829981 202.946182 428.031265 203.691234 426.70525 205.01725 
C 425.379234 206.343265 424.634182 208.141981 424.634182 210.01725 
C 424.634182 211.892519 425.379234 213.691234 426.70525 215.01725 
C 428.031265 216.343265 429.829981 217.088318 431.70525 217.088318 
z
" style="fill:#ffc0cb;fill-opacity:0.6;"/>
     <path d="M 441.78525 218.978318 
C 443.660519 218.978318 445.459235 218.233265 446.78525 216.90725 
C 448.111266 215.581234 448.856318 213.782519 448.856318 211.90725 
C 448.856318 210.031981 448.111266 208.233265 446.78525 206.90725 
C 445.459235 205.581234 443.660519 204.836182 441.78525 204.836182 
C 439.909981 204.836182 438.111266 205.581234 436.78525 206.90725 
C 435.459235 208.233265 434.714182 210.031981 434.714182 211.90725 
C 434.714182 213.782519 435.459235 215.581234 436.78525 216.90725 
C 438.111266 218.233265 439.909981 218.978318 441.78525 218.978318 
z
" style="fill:#ffc0cb;fill-opacity:0.6;"/>
    </g>
    <g id="text_23">
     <!-- SF=9 -->
     <g transform="translate(457.62525 215.05725)scale(0.144 -0.144)">
      <use xlink:href="#BitstreamVeraSans-Roman-53"/>
      <use x="63.4765625" xlink:href="#BitstreamVeraSans-Roman-46"/>
      <use x="120.99609375" xlink:href="#BitstreamVeraSans-Roman-3d"/>
      <use x="204.78515625" xlink:href="#BitstreamVeraSans-Roman-39"/>
     </g>
    </g>
    <g id="PathCollection_30">
     <path d="M 421.62525 239.484818 
C 423.500519 239.484818 425.299235 238.739765 426.62525 237.41375 
C 427.951265 236.087734 428.696318 234.289019 428.696318 232.41375 
C 428.696318 230.538481 427.951265 228.739765 426.62525 227.41375 
C 425.299235 226.087734 423.500519 225.342682 421.62525 225.342682 
C 419.749981 225.342682 417.951265 226.087734 416.62525 227.41375 
C 415.299235 228.739765 414.554182 230.538481 414.554182 232.41375 
C 414.554182 234.289019 415.299235 236.087734 416.62525 237.41375 
C 417.951265 238.739765 419.749981 239.484818 421.62525 239.484818 
z
" style="fill:#a52a2a;fill-opacity:0.6;"/>
     <path d="M 431.70525 238.224818 
C 433.580519 238.224818 435.379234 237.479765 436.70525 236.15375 
C 438.031265 234.827734 438.776318 233.029019 438.776318 231.15375 
C 438.776318 229.278481 438.031265 227.479765 436.70525 226.15375 
C 435.379234 224.827734 433.580519 224.082682 431.70525 224.082682 
C 429.829981 224.082682 428.031265 224.827734 426.70525 226.15375 
C 425.379234 227.479765 424.634182 229.278481 424.634182 231.15375 
C 424.634182 233.029019 425.379234 234.827734 426.70525 236.15375 
C 428.031265 237.479765 429.829981 238.224818 431.70525 238.224818 
z
" style="fill:#a52a2a;fill-opacity:0.6;"/>
     <path d="M 441.78525 240.114818 
C 443.660519 240.114818 445.459235 239.369765 446.78525 238.04375 
C 448.111266 236.717734 448.856318 234.919019 448.856318 233.04375 
C 448.856318 231.168481 448.111266 229.369765 446.78525 228.04375 
C 445.459235 226.717734 443.660519 225.972682 441.78525 225.972682 
C 439.909981 225.972682 438.111266 226.717734 436.78525 228.04375 
C 435.459235 229.369765 434.714182 231.168481 434.714182 233.04375 
C 434.714182 234.919019 435.459235 236.717734 436.78525 238.04375 
C 438.111266 239.369765 439.909981 240.114818 441.78525 240.114818 
z
" style="fill:#a52a2a;fill-opacity:0.6;"/>
    </g>
    <g id="text_24">
     <!-- SF=12 -->
     <g transform="translate(457.62525 236.19375)scale(0.144 -0.144)">
      <use xlink:href="#BitstreamVeraSans-Roman-53"/>
      <use x="63.4765625" xlink:href="#BitstreamVeraSans-Roman-46"/>
      <use x="120.99609375" xlink:href="#BitstreamVeraSans-Roman-3d"/>
      <use x="204.78515625" xlink:href="#BitstreamVeraSans-Roman-31"/>
      <use x="268.408203125" xlink:href="#BitstreamVeraSans-Roman-32"/>
     </g>
    </g>
    <g id="PathCollection_31">
     <path d="M 421.62525 260.621318 
C 423.500519 260.621318 425.299235 259.876265 426.62525 258.55025 
C 427.951265 257.224234 428.696318 255.425519 428.696318 253.55025 
C 428.696318 251.674981 427.951265 249.876265 426.62525 248.55025 
C 425.299235 247.224234 423.500519 246.479182 421.62525 246.479182 
C 419.749981 246.479182 417.951265 247.224234 416.62525 248.55025 
C 415.299235 249.876265 414.554182 251.674981 414.554182 253.55025 
C 414.554182 255.425519 415.299235 257.224234 416.62525 258.55025 
C 417.951265 259.876265 419.749981 260.621318 421.62525 260.621318 
z
" style="fill:#ffc0cb;fill-opacity:0.6;"/>
     <path d="M 431.70525 259.361318 
C 433.580519 259.361318 435.379234 258.616265 436.70525 257.29025 
C 438.031265 255.964234 438.776318 254.165519 438.776318 252.29025 
C 438.776318 250.414981 438.031265 248.616265 436.70525 247.29025 
C 435.379234 245.964234 433.580519 245.219182 431.70525 245.219182 
C 429.829981 245.219182 428.031265 245.964234 426.70525 247.29025 
C 425.379234 248.616265 424.634182 250.414981 424.634182 252.29025 
C 424.634182 254.165519 425.379234 255.964234 426.70525 257.29025 
C 428.031265 258.616265 429.829981 259.361318 431.70525 259.361318 
z
" style="fill:#ffc0cb;fill-opacity:0.6;"/>
     <path d="M 441.78525 261.251318 
C 443.660519 261.251318 445.459235 260.506265 446.78525 259.18025 
C 448.111266 257.854234 448.856318 256.055519 448.856318 254.18025 
C 448.856318 252.304981 448.111266 250.506265 446.78525 249.18025 
C 445.459235 247.854234 443.660519 247.109182 441.78525 247.109182 
C 439.909981 247.109182 438.111266 247.854234 436.78525 249.18025 
C 435.459235 250.506265 434.714182 252.304981 434.714182 254.18025 
C 434.714182 256.055519 435.459235 257.854234 436.78525 259.18025 
C 438.111266 260.506265 439.909981 261.251318 441.78525 261.251318 
z
" style="fill:#ffc0cb;fill-opacity:0.6;"/>
    </g>
    <g id="text_25">
     <!-- SF=9 -->
     <g transform="translate(457.62525 257.33025)scale(0.144 -0.144)">
      <use xlink:href="#BitstreamVeraSans-Roman-53"/>
      <use x="63.4765625" xlink:href="#BitstreamVeraSans-Roman-46"/>
      <use x="120.99609375" xlink:href="#BitstreamVeraSans-Roman-3d"/>
      <use x="204.78515625" xlink:href="#BitstreamVeraSans-Roman-39"/>
     </g>
    </g>
    <g id="PathCollection_32">
     <path d="M 421.62525 281.757818 
C 423.500519 281.757818 425.299235 281.012765 426.62525 279.68675 
C 427.951265 278.360734 428.696318 276.562019 428.696318 274.68675 
C 428.696318 272.811481 427.951265 271.012765 426.62525 269.68675 
C 425.299235 268.360734 423.500519 267.615682 421.62525 267.615682 
C 419.749981 267.615682 417.951265 268.360734 416.62525 269.68675 
C 415.299235 271.012765 414.554182 272.811481 414.554182 274.68675 
C 414.554182 276.562019 415.299235 278.360734 416.62525 279.68675 
C 417.951265 281.012765 419.749981 281.757818 421.62525 281.757818 
z
" style="fill:#800080;fill-opacity:0.6;"/>
     <path d="M 431.70525 280.497818 
C 433.580519 280.497818 435.379234 279.752765 436.70525 278.42675 
C 438.031265 277.100734 438.776318 275.302019 438.776318 273.42675 
C 438.776318 271.551481 438.031265 269.752765 436.70525 268.42675 
C 435.379234 267.100734 433.580519 266.355682 431.70525 266.355682 
C 429.829981 266.355682 428.031265 267.100734 426.70525 268.42675 
C 425.379234 269.752765 424.634182 271.551481 424.634182 273.42675 
C 424.634182 275.302019 425.379234 277.100734 426.70525 278.42675 
C 428.031265 279.752765 429.829981 280.497818 431.70525 280.497818 
z
" style="fill:#800080;fill-opacity:0.6;"/>
     <path d="M 441.78525 282.387818 
C 443.660519 282.387818 445.459235 281.642765 446.78525 280.31675 
C 448.111266 278.990734 448.856318 277.192019 448.856318 275.31675 
C 448.856318 273.441481 448.111266 271.642765 446.78525 270.31675 
C 445.459235 268.990734 443.660519 268.245682 441.78525 268.245682 
C 439.909981 268.245682 438.111266 268.990734 436.78525 270.31675 
C 435.459235 271.642765 434.714182 273.441481 434.714182 275.31675 
C 434.714182 277.192019 435.459235 278.990734 436.78525 280.31675 
C 438.111266 281.642765 439.909981 282.387818 441.78525 282.387818 
z
" style="fill:#800080;fill-opacity:0.6;"/>
    </g>
    <g id="text_26">
     <!-- SF=11 -->
     <g transform="translate(457.62525 278.46675)scale(0.144 -0.144)">
      <use xlink:href="#BitstreamVeraSans-Roman-53"/>
      <use x="63.4765625" xlink:href="#BitstreamVeraSans-Roman-46"/>
      <use x="120.99609375" xlink:href="#BitstreamVeraSans-Roman-3d"/>
      <use x="204.78515625" xlink:href="#BitstreamVeraSans-Roman-31"/>
      <use x="268.408203125" xlink:href="#BitstreamVeraSans-Roman-31"/>
     </g>
    </g>
    <g id="PathCollection_33">
     <path d="M 421.62525 302.894318 
C 423.500519 302.894318 425.299235 302.149266 426.62525 300.82325 
C 427.951265 299.497235 428.696318 297.698519 428.696318 295.82325 
C 428.696318 293.947981 427.951265 292.149266 426.62525 290.82325 
C 425.299235 289.497235 423.500519 288.752182 421.62525 288.752182 
C 419.749981 288.752182 417.951265 289.497235 416.62525 290.82325 
C 415.299235 292.149266 414.554182 293.947981 414.554182 295.82325 
C 414.554182 297.698519 415.299235 299.497235 416.62525 300.82325 
C 417.951265 302.149266 419.749981 302.894318 421.62525 302.894318 
z
" style="fill:#a52a2a;fill-opacity:0.6;"/>
     <path d="M 431.70525 301.634318 
C 433.580519 301.634318 435.379234 300.889266 436.70525 299.56325 
C 438.031265 298.237235 438.776318 296.438519 438.776318 294.56325 
C 438.776318 292.687981 438.031265 290.889266 436.70525 289.56325 
C 435.379234 288.237235 433.580519 287.492182 431.70525 287.492182 
C 429.829981 287.492182 428.031265 288.237235 426.70525 289.56325 
C 425.379234 290.889266 424.634182 292.687981 424.634182 294.56325 
C 424.634182 296.438519 425.379234 298.237235 426.70525 299.56325 
C 428.031265 300.889266 429.829981 301.634318 431.70525 301.634318 
z
" style="fill:#a52a2a;fill-opacity:0.6;"/>
     <path d="M 441.78525 303.524318 
C 443.660519 303.524318 445.459235 302.779266 446.78525 301.45325 
C 448.111266 300.127235 448.856318 298.328519 448.856318 296.45325 
C 448.856318 294.577981 448.111266 292.779266 446.78525 291.45325 
C 445.459235 290.127235 443.660519 289.382182 441.78525 289.382182 
C 439.909981 289.382182 438.111266 290.127235 436.78525 291.45325 
C 435.459235 292.779266 434.714182 294.577981 434.714182 296.45325 
C 434.714182 298.328519 435.459235 300.127235 436.78525 301.45325 
C 438.111266 302.779266 439.909981 303.524318 441.78525 303.524318 
z
" style="fill:#a52a2a;fill-opacity:0.6;"/>
    </g>
    <g id="text_27">
     <!-- SF=12 -->
     <g transform="translate(457.62525 299.60325)scale(0.144 -0.144)">
      <use xlink:href="#BitstreamVeraSans-Roman-53"/>
      <use x="63.4765625" xlink:href="#BitstreamVeraSans-Roman-46"/>
      <use x="120.99609375" xlink:href="#BitstreamVeraSans-Roman-3d"/>
      <use x="204.78515625" xlink:href="#BitstreamVeraSans-Roman-31"/>
      <use x="268.408203125" xlink:href="#BitstreamVeraSans-Roman-32"/>
     </g>
    </g>
    <g id="PathCollection_34">
     <path d="M 421.62525 324.030818 
C 423.500519 324.030818 425.299235 323.285765 426.62525 321.95975 
C 427.951265 320.633735 428.696318 318.835019 428.696318 316.95975 
C 428.696318 315.084481 427.951265 313.285765 426.62525 311.95975 
C 425.299235 310.633735 423.500519 309.888682 421.62525 309.888682 
C 419.749981 309.888682 417.951265 310.633735 416.62525 311.95975 
C 415.299235 313.285765 414.554182 315.084481 414.554182 316.95975 
C 414.554182 318.835019 415.299235 320.633735 416.62525 321.95975 
C 417.951265 323.285765 419.749981 324.030818 421.62525 324.030818 
z
" style="fill:#ffc0cb;fill-opacity:0.6;"/>
     <path d="M 431.70525 322.770818 
C 433.580519 322.770818 435.379234 322.025765 436.70525 320.69975 
C 438.031265 319.373735 438.776318 317.575019 438.776318 315.69975 
C 438.776318 313.824481 438.031265 312.025765 436.70525 310.69975 
C 435.379234 309.373735 433.580519 308.628682 431.70525 308.628682 
C 429.829981 308.628682 428.031265 309.373735 426.70525 310.69975 
C 425.379234 312.025765 424.634182 313.824481 424.634182 315.69975 
C 424.634182 317.575019 425.379234 319.373735 426.70525 320.69975 
C 428.031265 322.025765 429.829981 322.770818 431.70525 322.770818 
z
" style="fill:#ffc0cb;fill-opacity:0.6;"/>
     <path d="M 441.78525 324.660818 
C 443.660519 324.660818 445.459235 323.915765 446.78525 322.58975 
C 448.111266 321.263734 448.856318 319.465019 448.856318 317.58975 
C 448.856318 315.714481 448.111266 313.915765 446.78525 312.58975 
C 445.459235 311.263734 443.660519 310.518682 441.78525 310.518682 
C 439.909981 310.518682 438.111266 311.263734 436.78525 312.58975 
C 435.459235 313.915765 434.714182 315.714481 434.714182 317.58975 
C 434.714182 319.465019 435.459235 321.263734 436.78525 322.58975 
C 438.111266 323.915765 439.909981 324.660818 441.78525 324.660818 
z
" style="fill:#ffc0cb;fill-opacity:0.6;"/>
    </g>
    <g id="text_28">
     <!-- SF=9 -->
     <g transform="translate(457.62525 320.73975)scale(0.144 -0.144)">
      <use xlink:href="#BitstreamVeraSans-Roman-53"/>
      <use x="63.4765625" xlink:href="#BitstreamVeraSans-Roman-46"/>
      <use x="120.99609375" xlink:href="#BitstreamVeraSans-Roman-3d"/>
      <use x="204.78515625" xlink:href="#BitstreamVeraSans-Roman-39"/>
     </g>
    </g>
    <g id="PathCollection_35">
     <path d="M 421.62525 345.167318 
C 423.500519 345.167318 425.299235 344.422266 426.62525 343.09625 
C 427.951265 341.770235 428.696318 339.971519 428.696318 338.09625 
C 428.696318 336.220981 427.951265 334.422266 426.62525 333.09625 
C 425.299235 331.770235 423.500519 331.025182 421.62525 331.025182 
C 419.749981 331.025182 417.951265 331.770235 416.62525 333.09625 
C 415.299235 334.422266 414.554182 336.220981 414.554182 338.09625 
C 414.554182 339.971519 415.299235 341.770235 416.62525 343.09625 
C 417.951265 344.422266 419.749981 345.167318 421.62525 345.167318 
z
" style="fill:#a52a2a;fill-opacity:0.6;"/>
     <path d="M 431.70525 343.907318 
C 433.580519 343.907318 435.379234 343.162266 436.70525 341.83625 
C 438.031265 340.510235 438.776318 338.711519 438.776318 336.83625 
C 438.776318 334.960981 438.031265 333.162266 436.70525 331.83625 
C 435.379234 330.510235 433.580519 329.765182 431.70525 329.765182 
C 429.829981 329.765182 428.031265 330.510235 426.70525 331.83625 
C 425.379234 333.162266 424.634182 334.960981 424.634182 336.83625 
C 424.634182 338.711519 425.379234 340.510235 426.70525 341.83625 
C 428.031265 343.162266 429.829981 343.907318 431.70525 343.907318 
z
" style="fill:#a52a2a;fill-opacity:0.6;"/>
     <path d="M 441.78525 345.797318 
C 443.660519 345.797318 445.459235 345.052266 446.78525 343.72625 
C 448.111266 342.400235 448.856318 340.601519 448.856318 338.72625 
C 448.856318 336.850981 448.111266 335.052266 446.78525 333.72625 
C 445.459235 332.400235 443.660519 331.655182 441.78525 331.655182 
C 439.909981 331.655182 438.111266 332.400235 436.78525 333.72625 
C 435.459235 335.052266 434.714182 336.850981 434.714182 338.72625 
C 434.714182 340.601519 435.459235 342.400235 436.78525 343.72625 
C 438.111266 345.052266 439.909981 345.797318 441.78525 345.797318 
z
" style="fill:#a52a2a;fill-opacity:0.6;"/>
    </g>
    <g id="text_29">
     <!-- SF=12 -->
     <g transform="translate(457.62525 341.87625)scale(0.144 -0.144)">
      <use xlink:href="#BitstreamVeraSans-Roman-53"/>
      <use x="63.4765625" xlink:href="#BitstreamVeraSans-Roman-46"/>
      <use x="120.99609375" xlink:href="#BitstreamVeraSans-Roman-3d"/>
      <use x="204.78515625" xlink:href="#BitstreamVeraSans-Roman-31"/>
      <use x="268.408203125" xlink:href="#BitstreamVeraSans-Roman-32"/>
     </g>
    </g>
    <g id="PathCollection_36">
     <path d="M 421.62525 366.303818 
C 423.500519 366.303818 425.299235 365.558765 426.62525 364.23275 
C 427.951265 362.906735 428.696318 361.108019 428.696318 359.23275 
C 428.696318 357.357481 427.951265 355.558765 426.62525 354.23275 
C 425.299235 352.906735 423.500519 352.161682 421.62525 352.161682 
C 419.749981 352.161682 417.951265 352.906735 416.62525 354.23275 
C 415.299235 355.558765 414.554182 357.357481 414.554182 359.23275 
C 414.554182 361.108019 415.299235 362.906735 416.62525 364.23275 
C 417.951265 365.558765 419.749981 366.303818 421.62525 366.303818 
z
" style="fill:#0000ff;fill-opacity:0.6;"/>
     <path d="M 431.70525 365.043818 
C 433.580519 365.043818 435.379234 364.298766 436.70525 362.97275 
C 438.031265 361.646735 438.776318 359.848019 438.776318 357.97275 
C 438.776318 356.097481 438.031265 354.298766 436.70525 352.97275 
C 435.379234 351.646735 433.580519 350.901682 431.70525 350.901682 
C 429.829981 350.901682 428.031265 351.646735 426.70525 352.97275 
C 425.379234 354.298766 424.634182 356.097481 424.634182 357.97275 
C 424.634182 359.848019 425.379234 361.646735 426.70525 362.97275 
C 428.031265 364.298766 429.829981 365.043818 431.70525 365.043818 
z
" style="fill:#0000ff;fill-opacity:0.6;"/>
     <path d="M 441.78525 366.933818 
C 443.660519 366.933818 445.459235 366.188765 446.78525 364.86275 
C 448.111266 363.536735 448.856318 361.738019 448.856318 359.86275 
C 448.856318 357.987481 448.111266 356.188765 446.78525 354.86275 
C 445.459235 353.536735 443.660519 352.791682 441.78525 352.791682 
C 439.909981 352.791682 438.111266 353.536735 436.78525 354.86275 
C 435.459235 356.188765 434.714182 357.987481 434.714182 359.86275 
C 434.714182 361.738019 435.459235 363.536735 436.78525 364.86275 
C 438.111266 366.188765 439.909981 366.933818 441.78525 366.933818 
z
" style="fill:#0000ff;fill-opacity:0.6;"/>
    </g>
    <g id="text_30">
     <!-- SF=7 -->
     <g transform="translate(457.62525 363.01275)scale(0.144 -0.144)">
      <use xlink:href="#BitstreamVeraSans-Roman-53"/>
      <use x="63.4765625" xlink:href="#BitstreamVeraSans-Roman-46"/>
      <use x="120.99609375" xlink:href="#BitstreamVeraSans-Roman-3d"/>
      <use x="204.78515625" xlink:href="#BitstreamVeraSans-Roman-37"/>
     </g>
    </g>
    <g id="PathCollection_37">
     <path d="M 421.62525 387.440318 
C 423.500519 387.440318 425.299235 386.695266 426.62525 385.36925 
C 427.951265 384.043235 428.696318 382.244519 428.696318 380.36925 
C 428.696318 378.493981 427.951265 376.695266 426.62525 375.36925 
C 425.299235 374.043235 423.500519 373.298182 421.62525 373.298182 
C 419.749981 373.298182 417.951265 374.043235 416.62525 375.36925 
C 415.299235 376.695266 414.554182 378.493981 414.554182 380.36925 
C 414.554182 382.244519 415.299235 384.043235 416.62525 385.36925 
C 417.951265 386.695266 419.749981 387.440318 421.62525 387.440318 
z
" style="fill:#800080;fill-opacity:0.6;"/>
     <path d="M 431.70525 386.180318 
C 433.580519 386.180318 435.379234 385.435266 436.70525 384.10925 
C 438.031265 382.783235 438.776318 380.984519 438.776318 379.10925 
C 438.776318 377.233981 438.031265 375.435266 436.70525 374.10925 
C 435.379234 372.783235 433.580519 372.038182 431.70525 372.038182 
C 429.829981 372.038182 428.031265 372.783235 426.70525 374.10925 
C 425.379234 375.435266 424.634182 377.233981 424.634182 379.10925 
C 424.634182 380.984519 425.379234 382.783235 426.70525 384.10925 
C 428.031265 385.435266 429.829981 386.180318 431.70525 386.180318 
z
" style="fill:#800080;fill-opacity:0.6;"/>
     <path d="M 441.78525 388.070318 
C 443.660519 388.070318 445.459235 387.325266 446.78525 385.99925 
C 448.111266 384.673235 448.856318 382.874519 448.856318 380.99925 
C 448.856318 379.123981 448.111266 377.325266 446.78525 375.99925 
C 445.459235 374.673235 443.660519 373.928182 441.78525 373.928182 
C 439.909981 373.928182 438.111266 374.673235 436.78525 375.99925 
C 435.459235 377.325266 434.714182 379.123981 434.714182 380.99925 
C 434.714182 382.874519 435.459235 384.673235 436.78525 385.99925 
C 438.111266 387.325266 439.909981 388.070318 441.78525 388.070318 
z
" style="fill:#800080;fill-opacity:0.6;"/>
    </g>
    <g id="text_31">
     <!-- SF=11 -->
     <g transform="translate(457.62525 384.14925)scale(0.144 -0.144)">
      <use xlink:href="#BitstreamVeraSans-Roman-53"/>
      <use x="63.4765625" xlink:href="#BitstreamVeraSans-Roman-46"/>
      <use x="120.99609375" xlink:href="#BitstreamVeraSans-Roman-3d"/>
      <use x="204.78515625" xlink:href="#BitstreamVeraSans-Roman-31"/>
      <use x="268.408203125" xlink:href="#BitstreamVeraSans-Roman-31"/>
     </g>
    </g>
    <g id="PathCollection_38">
     <path d="M 421.62525 408.576818 
C 423.500519 408.576818 425.299235 407.831766 426.62525 406.50575 
C 427.951265 405.179735 428.696318 403.381019 428.696318 401.50575 
C 428.696318 399.630481 427.951265 397.831766 426.62525 396.50575 
C 425.299235 395.179735 423.500519 394.434682 421.62525 394.434682 
C 419.749981 394.434682 417.951265 395.179735 416.62525 396.50575 
C 415.299235 397.831766 414.554182 399.630481 414.554182 401.50575 
C 414.554182 403.381019 415.299235 405.179735 416.62525 406.50575 
C 417.951265 407.831766 419.749981 408.576818 421.62525 408.576818 
z
" style="fill:#ffff00;fill-opacity:0.6;"/>
     <path d="M 431.70525 407.316818 
C 433.580519 407.316818 435.379234 406.571766 436.70525 405.24575 
C 438.031265 403.919735 438.776318 402.121019 438.776318 400.24575 
C 438.776318 398.370481 438.031265 396.571766 436.70525 395.24575 
C 435.379234 393.919735 433.580519 393.174682 431.70525 393.174682 
C 429.829981 393.174682 428.031265 393.919735 426.70525 395.24575 
C 425.379234 396.571766 424.634182 398.370481 424.634182 400.24575 
C 424.634182 402.121019 425.379234 403.919735 426.70525 405.24575 
C 428.031265 406.571766 429.829981 407.316818 431.70525 407.316818 
z
" style="fill:#ffff00;fill-opacity:0.6;"/>
     <path d="M 441.78525 409.206818 
C 443.660519 409.206818 445.459235 408.461766 446.78525 407.13575 
C 448.111266 405.809735 448.856318 404.011019 448.856318 402.13575 
C 448.856318 400.260481 448.111266 398.461766 446.78525 397.13575 
C 445.459235 395.809735 443.660519 395.064682 441.78525 395.064682 
C 439.909981 395.064682 438.111266 395.809735 436.78525 397.13575 
C 435.459235 398.461766 434.714182 400.260481 434.714182 402.13575 
C 434.714182 404.011019 435.459235 405.809735 436.78525 407.13575 
C 438.111266 408.461766 439.909981 409.206818 441.78525 409.206818 
z
" style="fill:#ffff00;fill-opacity:0.6;"/>
    </g>
    <g id="text_32">
     <!-- SF=8 -->
     <g transform="translate(457.62525 405.28575)scale(0.144 -0.144)">
      <use xlink:href="#BitstreamVeraSans-Roman-53"/>
      <use x="63.4765625" xlink:href="#BitstreamVeraSans-Roman-46"/>
      <use x="120.99609375" xlink:href="#BitstreamVeraSans-Roman-3d"/>
      <use x="204.78515625" xlink:href="#BitstreamVeraSans-Roman-38"/>
     </g>
    </g>
    <g id="PathCollection_39">
     <path d="M 421.62525 429.713318 
C 423.500519 429.713318 425.299235 428.968266 426.62525 427.64225 
C 427.951265 426.316235 428.696318 424.517519 428.696318 422.64225 
C 428.696318 420.766981 427.951265 418.968266 426.62525 417.64225 
C 425.299235 416.316235 423.500519 415.571182 421.62525 415.571182 
C 419.749981 415.571182 417.951265 416.316235 416.62525 417.64225 
C 415.299235 418.968266 414.554182 420.766981 414.554182 422.64225 
C 414.554182 424.517519 415.299235 426.316235 416.62525 427.64225 
C 417.951265 428.968266 419.749981 429.713318 421.62525 429.713318 
z
" style="fill:#ffa500;fill-opacity:0.6;"/>
     <path d="M 431.70525 428.453318 
C 433.580519 428.453318 435.379234 427.708266 436.70525 426.38225 
C 438.031265 425.056235 438.776318 423.257519 438.776318 421.38225 
C 438.776318 419.506981 438.031265 417.708266 436.70525 416.38225 
C 435.379234 415.056235 433.580519 414.311182 431.70525 414.311182 
C 429.829981 414.311182 428.031265 415.056235 426.70525 416.38225 
C 425.379234 417.708266 424.634182 419.506981 424.634182 421.38225 
C 424.634182 423.257519 425.379234 425.056235 426.70525 426.38225 
C 428.031265 427.708266 429.829981 428.453318 431.70525 428.453318 
z
" style="fill:#ffa500;fill-opacity:0.6;"/>
     <path d="M 441.78525 430.343318 
C 443.660519 430.343318 445.459235 429.598266 446.78525 428.27225 
C 448.111266 426.946235 448.856318 425.147519 448.856318 423.27225 
C 448.856318 421.396981 448.111266 419.598266 446.78525 418.27225 
C 445.459235 416.946235 443.660519 416.201182 441.78525 416.201182 
C 439.909981 416.201182 438.111266 416.946235 436.78525 418.27225 
C 435.459235 419.598266 434.714182 421.396981 434.714182 423.27225 
C 434.714182 425.147519 435.459235 426.946235 436.78525 428.27225 
C 438.111266 429.598266 439.909981 430.343318 441.78525 430.343318 
z
" style="fill:#ffa500;fill-opacity:0.6;"/>
    </g>
    <g id="text_33">
     <!-- SF=10 -->
     <g transform="translate(457.62525 426.42225)scale(0.144 -0.144)">
      <use xlink:href="#BitstreamVeraSans-Roman-53"/>
      <use x="63.4765625" xlink:href="#BitstreamVeraSans-Roman-46"/>
      <use x="120.99609375" xlink:href="#BitstreamVeraSans-Roman-3d"/>
      <use x="204.78515625" xlink:href="#BitstreamVeraSans-Roman-31"/>
      <use x="268.408203125" xlink:href="#BitstreamVeraSans-Roman-30"/>
     </g>
    </g>
    <g id="PathCollection_40">
     <path d="M 421.62525 450.849818 
C 423.500519 450.849818 425.299235 450.104766 426.62525 448.77875 
C 427.951265 447.452735 428.696318 445.654019 428.696318 443.77875 
C 428.696318 441.903481 427.951265 440.104766 426.62525 438.77875 
C 425.299235 437.452735 423.500519 436.707682 421.62525 436.707682 
C 419.749981 436.707682 417.951265 437.452735 416.62525 438.77875 
C 415.299235 440.104766 414.554182 441.903481 414.554182 443.77875 
C 414.554182 445.654019 415.299235 447.452735 416.62525 448.77875 
C 417.951265 450.104766 419.749981 450.849818 421.62525 450.849818 
z
" style="fill:#a52a2a;fill-opacity:0.6;"/>
     <path d="M 431.70525 449.589818 
C 433.580519 449.589818 435.379234 448.844766 436.70525 447.51875 
C 438.031265 446.192735 438.776318 444.394019 438.776318 442.51875 
C 438.776318 440.643481 438.031265 438.844766 436.70525 437.51875 
C 435.379234 436.192735 433.580519 435.447682 431.70525 435.447682 
C 429.829981 435.447682 428.031265 436.192735 426.70525 437.51875 
C 425.379234 438.844766 424.634182 440.643481 424.634182 442.51875 
C 424.634182 444.394019 425.379234 446.192735 426.70525 447.51875 
C 428.031265 448.844766 429.829981 449.589818 431.70525 449.589818 
z
" style="fill:#a52a2a;fill-opacity:0.6;"/>
     <path d="M 441.78525 451.479818 
C 443.660519 451.479818 445.459235 450.734766 446.78525 449.40875 
C 448.111266 448.082735 448.856318 446.284019 448.856318 444.40875 
C 448.856318 442.533481 448.111266 440.734766 446.78525 439.40875 
C 445.459235 438.082735 443.660519 437.337682 441.78525 437.337682 
C 439.909981 437.337682 438.111266 438.082735 436.78525 439.40875 
C 435.459235 440.734766 434.714182 442.533481 434.714182 444.40875 
C 434.714182 446.284019 435.459235 448.082735 436.78525 449.40875 
C 438.111266 450.734766 439.909981 451.479818 441.78525 451.479818 
z
" style="fill:#a52a2a;fill-opacity:0.6;"/>
    </g>
    <g id="text_34">
     <!-- SF=12 -->
     <g transform="translate(457.62525 447.55875)scale(0.144 -0.144)">
      <use xlink:href="#BitstreamVeraSans-Roman-53"/>
      <use x="63.4765625" xlink:href="#BitstreamVeraSans-Roman-46"/>
      <use x="120.99609375" xlink:href="#BitstreamVeraSans-Roman-3d"/>
      <use x="204.78515625" xlink:href="#BitstreamVeraSans-Roman-31"/>
      <use x="268.408203125" xlink:href="#BitstreamVeraSans-Roman-32"/>
     </g>
    </g>
    <g id="PathCollection_41">
     <path d="M 421.62525 471.986318 
C 423.500519 471.986318 425.299235 471.241266 426.62525 469.91525 
C 427.951265 468.589235 428.696318 466.790519 428.696318 464.91525 
C 428.696318 463.039981 427.951265 461.241266 426.62525 459.91525 
C 425.299235 458.589235 423.500519 457.844182 421.62525 457.844182 
C 419.749981 457.844182 417.951265 458.589235 416.62525 459.91525 
C 415.299235 461.241266 414.554182 463.039981 414.554182 464.91525 
C 414.554182 466.790519 415.299235 468.589235 416.62525 469.91525 
C 417.951265 471.241266 419.749981 471.986318 421.62525 471.986318 
z
" style="fill:#ffff00;fill-opacity:0.6;"/>
     <path d="M 431.70525 470.726318 
C 433.580519 470.726318 435.379234 469.981266 436.70525 468.65525 
C 438.031265 467.329235 438.776318 465.530519 438.776318 463.65525 
C 438.776318 461.779981 438.031265 459.981266 436.70525 458.65525 
C 435.379234 457.329235 433.580519 456.584182 431.70525 456.584182 
C 429.829981 456.584182 428.031265 457.329235 426.70525 458.65525 
C 425.379234 459.981266 424.634182 461.779981 424.634182 463.65525 
C 424.634182 465.530519 425.379234 467.329235 426.70525 468.65525 
C 428.031265 469.981266 429.829981 470.726318 431.70525 470.726318 
z
" style="fill:#ffff00;fill-opacity:0.6;"/>
     <path d="M 441.78525 472.616318 
C 443.660519 472.616318 445.459235 471.871266 446.78525 470.54525 
C 448.111266 469.219235 448.856318 467.420519 448.856318 465.54525 
C 448.856318 463.669981 448.111266 461.871266 446.78525 460.54525 
C 445.459235 459.219235 443.660519 458.474182 441.78525 458.474182 
C 439.909981 458.474182 438.111266 459.219235 436.78525 460.54525 
C 435.459235 461.871266 434.714182 463.669981 434.714182 465.54525 
C 434.714182 467.420519 435.459235 469.219235 436.78525 470.54525 
C 438.111266 471.871266 439.909981 472.616318 441.78525 472.616318 
z
" style="fill:#ffff00;fill-opacity:0.6;"/>
    </g>
    <g id="text_35">
     <!-- SF=8 -->
     <g transform="translate(457.62525 468.69525)scale(0.144 -0.144)">
      <use xlink:href="#BitstreamVeraSans-Roman-53"/>
      <use x="63.4765625" xlink:href="#BitstreamVeraSans-Roman-46"/>
      <use x="120.99609375" xlink:href="#BitstreamVeraSans-Roman-3d"/>
      <use x="204.78515625" xlink:href="#BitstreamVeraSans-Roman-38"/>
     </g>
    </g>
   </g>
  </g>
 </g>
 <defs>
  <clipPath id="pee77ec3d76">
   <rect height="345.6" width="446.4" x="72.0" y="43.2"/>
  </clipPath>
 </defs>
</svg>
