<?xml version="1.0" encoding="utf-8" standalone="no"?>
<!DOCTYPE svg PUBLIC "-//W3C//DTD SVG 1.1//EN"
  "http://www.w3.org/Graphics/SVG/1.1/DTD/svg11.dtd">
<!-- Created with matplotlib (http://matplotlib.org/) -->
<svg height="432pt" version="1.1" viewBox="0 0 576 432" width="576pt" xmlns="http://www.w3.org/2000/svg" xmlns:xlink="http://www.w3.org/1999/xlink">
 <defs>
  <style type="text/css">
*{stroke-linecap:butt;stroke-linejoin:round;stroke-miterlimit:100000;}
  </style>
 </defs>
 <g id="figure_1">
  <g id="patch_1">
   <path d="M 0 432 
L 576 432 
L 576 0 
L 0 0 
z
" style="fill:#ffffff;"/>
  </g>
  <g id="axes_1">
   <g id="patch_2">
    <path d="M 72 388.8 
L 518.4 388.8 
L 518.4 43.2 
L 72 43.2 
z
" style="fill:#ffffff;"/>
   </g>
   <g id="PathCollection_1">
    <path clip-path="url(#p4ada0b1ec4)" d="M 284.348169 233.160418 
L 261.720752 221.846709 
L 261.720752 244.474126 
z
" style="fill:#ff0000;fill-opacity:0.7;"/>
   </g>
   <g id="PathCollection_2">
    <path clip-path="url(#p4ada0b1ec4)" d="M 172.729741 205.034204 
C 174.60501 205.034204 176.403726 204.289152 177.729741 202.963136 
C 179.055757 201.637121 179.800809 199.838405 179.800809 197.963136 
C 179.800809 196.087867 179.055757 194.289152 177.729741 192.963136 
C 176.403726 191.637121 174.60501 190.892068 172.729741 190.892068 
C 170.854472 190.892068 169.055757 191.637121 167.729741 192.963136 
C 166.403726 194.289152 165.658673 196.087867 165.658673 197.963136 
C 165.658673 199.838405 166.403726 201.637121 167.729741 202.963136 
C 169.055757 204.289152 170.854472 205.034204 172.729741 205.034204 
z
" style="fill:#800080;fill-opacity:0.6;"/>
   </g>
   <g id="PathCollection_3">
    <path clip-path="url(#p4ada0b1ec4)" d="M 321.173024 207.402948 
C 323.048293 207.402948 324.847009 206.657895 326.173024 205.33188 
C 327.49904 204.005864 328.244092 202.207149 328.244092 200.33188 
C 328.244092 198.456611 327.49904 196.657895 326.173024 195.33188 
C 324.847009 194.005864 323.048293 193.260812 321.173024 193.260812 
C 319.297755 193.260812 317.49904 194.005864 316.173024 195.33188 
C 314.847009 196.657895 314.101956 198.456611 314.101956 200.33188 
C 314.101956 202.207149 314.847009 204.005864 316.173024 205.33188 
C 317.49904 206.657895 319.297755 207.402948 321.173024 207.402948 
z
" style="fill:#ffc0cb;fill-opacity:0.6;"/>
   </g>
   <g id="PathCollection_4">
    <path clip-path="url(#p4ada0b1ec4)" d="M 232.517653 179.546716 
C 234.392922 179.546716 236.191638 178.801664 237.517653 177.475648 
C 238.843669 176.149633 239.588721 174.350917 239.588721 172.475648 
C 239.588721 170.600379 238.843669 168.801664 237.517653 167.475648 
C 236.191638 166.149633 234.392922 165.40458 232.517653 165.40458 
C 230.642384 165.40458 228.843669 166.149633 227.517653 167.475648 
C 226.191638 168.801664 225.446585 170.600379 225.446585 172.475648 
C 225.446585 174.350917 226.191638 176.149633 227.517653 177.475648 
C 228.843669 178.801664 230.642384 179.546716 232.517653 179.546716 
z
" style="fill:#ffa500;fill-opacity:0.6;"/>
   </g>
   <g id="PathCollection_5">
    <path clip-path="url(#p4ada0b1ec4)" d="M 267.807111 217.434114 
C 269.68238 217.434114 271.481096 216.689062 272.807111 215.363046 
C 274.133127 214.037031 274.878179 212.238315 274.878179 210.363046 
C 274.878179 208.487777 274.133127 206.689062 272.807111 205.363046 
C 271.481096 204.037031 269.68238 203.291978 267.807111 203.291978 
C 265.931842 203.291978 264.133127 204.037031 262.807111 205.363046 
C 261.481096 206.689062 260.736044 208.487777 260.736044 210.363046 
C 260.736044 212.238315 261.481096 214.037031 262.807111 215.363046 
C 264.133127 216.689062 265.931842 217.434114 267.807111 217.434114 
z
" style="fill:#a52a2a;fill-opacity:0.6;"/>
   </g>
   <g id="PathCollection_6"/>
   <g id="PathCollection_7">
    <path clip-path="url(#p4ada0b1ec4)" d="M 310.629459 312.583892 
C 312.504728 312.583892 314.303444 311.838839 315.629459 310.512824 
C 316.955475 309.186808 317.700527 307.388093 317.700527 305.512824 
C 317.700527 303.637555 316.955475 301.838839 315.629459 300.512824 
C 314.303444 299.186808 312.504728 298.441756 310.629459 298.441756 
C 308.75419 298.441756 306.955475 299.186808 305.629459 300.512824 
C 304.303444 301.838839 303.558391 303.637555 303.558391 305.512824 
C 303.558391 307.388093 304.303444 309.186808 305.629459 310.512824 
C 306.955475 311.838839 308.75419 312.583892 310.629459 312.583892 
z
" style="fill:#ffff00;fill-opacity:0.6;"/>
   </g>
   <g id="PathCollection_8"/>
   <g id="PathCollection_9">
    <path clip-path="url(#p4ada0b1ec4)" d="M 369.33629 331.672525 
C 371.211559 331.672525 373.010274 330.927473 374.33629 329.601458 
C 375.662305 328.275442 376.407358 326.476727 376.407358 324.601458 
C 376.407358 322.726188 375.662305 320.927473 374.33629 319.601458 
C 373.010274 318.275442 371.211559 317.53039 369.33629 317.53039 
C 367.461021 317.53039 365.662305 318.275442 364.33629 319.601458 
C 363.010274 320.927473 362.265222 322.726188 362.265222 324.601458 
C 362.265222 326.476727 363.010274 328.275442 364.33629 329.601458 
C 365.662305 330.927473 367.461021 331.672525 369.33629 331.672525 
z
" style="fill:#ffa500;fill-opacity:0.6;"/>
   </g>
   <g id="PathCollection_10">
    <path clip-path="url(#p4ada0b1ec4)" d="M 319.208173 129.931813 
C 321.083442 129.931813 322.882157 129.186761 324.208173 127.860746 
C 325.534188 126.53473 326.27924 124.736015 326.27924 122.860746 
C 326.27924 120.985476 325.534188 119.186761 324.208173 117.860746 
C 322.882157 116.53473 321.083442 115.789678 319.208173 115.789678 
C 317.332903 115.789678 315.534188 116.53473 314.208173 117.860746 
C 312.882157 119.186761 312.137105 120.985476 312.137105 122.860746 
C 312.137105 124.736015 312.882157 126.53473 314.208173 127.860746 
C 315.534188 129.186761 317.332903 129.931813 319.208173 129.931813 
z
" style="fill:#0000ff;fill-opacity:0.6;"/>
   </g>
   <g id="PathCollection_11">
    <path clip-path="url(#p4ada0b1ec4)" d="M 287.084632 291.89421 
C 288.959901 291.89421 290.758617 291.149158 292.084632 289.823142 
C 293.410648 288.497127 294.1557 286.698411 294.1557 284.823142 
C 294.1557 282.947873 293.410648 281.149158 292.084632 279.823142 
C 290.758617 278.497127 288.959901 277.752074 287.084632 277.752074 
C 285.209363 277.752074 283.410648 278.497127 282.084632 279.823142 
C 280.758617 281.149158 280.013564 282.947873 280.013564 284.823142 
C 280.013564 286.698411 280.758617 288.497127 282.084632 289.823142 
C 283.410648 291.149158 285.209363 291.89421 287.084632 291.89421 
z
" style="fill:#ffff00;fill-opacity:0.6;"/>
   </g>
   <g id="PathCollection_12">
    <path clip-path="url(#p4ada0b1ec4)" d="M 107.49186 273.441342 
C 109.367129 273.441342 111.165845 272.696289 112.49186 271.370274 
C 113.817876 270.044258 114.562928 268.245543 114.562928 266.370274 
C 114.562928 264.495005 113.817876 262.696289 112.49186 261.370274 
C 111.165845 260.044258 109.367129 259.299206 107.49186 259.299206 
C 105.616591 259.299206 103.817876 260.044258 102.49186 261.370274 
C 101.165845 262.696289 100.420792 264.495005 100.420792 266.370274 
C 100.420792 268.245543 101.165845 270.044258 102.49186 271.370274 
C 103.817876 272.696289 105.616591 273.441342 107.49186 273.441342 
z
" style="fill:#ffa500;fill-opacity:0.6;"/>
   </g>
   <g id="PathCollection_13"/>
   <g id="PathCollection_14"/>
   <g id="PathCollection_15"/>
   <g id="PathCollection_16">
    <path clip-path="url(#p4ada0b1ec4)" d="M 191.000796 239.236334 
C 192.876065 239.236334 194.674781 238.491281 196.000796 237.165266 
C 197.326812 235.83925 198.071864 234.040535 198.071864 232.165266 
C 198.071864 230.289997 197.326812 228.491281 196.000796 227.165266 
C 194.674781 225.83925 192.876065 225.094198 191.000796 225.094198 
C 189.125527 225.094198 187.326812 225.83925 186.000796 227.165266 
C 184.674781 228.491281 183.929728 230.289997 183.929728 232.165266 
C 183.929728 234.040535 184.674781 235.83925 186.000796 237.165266 
C 187.326812 238.491281 189.125527 239.236334 191.000796 239.236334 
z
" style="fill:#0000ff;fill-opacity:0.6;"/>
   </g>
   <g id="PathCollection_17"/>
   <g id="PathCollection_18">
    <path clip-path="url(#p4ada0b1ec4)" d="M 289.047666 148.606489 
C 290.922936 148.606489 292.721651 147.861436 294.047666 146.535421 
C 295.373682 145.209405 296.118734 143.41069 296.118734 141.535421 
C 296.118734 139.660152 295.373682 137.861436 294.047666 136.535421 
C 292.721651 135.209405 290.922936 134.464353 289.047666 134.464353 
C 287.172397 134.464353 285.373682 135.209405 284.047666 136.535421 
C 282.721651 137.861436 281.976599 139.660152 281.976599 141.535421 
C 281.976599 143.41069 282.721651 145.209405 284.047666 146.535421 
C 285.373682 147.861436 287.172397 148.606489 289.047666 148.606489 
z
" style="fill:#ffa500;fill-opacity:0.6;"/>
   </g>
   <g id="PathCollection_19"/>
   <g id="PathCollection_20"/>
   <g id="PathCollection_21">
    <path clip-path="url(#p4ada0b1ec4)" d="M 175.843231 357.872471 
C 177.7185 357.872471 179.517215 357.127419 180.843231 355.801403 
C 182.169246 354.475388 182.914299 352.676673 182.914299 350.801403 
C 182.914299 348.926134 182.169246 347.127419 180.843231 345.801403 
C 179.517215 344.475388 177.7185 343.730336 175.843231 343.730336 
C 173.967962 343.730336 172.169246 344.475388 170.843231 345.801403 
C 169.517215 347.127419 168.772163 348.926134 168.772163 350.801403 
C 168.772163 352.676673 169.517215 354.475388 170.843231 355.801403 
C 172.169246 357.127419 173.967962 357.872471 175.843231 357.872471 
z
" style="fill:#0000ff;fill-opacity:0.6;"/>
   </g>
   <g id="patch_3">
    <path d="M 518.4 388.8 
L 518.4 43.2 
" style="fill:none;stroke:#000000;stroke-linecap:square;stroke-linejoin:miter;"/>
   </g>
   <g id="patch_4">
    <path d="M 72 388.8 
L 72 43.2 
" style="fill:none;stroke:#000000;stroke-linecap:square;stroke-linejoin:miter;"/>
   </g>
   <g id="patch_5">
    <path d="M 72 43.2 
L 518.4 43.2 
" style="fill:none;stroke:#000000;stroke-linecap:square;stroke-linejoin:miter;"/>
   </g>
   <g id="patch_6">
    <path d="M 72 388.8 
L 518.4 388.8 
" style="fill:none;stroke:#000000;stroke-linecap:square;stroke-linejoin:miter;"/>
   </g>
   <g id="matplotlib.axis_1">
    <g id="xtick_1">
     <g id="line2d_1">
      <path clip-path="url(#p4ada0b1ec4)" d="M 72 388.8 
L 72 43.2 
" style="fill:none;stroke:#000000;stroke-dasharray:1.000000,3.000000;stroke-dashoffset:0.0;stroke-width:0.5;"/>
     </g>
     <g id="line2d_2">
      <defs>
       <path d="M 0 0 
L 0 -4 
" id="ma668f2a901" style="stroke:#000000;stroke-width:0.5;"/>
      </defs>
      <g>
       <use style="stroke:#000000;stroke-width:0.5;" x="72.0" xlink:href="#ma668f2a901" y="388.8"/>
      </g>
     </g>
     <g id="line2d_3">
      <defs>
       <path d="M 0 0 
L 0 4 
" id="maff91c06a1" style="stroke:#000000;stroke-width:0.5;"/>
      </defs>
      <g>
       <use style="stroke:#000000;stroke-width:0.5;" x="72.0" xlink:href="#maff91c06a1" y="43.2"/>
      </g>
     </g>
     <g id="text_1">
      <!-- 0 -->
      <defs>
       <path d="M 31.78125 66.40625 
Q 24.171875 66.40625 20.328125 58.90625 
Q 16.5 51.421875 16.5 36.375 
Q 16.5 21.390625 20.328125 13.890625 
Q 24.171875 6.390625 31.78125 6.390625 
Q 39.453125 6.390625 43.28125 13.890625 
Q 47.125 21.390625 47.125 36.375 
Q 47.125 51.421875 43.28125 58.90625 
Q 39.453125 66.40625 31.78125 66.40625 
M 31.78125 74.21875 
Q 44.046875 74.21875 50.515625 64.515625 
Q 56.984375 54.828125 56.984375 36.375 
Q 56.984375 17.96875 50.515625 8.265625 
Q 44.046875 -1.421875 31.78125 -1.421875 
Q 19.53125 -1.421875 13.0625 8.265625 
Q 6.59375 17.96875 6.59375 36.375 
Q 6.59375 54.828125 13.0625 64.515625 
Q 19.53125 74.21875 31.78125 74.21875 
" id="BitstreamVeraSans-Roman-30"/>
      </defs>
      <g transform="translate(68.1825 401.918125)scale(0.12 -0.12)">
       <use xlink:href="#BitstreamVeraSans-Roman-30"/>
      </g>
     </g>
    </g>
    <g id="xtick_2">
     <g id="line2d_4">
      <path clip-path="url(#p4ada0b1ec4)" d="M 161.28 388.8 
L 161.28 43.2 
" style="fill:none;stroke:#000000;stroke-dasharray:1.000000,3.000000;stroke-dashoffset:0.0;stroke-width:0.5;"/>
     </g>
     <g id="line2d_5">
      <g>
       <use style="stroke:#000000;stroke-width:0.5;" x="161.28" xlink:href="#ma668f2a901" y="388.8"/>
      </g>
     </g>
     <g id="line2d_6">
      <g>
       <use style="stroke:#000000;stroke-width:0.5;" x="161.28" xlink:href="#maff91c06a1" y="43.2"/>
      </g>
     </g>
     <g id="text_2">
      <!-- 50 -->
      <defs>
       <path d="M 10.796875 72.90625 
L 49.515625 72.90625 
L 49.515625 64.59375 
L 19.828125 64.59375 
L 19.828125 46.734375 
Q 21.96875 47.46875 24.109375 47.828125 
Q 26.265625 48.1875 28.421875 48.1875 
Q 40.625 48.1875 47.75 41.5 
Q 54.890625 34.8125 54.890625 23.390625 
Q 54.890625 11.625 47.5625 5.09375 
Q 40.234375 -1.421875 26.90625 -1.421875 
Q 22.3125 -1.421875 17.546875 -0.640625 
Q 12.796875 0.140625 7.71875 1.703125 
L 7.71875 11.625 
Q 12.109375 9.234375 16.796875 8.0625 
Q 21.484375 6.890625 26.703125 6.890625 
Q 35.15625 6.890625 40.078125 11.328125 
Q 45.015625 15.765625 45.015625 23.390625 
Q 45.015625 31 40.078125 35.4375 
Q 35.15625 39.890625 26.703125 39.890625 
Q 22.75 39.890625 18.8125 39.015625 
Q 14.890625 38.140625 10.796875 36.28125 
z
" id="BitstreamVeraSans-Roman-35"/>
      </defs>
      <g transform="translate(153.645 401.918125)scale(0.12 -0.12)">
       <use xlink:href="#BitstreamVeraSans-Roman-35"/>
       <use x="63.623046875" xlink:href="#BitstreamVeraSans-Roman-30"/>
      </g>
     </g>
    </g>
    <g id="xtick_3">
     <g id="line2d_7">
      <path clip-path="url(#p4ada0b1ec4)" d="M 250.56 388.8 
L 250.56 43.2 
" style="fill:none;stroke:#000000;stroke-dasharray:1.000000,3.000000;stroke-dashoffset:0.0;stroke-width:0.5;"/>
     </g>
     <g id="line2d_8">
      <g>
       <use style="stroke:#000000;stroke-width:0.5;" x="250.56" xlink:href="#ma668f2a901" y="388.8"/>
      </g>
     </g>
     <g id="line2d_9">
      <g>
       <use style="stroke:#000000;stroke-width:0.5;" x="250.56" xlink:href="#maff91c06a1" y="43.2"/>
      </g>
     </g>
     <g id="text_3">
      <!-- 100 -->
      <defs>
       <path d="M 12.40625 8.296875 
L 28.515625 8.296875 
L 28.515625 63.921875 
L 10.984375 60.40625 
L 10.984375 69.390625 
L 28.421875 72.90625 
L 38.28125 72.90625 
L 38.28125 8.296875 
L 54.390625 8.296875 
L 54.390625 0 
L 12.40625 0 
z
" id="BitstreamVeraSans-Roman-31"/>
      </defs>
      <g transform="translate(239.1075 401.918125)scale(0.12 -0.12)">
       <use xlink:href="#BitstreamVeraSans-Roman-31"/>
       <use x="63.623046875" xlink:href="#BitstreamVeraSans-Roman-30"/>
       <use x="127.24609375" xlink:href="#BitstreamVeraSans-Roman-30"/>
      </g>
     </g>
    </g>
    <g id="xtick_4">
     <g id="line2d_10">
      <path clip-path="url(#p4ada0b1ec4)" d="M 339.84 388.8 
L 339.84 43.2 
" style="fill:none;stroke:#000000;stroke-dasharray:1.000000,3.000000;stroke-dashoffset:0.0;stroke-width:0.5;"/>
     </g>
     <g id="line2d_11">
      <g>
       <use style="stroke:#000000;stroke-width:0.5;" x="339.84" xlink:href="#ma668f2a901" y="388.8"/>
      </g>
     </g>
     <g id="line2d_12">
      <g>
       <use style="stroke:#000000;stroke-width:0.5;" x="339.84" xlink:href="#maff91c06a1" y="43.2"/>
      </g>
     </g>
     <g id="text_4">
      <!-- 150 -->
      <g transform="translate(328.3875 401.918125)scale(0.12 -0.12)">
       <use xlink:href="#BitstreamVeraSans-Roman-31"/>
       <use x="63.623046875" xlink:href="#BitstreamVeraSans-Roman-35"/>
       <use x="127.24609375" xlink:href="#BitstreamVeraSans-Roman-30"/>
      </g>
     </g>
    </g>
    <g id="xtick_5">
     <g id="line2d_13">
      <path clip-path="url(#p4ada0b1ec4)" d="M 429.12 388.8 
L 429.12 43.2 
" style="fill:none;stroke:#000000;stroke-dasharray:1.000000,3.000000;stroke-dashoffset:0.0;stroke-width:0.5;"/>
     </g>
     <g id="line2d_14">
      <g>
       <use style="stroke:#000000;stroke-width:0.5;" x="429.12" xlink:href="#ma668f2a901" y="388.8"/>
      </g>
     </g>
     <g id="line2d_15">
      <g>
       <use style="stroke:#000000;stroke-width:0.5;" x="429.12" xlink:href="#maff91c06a1" y="43.2"/>
      </g>
     </g>
     <g id="text_5">
      <!-- 200 -->
      <defs>
       <path d="M 19.1875 8.296875 
L 53.609375 8.296875 
L 53.609375 0 
L 7.328125 0 
L 7.328125 8.296875 
Q 12.9375 14.109375 22.625 23.890625 
Q 32.328125 33.6875 34.8125 36.53125 
Q 39.546875 41.84375 41.421875 45.53125 
Q 43.3125 49.21875 43.3125 52.78125 
Q 43.3125 58.59375 39.234375 62.25 
Q 35.15625 65.921875 28.609375 65.921875 
Q 23.96875 65.921875 18.8125 64.3125 
Q 13.671875 62.703125 7.8125 59.421875 
L 7.8125 69.390625 
Q 13.765625 71.78125 18.9375 73 
Q 24.125 74.21875 28.421875 74.21875 
Q 39.75 74.21875 46.484375 68.546875 
Q 53.21875 62.890625 53.21875 53.421875 
Q 53.21875 48.921875 51.53125 44.890625 
Q 49.859375 40.875 45.40625 35.40625 
Q 44.1875 33.984375 37.640625 27.21875 
Q 31.109375 20.453125 19.1875 8.296875 
" id="BitstreamVeraSans-Roman-32"/>
      </defs>
      <g transform="translate(417.6675 401.918125)scale(0.12 -0.12)">
       <use xlink:href="#BitstreamVeraSans-Roman-32"/>
       <use x="63.623046875" xlink:href="#BitstreamVeraSans-Roman-30"/>
       <use x="127.24609375" xlink:href="#BitstreamVeraSans-Roman-30"/>
      </g>
     </g>
    </g>
    <g id="xtick_6">
     <g id="line2d_16">
      <path clip-path="url(#p4ada0b1ec4)" d="M 518.4 388.8 
L 518.4 43.2 
" style="fill:none;stroke:#000000;stroke-dasharray:1.000000,3.000000;stroke-dashoffset:0.0;stroke-width:0.5;"/>
     </g>
     <g id="line2d_17">
      <g>
       <use style="stroke:#000000;stroke-width:0.5;" x="518.4" xlink:href="#ma668f2a901" y="388.8"/>
      </g>
     </g>
     <g id="line2d_18">
      <g>
       <use style="stroke:#000000;stroke-width:0.5;" x="518.4" xlink:href="#maff91c06a1" y="43.2"/>
      </g>
     </g>
     <g id="text_6">
      <!-- 250 -->
      <g transform="translate(506.9475 401.918125)scale(0.12 -0.12)">
       <use xlink:href="#BitstreamVeraSans-Roman-32"/>
       <use x="63.623046875" xlink:href="#BitstreamVeraSans-Roman-35"/>
       <use x="127.24609375" xlink:href="#BitstreamVeraSans-Roman-30"/>
      </g>
     </g>
    </g>
    <g id="text_7">
     <!-- Distance(m) -->
     <defs>
      <path d="M 18.3125 70.21875 
L 18.3125 54.6875 
L 36.8125 54.6875 
L 36.8125 47.703125 
L 18.3125 47.703125 
L 18.3125 18.015625 
Q 18.3125 11.328125 20.140625 9.421875 
Q 21.96875 7.515625 27.59375 7.515625 
L 36.8125 7.515625 
L 36.8125 0 
L 27.59375 0 
Q 17.1875 0 13.234375 3.875 
Q 9.28125 7.765625 9.28125 18.015625 
L 9.28125 47.703125 
L 2.6875 47.703125 
L 2.6875 54.6875 
L 9.28125 54.6875 
L 9.28125 70.21875 
z
" id="BitstreamVeraSans-Roman-74"/>
      <path d="M 52 44.1875 
Q 55.375 50.25 60.0625 53.125 
Q 64.75 56 71.09375 56 
Q 79.640625 56 84.28125 50.015625 
Q 88.921875 44.046875 88.921875 33.015625 
L 88.921875 0 
L 79.890625 0 
L 79.890625 32.71875 
Q 79.890625 40.578125 77.09375 44.375 
Q 74.3125 48.1875 68.609375 48.1875 
Q 61.625 48.1875 57.5625 43.546875 
Q 53.515625 38.921875 53.515625 30.90625 
L 53.515625 0 
L 44.484375 0 
L 44.484375 32.71875 
Q 44.484375 40.625 41.703125 44.40625 
Q 38.921875 48.1875 33.109375 48.1875 
Q 26.21875 48.1875 22.15625 43.53125 
Q 18.109375 38.875 18.109375 30.90625 
L 18.109375 0 
L 9.078125 0 
L 9.078125 54.6875 
L 18.109375 54.6875 
L 18.109375 46.1875 
Q 21.1875 51.21875 25.484375 53.609375 
Q 29.78125 56 35.6875 56 
Q 41.65625 56 45.828125 52.96875 
Q 50 49.953125 52 44.1875 
" id="BitstreamVeraSans-Roman-6d"/>
      <path d="M 34.28125 27.484375 
Q 23.390625 27.484375 19.1875 25 
Q 14.984375 22.515625 14.984375 16.5 
Q 14.984375 11.71875 18.140625 8.90625 
Q 21.296875 6.109375 26.703125 6.109375 
Q 34.1875 6.109375 38.703125 11.40625 
Q 43.21875 16.703125 43.21875 25.484375 
L 43.21875 27.484375 
z
M 52.203125 31.203125 
L 52.203125 0 
L 43.21875 0 
L 43.21875 8.296875 
Q 40.140625 3.328125 35.546875 0.953125 
Q 30.953125 -1.421875 24.3125 -1.421875 
Q 15.921875 -1.421875 10.953125 3.296875 
Q 6 8.015625 6 15.921875 
Q 6 25.140625 12.171875 29.828125 
Q 18.359375 34.515625 30.609375 34.515625 
L 43.21875 34.515625 
L 43.21875 35.40625 
Q 43.21875 41.609375 39.140625 45 
Q 35.0625 48.390625 27.6875 48.390625 
Q 23 48.390625 18.546875 47.265625 
Q 14.109375 46.140625 10.015625 43.890625 
L 10.015625 52.203125 
Q 14.9375 54.109375 19.578125 55.046875 
Q 24.21875 56 28.609375 56 
Q 40.484375 56 46.34375 49.84375 
Q 52.203125 43.703125 52.203125 31.203125 
" id="BitstreamVeraSans-Roman-61"/>
      <path d="M 48.78125 52.59375 
L 48.78125 44.1875 
Q 44.96875 46.296875 41.140625 47.34375 
Q 37.3125 48.390625 33.40625 48.390625 
Q 24.65625 48.390625 19.8125 42.84375 
Q 14.984375 37.3125 14.984375 27.296875 
Q 14.984375 17.28125 19.8125 11.734375 
Q 24.65625 6.203125 33.40625 6.203125 
Q 37.3125 6.203125 41.140625 7.25 
Q 44.96875 8.296875 48.78125 10.40625 
L 48.78125 2.09375 
Q 45.015625 0.34375 40.984375 -0.53125 
Q 36.96875 -1.421875 32.421875 -1.421875 
Q 20.0625 -1.421875 12.78125 6.34375 
Q 5.515625 14.109375 5.515625 27.296875 
Q 5.515625 40.671875 12.859375 48.328125 
Q 20.21875 56 33.015625 56 
Q 37.15625 56 41.109375 55.140625 
Q 45.0625 54.296875 48.78125 52.59375 
" id="BitstreamVeraSans-Roman-63"/>
      <path d="M 44.28125 53.078125 
L 44.28125 44.578125 
Q 40.484375 46.53125 36.375 47.5 
Q 32.28125 48.484375 27.875 48.484375 
Q 21.1875 48.484375 17.84375 46.4375 
Q 14.5 44.390625 14.5 40.28125 
Q 14.5 37.15625 16.890625 35.375 
Q 19.28125 33.59375 26.515625 31.984375 
L 29.59375 31.296875 
Q 39.15625 29.25 43.1875 25.515625 
Q 47.21875 21.78125 47.21875 15.09375 
Q 47.21875 7.46875 41.1875 3.015625 
Q 35.15625 -1.421875 24.609375 -1.421875 
Q 20.21875 -1.421875 15.453125 -0.5625 
Q 10.6875 0.296875 5.421875 2 
L 5.421875 11.28125 
Q 10.40625 8.6875 15.234375 7.390625 
Q 20.0625 6.109375 24.8125 6.109375 
Q 31.15625 6.109375 34.5625 8.28125 
Q 37.984375 10.453125 37.984375 14.40625 
Q 37.984375 18.0625 35.515625 20.015625 
Q 33.0625 21.96875 24.703125 23.78125 
L 21.578125 24.515625 
Q 13.234375 26.265625 9.515625 29.90625 
Q 5.8125 33.546875 5.8125 39.890625 
Q 5.8125 47.609375 11.28125 51.796875 
Q 16.75 56 26.8125 56 
Q 31.78125 56 36.171875 55.265625 
Q 40.578125 54.546875 44.28125 53.078125 
" id="BitstreamVeraSans-Roman-73"/>
      <path d="M 56.203125 29.59375 
L 56.203125 25.203125 
L 14.890625 25.203125 
Q 15.484375 15.921875 20.484375 11.0625 
Q 25.484375 6.203125 34.421875 6.203125 
Q 39.59375 6.203125 44.453125 7.46875 
Q 49.3125 8.734375 54.109375 11.28125 
L 54.109375 2.78125 
Q 49.265625 0.734375 44.1875 -0.34375 
Q 39.109375 -1.421875 33.890625 -1.421875 
Q 20.796875 -1.421875 13.15625 6.1875 
Q 5.515625 13.8125 5.515625 26.8125 
Q 5.515625 40.234375 12.765625 48.109375 
Q 20.015625 56 32.328125 56 
Q 43.359375 56 49.78125 48.890625 
Q 56.203125 41.796875 56.203125 29.59375 
M 47.21875 32.234375 
Q 47.125 39.59375 43.09375 43.984375 
Q 39.0625 48.390625 32.421875 48.390625 
Q 24.90625 48.390625 20.390625 44.140625 
Q 15.875 39.890625 15.1875 32.171875 
z
" id="BitstreamVeraSans-Roman-65"/>
      <path d="M 9.421875 54.6875 
L 18.40625 54.6875 
L 18.40625 0 
L 9.421875 0 
z
M 9.421875 75.984375 
L 18.40625 75.984375 
L 18.40625 64.59375 
L 9.421875 64.59375 
z
" id="BitstreamVeraSans-Roman-69"/>
      <path d="M 8.015625 75.875 
L 15.828125 75.875 
Q 23.140625 64.359375 26.78125 53.3125 
Q 30.421875 42.28125 30.421875 31.390625 
Q 30.421875 20.453125 26.78125 9.375 
Q 23.140625 -1.703125 15.828125 -13.1875 
L 8.015625 -13.1875 
Q 14.5 -2 17.703125 9.0625 
Q 20.90625 20.125 20.90625 31.390625 
Q 20.90625 42.671875 17.703125 53.65625 
Q 14.5 64.65625 8.015625 75.875 
" id="BitstreamVeraSans-Roman-29"/>
      <path d="M 19.671875 64.796875 
L 19.671875 8.109375 
L 31.59375 8.109375 
Q 46.6875 8.109375 53.6875 14.9375 
Q 60.6875 21.78125 60.6875 36.53125 
Q 60.6875 51.171875 53.6875 57.984375 
Q 46.6875 64.796875 31.59375 64.796875 
z
M 9.8125 72.90625 
L 30.078125 72.90625 
Q 51.265625 72.90625 61.171875 64.09375 
Q 71.09375 55.28125 71.09375 36.53125 
Q 71.09375 17.671875 61.125 8.828125 
Q 51.171875 0 30.078125 0 
L 9.8125 0 
z
" id="BitstreamVeraSans-Roman-44"/>
      <path d="M 31 75.875 
Q 24.46875 64.65625 21.28125 53.65625 
Q 18.109375 42.671875 18.109375 31.390625 
Q 18.109375 20.125 21.3125 9.0625 
Q 24.515625 -2 31 -13.1875 
L 23.1875 -13.1875 
Q 15.875 -1.703125 12.234375 9.375 
Q 8.59375 20.453125 8.59375 31.390625 
Q 8.59375 42.28125 12.203125 53.3125 
Q 15.828125 64.359375 23.1875 75.875 
z
" id="BitstreamVeraSans-Roman-28"/>
      <path d="M 54.890625 33.015625 
L 54.890625 0 
L 45.90625 0 
L 45.90625 32.71875 
Q 45.90625 40.484375 42.875 44.328125 
Q 39.84375 48.1875 33.796875 48.1875 
Q 26.515625 48.1875 22.3125 43.546875 
Q 18.109375 38.921875 18.109375 30.90625 
L 18.109375 0 
L 9.078125 0 
L 9.078125 54.6875 
L 18.109375 54.6875 
L 18.109375 46.1875 
Q 21.34375 51.125 25.703125 53.5625 
Q 30.078125 56 35.796875 56 
Q 45.21875 56 50.046875 50.171875 
Q 54.890625 44.34375 54.890625 33.015625 
" id="BitstreamVeraSans-Roman-6e"/>
     </defs>
     <g transform="translate(258.43875 418.531875)scale(0.12 -0.12)">
      <use xlink:href="#BitstreamVeraSans-Roman-44"/>
      <use x="77.001953125" xlink:href="#BitstreamVeraSans-Roman-69"/>
      <use x="104.78515625" xlink:href="#BitstreamVeraSans-Roman-73"/>
      <use x="156.884765625" xlink:href="#BitstreamVeraSans-Roman-74"/>
      <use x="196.09375" xlink:href="#BitstreamVeraSans-Roman-61"/>
      <use x="257.373046875" xlink:href="#BitstreamVeraSans-Roman-6e"/>
      <use x="320.751953125" xlink:href="#BitstreamVeraSans-Roman-63"/>
      <use x="375.732421875" xlink:href="#BitstreamVeraSans-Roman-65"/>
      <use x="437.255859375" xlink:href="#BitstreamVeraSans-Roman-28"/>
      <use x="476.26953125" xlink:href="#BitstreamVeraSans-Roman-6d"/>
      <use x="573.681640625" xlink:href="#BitstreamVeraSans-Roman-29"/>
     </g>
    </g>
   </g>
   <g id="matplotlib.axis_2">
    <g id="ytick_1">
     <g id="line2d_19">
      <path clip-path="url(#p4ada0b1ec4)" d="M 72 388.8 
L 518.4 388.8 
" style="fill:none;stroke:#000000;stroke-dasharray:1.000000,3.000000;stroke-dashoffset:0.0;stroke-width:0.5;"/>
     </g>
     <g id="line2d_20">
      <defs>
       <path d="M 0 0 
L 4 0 
" id="m7c5ad8a224" style="stroke:#000000;stroke-width:0.5;"/>
      </defs>
      <g>
       <use style="stroke:#000000;stroke-width:0.5;" x="72.0" xlink:href="#m7c5ad8a224" y="388.8"/>
      </g>
     </g>
     <g id="line2d_21">
      <defs>
       <path d="M 0 0 
L -4 0 
" id="m90f24b565d" style="stroke:#000000;stroke-width:0.5;"/>
      </defs>
      <g>
       <use style="stroke:#000000;stroke-width:0.5;" x="518.4" xlink:href="#m90f24b565d" y="388.8"/>
      </g>
     </g>
     <g id="text_8">
      <!-- 0 -->
      <g transform="translate(60.365 392.11125)scale(0.12 -0.12)">
       <use xlink:href="#BitstreamVeraSans-Roman-30"/>
      </g>
     </g>
    </g>
    <g id="ytick_2">
     <g id="line2d_22">
      <path clip-path="url(#p4ada0b1ec4)" d="M 72 319.68 
L 518.4 319.68 
" style="fill:none;stroke:#000000;stroke-dasharray:1.000000,3.000000;stroke-dashoffset:0.0;stroke-width:0.5;"/>
     </g>
     <g id="line2d_23">
      <g>
       <use style="stroke:#000000;stroke-width:0.5;" x="72.0" xlink:href="#m7c5ad8a224" y="319.68"/>
      </g>
     </g>
     <g id="line2d_24">
      <g>
       <use style="stroke:#000000;stroke-width:0.5;" x="518.4" xlink:href="#m90f24b565d" y="319.68"/>
      </g>
     </g>
     <g id="text_9">
      <!-- 50 -->
      <g transform="translate(52.73 322.99125)scale(0.12 -0.12)">
       <use xlink:href="#BitstreamVeraSans-Roman-35"/>
       <use x="63.623046875" xlink:href="#BitstreamVeraSans-Roman-30"/>
      </g>
     </g>
    </g>
    <g id="ytick_3">
     <g id="line2d_25">
      <path clip-path="url(#p4ada0b1ec4)" d="M 72 250.56 
L 518.4 250.56 
" style="fill:none;stroke:#000000;stroke-dasharray:1.000000,3.000000;stroke-dashoffset:0.0;stroke-width:0.5;"/>
     </g>
     <g id="line2d_26">
      <g>
       <use style="stroke:#000000;stroke-width:0.5;" x="72.0" xlink:href="#m7c5ad8a224" y="250.56"/>
      </g>
     </g>
     <g id="line2d_27">
      <g>
       <use style="stroke:#000000;stroke-width:0.5;" x="518.4" xlink:href="#m90f24b565d" y="250.56"/>
      </g>
     </g>
     <g id="text_10">
      <!-- 100 -->
      <g transform="translate(45.095 253.87125)scale(0.12 -0.12)">
       <use xlink:href="#BitstreamVeraSans-Roman-31"/>
       <use x="63.623046875" xlink:href="#BitstreamVeraSans-Roman-30"/>
       <use x="127.24609375" xlink:href="#BitstreamVeraSans-Roman-30"/>
      </g>
     </g>
    </g>
    <g id="ytick_4">
     <g id="line2d_28">
      <path clip-path="url(#p4ada0b1ec4)" d="M 72 181.44 
L 518.4 181.44 
" style="fill:none;stroke:#000000;stroke-dasharray:1.000000,3.000000;stroke-dashoffset:0.0;stroke-width:0.5;"/>
     </g>
     <g id="line2d_29">
      <g>
       <use style="stroke:#000000;stroke-width:0.5;" x="72.0" xlink:href="#m7c5ad8a224" y="181.44"/>
      </g>
     </g>
     <g id="line2d_30">
      <g>
       <use style="stroke:#000000;stroke-width:0.5;" x="518.4" xlink:href="#m90f24b565d" y="181.44"/>
      </g>
     </g>
     <g id="text_11">
      <!-- 150 -->
      <g transform="translate(45.095 184.75125)scale(0.12 -0.12)">
       <use xlink:href="#BitstreamVeraSans-Roman-31"/>
       <use x="63.623046875" xlink:href="#BitstreamVeraSans-Roman-35"/>
       <use x="127.24609375" xlink:href="#BitstreamVeraSans-Roman-30"/>
      </g>
     </g>
    </g>
    <g id="ytick_5">
     <g id="line2d_31">
      <path clip-path="url(#p4ada0b1ec4)" d="M 72 112.32 
L 518.4 112.32 
" style="fill:none;stroke:#000000;stroke-dasharray:1.000000,3.000000;stroke-dashoffset:0.0;stroke-width:0.5;"/>
     </g>
     <g id="line2d_32">
      <g>
       <use style="stroke:#000000;stroke-width:0.5;" x="72.0" xlink:href="#m7c5ad8a224" y="112.32"/>
      </g>
     </g>
     <g id="line2d_33">
      <g>
       <use style="stroke:#000000;stroke-width:0.5;" x="518.4" xlink:href="#m90f24b565d" y="112.32"/>
      </g>
     </g>
     <g id="text_12">
      <!-- 200 -->
      <g transform="translate(45.095 115.63125)scale(0.12 -0.12)">
       <use xlink:href="#BitstreamVeraSans-Roman-32"/>
       <use x="63.623046875" xlink:href="#BitstreamVeraSans-Roman-30"/>
       <use x="127.24609375" xlink:href="#BitstreamVeraSans-Roman-30"/>
      </g>
     </g>
    </g>
    <g id="ytick_6">
     <g id="line2d_34">
      <path clip-path="url(#p4ada0b1ec4)" d="M 72 43.2 
L 518.4 43.2 
" style="fill:none;stroke:#000000;stroke-dasharray:1.000000,3.000000;stroke-dashoffset:0.0;stroke-width:0.5;"/>
     </g>
     <g id="line2d_35">
      <g>
       <use style="stroke:#000000;stroke-width:0.5;" x="72.0" xlink:href="#m7c5ad8a224" y="43.2"/>
      </g>
     </g>
     <g id="line2d_36">
      <g>
       <use style="stroke:#000000;stroke-width:0.5;" x="518.4" xlink:href="#m90f24b565d" y="43.2"/>
      </g>
     </g>
     <g id="text_13">
      <!-- 250 -->
      <g transform="translate(45.095 46.51125)scale(0.12 -0.12)">
       <use xlink:href="#BitstreamVeraSans-Roman-32"/>
       <use x="63.623046875" xlink:href="#BitstreamVeraSans-Roman-35"/>
       <use x="127.24609375" xlink:href="#BitstreamVeraSans-Roman-30"/>
      </g>
     </g>
    </g>
    <g id="text_14">
     <!-- Distance(m) -->
     <g transform="translate(37.599375 252.76125)rotate(-90.0)scale(0.12 -0.12)">
      <use xlink:href="#BitstreamVeraSans-Roman-44"/>
      <use x="77.001953125" xlink:href="#BitstreamVeraSans-Roman-69"/>
      <use x="104.78515625" xlink:href="#BitstreamVeraSans-Roman-73"/>
      <use x="156.884765625" xlink:href="#BitstreamVeraSans-Roman-74"/>
      <use x="196.09375" xlink:href="#BitstreamVeraSans-Roman-61"/>
      <use x="257.373046875" xlink:href="#BitstreamVeraSans-Roman-6e"/>
      <use x="320.751953125" xlink:href="#BitstreamVeraSans-Roman-63"/>
      <use x="375.732421875" xlink:href="#BitstreamVeraSans-Roman-65"/>
      <use x="437.255859375" xlink:href="#BitstreamVeraSans-Roman-28"/>
      <use x="476.26953125" xlink:href="#BitstreamVeraSans-Roman-6d"/>
      <use x="573.681640625" xlink:href="#BitstreamVeraSans-Roman-29"/>
     </g>
    </g>
   </g>
   <g id="text_15">
    <!-- Deployment -->
    <defs>
     <path d="M 18.109375 8.203125 
L 18.109375 -20.796875 
L 9.078125 -20.796875 
L 9.078125 54.6875 
L 18.109375 54.6875 
L 18.109375 46.390625 
Q 20.953125 51.265625 25.265625 53.625 
Q 29.59375 56 35.59375 56 
Q 45.5625 56 51.78125 48.09375 
Q 58.015625 40.1875 58.015625 27.296875 
Q 58.015625 14.40625 51.78125 6.484375 
Q 45.5625 -1.421875 35.59375 -1.421875 
Q 29.59375 -1.421875 25.265625 0.953125 
Q 20.953125 3.328125 18.109375 8.203125 
M 48.6875 27.296875 
Q 48.6875 37.203125 44.609375 42.84375 
Q 40.53125 48.484375 33.40625 48.484375 
Q 26.265625 48.484375 22.1875 42.84375 
Q 18.109375 37.203125 18.109375 27.296875 
Q 18.109375 17.390625 22.1875 11.75 
Q 26.265625 6.109375 33.40625 6.109375 
Q 40.53125 6.109375 44.609375 11.75 
Q 48.6875 17.390625 48.6875 27.296875 
" id="BitstreamVeraSans-Roman-70"/>
     <path d="M 9.421875 75.984375 
L 18.40625 75.984375 
L 18.40625 0 
L 9.421875 0 
z
" id="BitstreamVeraSans-Roman-6c"/>
     <path d="M 32.171875 -5.078125 
Q 28.375 -14.84375 24.75 -17.8125 
Q 21.140625 -20.796875 15.09375 -20.796875 
L 7.90625 -20.796875 
L 7.90625 -13.28125 
L 13.1875 -13.28125 
Q 16.890625 -13.28125 18.9375 -11.515625 
Q 21 -9.765625 23.484375 -3.21875 
L 25.09375 0.875 
L 2.984375 54.6875 
L 12.5 54.6875 
L 29.59375 11.921875 
L 46.6875 54.6875 
L 56.203125 54.6875 
z
" id="BitstreamVeraSans-Roman-79"/>
     <path d="M 30.609375 48.390625 
Q 23.390625 48.390625 19.1875 42.75 
Q 14.984375 37.109375 14.984375 27.296875 
Q 14.984375 17.484375 19.15625 11.84375 
Q 23.34375 6.203125 30.609375 6.203125 
Q 37.796875 6.203125 41.984375 11.859375 
Q 46.1875 17.53125 46.1875 27.296875 
Q 46.1875 37.015625 41.984375 42.703125 
Q 37.796875 48.390625 30.609375 48.390625 
M 30.609375 56 
Q 42.328125 56 49.015625 48.375 
Q 55.71875 40.765625 55.71875 27.296875 
Q 55.71875 13.875 49.015625 6.21875 
Q 42.328125 -1.421875 30.609375 -1.421875 
Q 18.84375 -1.421875 12.171875 6.21875 
Q 5.515625 13.875 5.515625 27.296875 
Q 5.515625 40.765625 12.171875 48.375 
Q 18.84375 56 30.609375 56 
" id="BitstreamVeraSans-Roman-6f"/>
    </defs>
    <g transform="translate(251.1585 38.2)scale(0.144 -0.144)">
     <use xlink:href="#BitstreamVeraSans-Roman-44"/>
     <use x="77.001953125" xlink:href="#BitstreamVeraSans-Roman-65"/>
     <use x="138.525390625" xlink:href="#BitstreamVeraSans-Roman-70"/>
     <use x="202.001953125" xlink:href="#BitstreamVeraSans-Roman-6c"/>
     <use x="229.78515625" xlink:href="#BitstreamVeraSans-Roman-6f"/>
     <use x="290.966796875" xlink:href="#BitstreamVeraSans-Roman-79"/>
     <use x="350.146484375" xlink:href="#BitstreamVeraSans-Roman-6d"/>
     <use x="447.55859375" xlink:href="#BitstreamVeraSans-Roman-65"/>
     <use x="509.08203125" xlink:href="#BitstreamVeraSans-Roman-6e"/>
     <use x="572.4609375" xlink:href="#BitstreamVeraSans-Roman-74"/>
    </g>
   </g>
   <g id="legend_1">
    <g id="patch_7">
     <path d="M 411.54525 477.45 
L 511.2 477.45 
L 511.2 50.4 
L 411.54525 50.4 
z
" style="fill:#ffffff;stroke:#000000;stroke-linejoin:miter;"/>
    </g>
    <g id="PathCollection_22">
     <path d="M 421.62525 70.392818 
C 423.500519 70.392818 425.299235 69.647766 426.62525 68.32175 
C 427.951265 66.995735 428.696318 65.197019 428.696318 63.32175 
C 428.696318 61.446481 427.951265 59.647766 426.62525 58.32175 
C 425.299235 56.995735 423.500519 56.250682 421.62525 56.250682 
C 419.749981 56.250682 417.951265 56.995735 416.62525 58.32175 
C 415.299235 59.647766 414.554182 61.446481 414.554182 63.32175 
C 414.554182 65.197019 415.299235 66.995735 416.62525 68.32175 
C 417.951265 69.647766 419.749981 70.392818 421.62525 70.392818 
z
" style="fill:#800080;fill-opacity:0.6;"/>
     <path d="M 431.70525 69.132818 
C 433.580519 69.132818 435.379234 68.387765 436.70525 67.06175 
C 438.031265 65.735734 438.776318 63.937019 438.776318 62.06175 
C 438.776318 60.186481 438.031265 58.387765 436.70525 57.06175 
C 435.379234 55.735734 433.580519 54.990682 431.70525 54.990682 
C 429.829981 54.990682 428.031265 55.735734 426.70525 57.06175 
C 425.379234 58.387765 424.634182 60.186481 424.634182 62.06175 
C 424.634182 63.937019 425.379234 65.735734 426.70525 67.06175 
C 428.031265 68.387765 429.829981 69.132818 431.70525 69.132818 
z
" style="fill:#800080;fill-opacity:0.6;"/>
     <path d="M 441.78525 71.022818 
C 443.660519 71.022818 445.459235 70.277766 446.78525 68.95175 
C 448.111266 67.625735 448.856318 65.827019 448.856318 63.95175 
C 448.856318 62.076481 448.111266 60.277766 446.78525 58.95175 
C 445.459235 57.625735 443.660519 56.880682 441.78525 56.880682 
C 439.909981 56.880682 438.111266 57.625735 436.78525 58.95175 
C 435.459235 60.277766 434.714182 62.076481 434.714182 63.95175 
C 434.714182 65.827019 435.459235 67.625735 436.78525 68.95175 
C 438.111266 70.277766 439.909981 71.022818 441.78525 71.022818 
z
" style="fill:#800080;fill-opacity:0.6;"/>
    </g>
    <g id="text_16">
     <!-- SF=11 -->
     <defs>
      <path d="M 10.59375 45.40625 
L 73.1875 45.40625 
L 73.1875 37.203125 
L 10.59375 37.203125 
z
M 10.59375 25.484375 
L 73.1875 25.484375 
L 73.1875 17.1875 
L 10.59375 17.1875 
z
" id="BitstreamVeraSans-Roman-3d"/>
      <path d="M 9.8125 72.90625 
L 51.703125 72.90625 
L 51.703125 64.59375 
L 19.671875 64.59375 
L 19.671875 43.109375 
L 48.578125 43.109375 
L 48.578125 34.8125 
L 19.671875 34.8125 
L 19.671875 0 
L 9.8125 0 
z
" id="BitstreamVeraSans-Roman-46"/>
      <path d="M 53.515625 70.515625 
L 53.515625 60.890625 
Q 47.90625 63.578125 42.921875 64.890625 
Q 37.9375 66.21875 33.296875 66.21875 
Q 25.25 66.21875 20.875 63.09375 
Q 16.5 59.96875 16.5 54.203125 
Q 16.5 49.359375 19.40625 46.890625 
Q 22.3125 44.4375 30.421875 42.921875 
L 36.375 41.703125 
Q 47.40625 39.59375 52.65625 34.296875 
Q 57.90625 29 57.90625 20.125 
Q 57.90625 9.515625 50.796875 4.046875 
Q 43.703125 -1.421875 29.984375 -1.421875 
Q 24.8125 -1.421875 18.96875 -0.25 
Q 13.140625 0.921875 6.890625 3.21875 
L 6.890625 13.375 
Q 12.890625 10.015625 18.65625 8.296875 
Q 24.421875 6.59375 29.984375 6.59375 
Q 38.421875 6.59375 43.015625 9.90625 
Q 47.609375 13.234375 47.609375 19.390625 
Q 47.609375 24.75 44.3125 27.78125 
Q 41.015625 30.8125 33.5 32.328125 
L 27.484375 33.5 
Q 16.453125 35.6875 11.515625 40.375 
Q 6.59375 45.0625 6.59375 53.421875 
Q 6.59375 63.09375 13.40625 68.65625 
Q 20.21875 74.21875 32.171875 74.21875 
Q 37.3125 74.21875 42.625 73.28125 
Q 47.953125 72.359375 53.515625 70.515625 
" id="BitstreamVeraSans-Roman-53"/>
     </defs>
     <g transform="translate(457.62525 67.10175)scale(0.144 -0.144)">
      <use xlink:href="#BitstreamVeraSans-Roman-53"/>
      <use x="63.4765625" xlink:href="#BitstreamVeraSans-Roman-46"/>
      <use x="120.99609375" xlink:href="#BitstreamVeraSans-Roman-3d"/>
      <use x="204.78515625" xlink:href="#BitstreamVeraSans-Roman-31"/>
      <use x="268.408203125" xlink:href="#BitstreamVeraSans-Roman-31"/>
     </g>
    </g>
    <g id="PathCollection_23">
     <path d="M 421.62525 91.529318 
C 423.500519 91.529318 425.299235 90.784265 426.62525 89.45825 
C 427.951265 88.132234 428.696318 86.333519 428.696318 84.45825 
C 428.696318 82.582981 427.951265 80.784265 426.62525 79.45825 
C 425.299235 78.132234 423.500519 77.387182 421.62525 77.387182 
C 419.749981 77.387182 417.951265 78.132234 416.62525 79.45825 
C 415.299235 80.784265 414.554182 82.582981 414.554182 84.45825 
C 414.554182 86.333519 415.299235 88.132234 416.62525 89.45825 
C 417.951265 90.784265 419.749981 91.529318 421.62525 91.529318 
z
" style="fill:#ffc0cb;fill-opacity:0.6;"/>
     <path d="M 431.70525 90.269318 
C 433.580519 90.269318 435.379234 89.524265 436.70525 88.19825 
C 438.031265 86.872234 438.776318 85.073519 438.776318 83.19825 
C 438.776318 81.322981 438.031265 79.524265 436.70525 78.19825 
C 435.379234 76.872234 433.580519 76.127182 431.70525 76.127182 
C 429.829981 76.127182 428.031265 76.872234 426.70525 78.19825 
C 425.379234 79.524265 424.634182 81.322981 424.634182 83.19825 
C 424.634182 85.073519 425.379234 86.872234 426.70525 88.19825 
C 428.031265 89.524265 429.829981 90.269318 431.70525 90.269318 
z
" style="fill:#ffc0cb;fill-opacity:0.6;"/>
     <path d="M 441.78525 92.159318 
C 443.660519 92.159318 445.459235 91.414265 446.78525 90.08825 
C 448.111266 88.762234 448.856318 86.963519 448.856318 85.08825 
C 448.856318 83.212981 448.111266 81.414265 446.78525 80.08825 
C 445.459235 78.762234 443.660519 78.017182 441.78525 78.017182 
C 439.909981 78.017182 438.111266 78.762234 436.78525 80.08825 
C 435.459235 81.414265 434.714182 83.212981 434.714182 85.08825 
C 434.714182 86.963519 435.459235 88.762234 436.78525 90.08825 
C 438.111266 91.414265 439.909981 92.159318 441.78525 92.159318 
z
" style="fill:#ffc0cb;fill-opacity:0.6;"/>
    </g>
    <g id="text_17">
     <!-- SF=9 -->
     <defs>
      <path d="M 10.984375 1.515625 
L 10.984375 10.5 
Q 14.703125 8.734375 18.5 7.8125 
Q 22.3125 6.890625 25.984375 6.890625 
Q 35.75 6.890625 40.890625 13.453125 
Q 46.046875 20.015625 46.78125 33.40625 
Q 43.953125 29.203125 39.59375 26.953125 
Q 35.25 24.703125 29.984375 24.703125 
Q 19.046875 24.703125 12.671875 31.3125 
Q 6.296875 37.9375 6.296875 49.421875 
Q 6.296875 60.640625 12.9375 67.421875 
Q 19.578125 74.21875 30.609375 74.21875 
Q 43.265625 74.21875 49.921875 64.515625 
Q 56.59375 54.828125 56.59375 36.375 
Q 56.59375 19.140625 48.40625 8.859375 
Q 40.234375 -1.421875 26.421875 -1.421875 
Q 22.703125 -1.421875 18.890625 -0.6875 
Q 15.09375 0.046875 10.984375 1.515625 
M 30.609375 32.421875 
Q 37.25 32.421875 41.125 36.953125 
Q 45.015625 41.5 45.015625 49.421875 
Q 45.015625 57.28125 41.125 61.84375 
Q 37.25 66.40625 30.609375 66.40625 
Q 23.96875 66.40625 20.09375 61.84375 
Q 16.21875 57.28125 16.21875 49.421875 
Q 16.21875 41.5 20.09375 36.953125 
Q 23.96875 32.421875 30.609375 32.421875 
" id="BitstreamVeraSans-Roman-39"/>
     </defs>
     <g transform="translate(457.62525 88.23825)scale(0.144 -0.144)">
      <use xlink:href="#BitstreamVeraSans-Roman-53"/>
      <use x="63.4765625" xlink:href="#BitstreamVeraSans-Roman-46"/>
      <use x="120.99609375" xlink:href="#BitstreamVeraSans-Roman-3d"/>
      <use x="204.78515625" xlink:href="#BitstreamVeraSans-Roman-39"/>
     </g>
    </g>
    <g id="PathCollection_24">
     <path d="M 421.62525 112.665818 
C 423.500519 112.665818 425.299235 111.920765 426.62525 110.59475 
C 427.951265 109.268734 428.696318 107.470019 428.696318 105.59475 
C 428.696318 103.719481 427.951265 101.920765 426.62525 100.59475 
C 425.299235 99.268734 423.500519 98.523682 421.62525 98.523682 
C 419.749981 98.523682 417.951265 99.268734 416.62525 100.59475 
C 415.299235 101.920765 414.554182 103.719481 414.554182 105.59475 
C 414.554182 107.470019 415.299235 109.268734 416.62525 110.59475 
C 417.951265 111.920765 419.749981 112.665818 421.62525 112.665818 
z
" style="fill:#ffa500;fill-opacity:0.6;"/>
     <path d="M 431.70525 111.405818 
C 433.580519 111.405818 435.379234 110.660765 436.70525 109.33475 
C 438.031265 108.008734 438.776318 106.210019 438.776318 104.33475 
C 438.776318 102.459481 438.031265 100.660765 436.70525 99.33475 
C 435.379234 98.008734 433.580519 97.263682 431.70525 97.263682 
C 429.829981 97.263682 428.031265 98.008734 426.70525 99.33475 
C 425.379234 100.660765 424.634182 102.459481 424.634182 104.33475 
C 424.634182 106.210019 425.379234 108.008734 426.70525 109.33475 
C 428.031265 110.660765 429.829981 111.405818 431.70525 111.405818 
z
" style="fill:#ffa500;fill-opacity:0.6;"/>
     <path d="M 441.78525 113.295818 
C 443.660519 113.295818 445.459235 112.550765 446.78525 111.22475 
C 448.111266 109.898734 448.856318 108.100019 448.856318 106.22475 
C 448.856318 104.349481 448.111266 102.550765 446.78525 101.22475 
C 445.459235 99.898734 443.660519 99.153682 441.78525 99.153682 
C 439.909981 99.153682 438.111266 99.898734 436.78525 101.22475 
C 435.459235 102.550765 434.714182 104.349481 434.714182 106.22475 
C 434.714182 108.100019 435.459235 109.898734 436.78525 111.22475 
C 438.111266 112.550765 439.909981 113.295818 441.78525 113.295818 
z
" style="fill:#ffa500;fill-opacity:0.6;"/>
    </g>
    <g id="text_18">
     <!-- SF=10 -->
     <g transform="translate(457.62525 109.37475)scale(0.144 -0.144)">
      <use xlink:href="#BitstreamVeraSans-Roman-53"/>
      <use x="63.4765625" xlink:href="#BitstreamVeraSans-Roman-46"/>
      <use x="120.99609375" xlink:href="#BitstreamVeraSans-Roman-3d"/>
      <use x="204.78515625" xlink:href="#BitstreamVeraSans-Roman-31"/>
      <use x="268.408203125" xlink:href="#BitstreamVeraSans-Roman-30"/>
     </g>
    </g>
    <g id="PathCollection_25">
     <path d="M 421.62525 133.802318 
C 423.500519 133.802318 425.299235 133.057265 426.62525 131.73125 
C 427.951265 130.405234 428.696318 128.606519 428.696318 126.73125 
C 428.696318 124.855981 427.951265 123.057265 426.62525 121.73125 
C 425.299235 120.405234 423.500519 119.660182 421.62525 119.660182 
C 419.749981 119.660182 417.951265 120.405234 416.62525 121.73125 
C 415.299235 123.057265 414.554182 124.855981 414.554182 126.73125 
C 414.554182 128.606519 415.299235 130.405234 416.62525 131.73125 
C 417.951265 133.057265 419.749981 133.802318 421.62525 133.802318 
z
" style="fill:#a52a2a;fill-opacity:0.6;"/>
     <path d="M 431.70525 132.542318 
C 433.580519 132.542318 435.379234 131.797265 436.70525 130.47125 
C 438.031265 129.145234 438.776318 127.346519 438.776318 125.47125 
C 438.776318 123.595981 438.031265 121.797265 436.70525 120.47125 
C 435.379234 119.145234 433.580519 118.400182 431.70525 118.400182 
C 429.829981 118.400182 428.031265 119.145234 426.70525 120.47125 
C 425.379234 121.797265 424.634182 123.595981 424.634182 125.47125 
C 424.634182 127.346519 425.379234 129.145234 426.70525 130.47125 
C 428.031265 131.797265 429.829981 132.542318 431.70525 132.542318 
z
" style="fill:#a52a2a;fill-opacity:0.6;"/>
     <path d="M 441.78525 134.432318 
C 443.660519 134.432318 445.459235 133.687265 446.78525 132.36125 
C 448.111266 131.035234 448.856318 129.236519 448.856318 127.36125 
C 448.856318 125.485981 448.111266 123.687265 446.78525 122.36125 
C 445.459235 121.035234 443.660519 120.290182 441.78525 120.290182 
C 439.909981 120.290182 438.111266 121.035234 436.78525 122.36125 
C 435.459235 123.687265 434.714182 125.485981 434.714182 127.36125 
C 434.714182 129.236519 435.459235 131.035234 436.78525 132.36125 
C 438.111266 133.687265 439.909981 134.432318 441.78525 134.432318 
z
" style="fill:#a52a2a;fill-opacity:0.6;"/>
    </g>
    <g id="text_19">
     <!-- SF=12 -->
     <g transform="translate(457.62525 130.51125)scale(0.144 -0.144)">
      <use xlink:href="#BitstreamVeraSans-Roman-53"/>
      <use x="63.4765625" xlink:href="#BitstreamVeraSans-Roman-46"/>
      <use x="120.99609375" xlink:href="#BitstreamVeraSans-Roman-3d"/>
      <use x="204.78515625" xlink:href="#BitstreamVeraSans-Roman-31"/>
      <use x="268.408203125" xlink:href="#BitstreamVeraSans-Roman-32"/>
     </g>
    </g>
    <g id="PathCollection_26"/>
    <g id="text_20">
     <!-- SF=6 -->
     <defs>
      <path d="M 33.015625 40.375 
Q 26.375 40.375 22.484375 35.828125 
Q 18.609375 31.296875 18.609375 23.390625 
Q 18.609375 15.53125 22.484375 10.953125 
Q 26.375 6.390625 33.015625 6.390625 
Q 39.65625 6.390625 43.53125 10.953125 
Q 47.40625 15.53125 47.40625 23.390625 
Q 47.40625 31.296875 43.53125 35.828125 
Q 39.65625 40.375 33.015625 40.375 
M 52.59375 71.296875 
L 52.59375 62.3125 
Q 48.875 64.0625 45.09375 64.984375 
Q 41.3125 65.921875 37.59375 65.921875 
Q 27.828125 65.921875 22.671875 59.328125 
Q 17.53125 52.734375 16.796875 39.40625 
Q 19.671875 43.65625 24.015625 45.921875 
Q 28.375 48.1875 33.59375 48.1875 
Q 44.578125 48.1875 50.953125 41.515625 
Q 57.328125 34.859375 57.328125 23.390625 
Q 57.328125 12.15625 50.6875 5.359375 
Q 44.046875 -1.421875 33.015625 -1.421875 
Q 20.359375 -1.421875 13.671875 8.265625 
Q 6.984375 17.96875 6.984375 36.375 
Q 6.984375 53.65625 15.1875 63.9375 
Q 23.390625 74.21875 37.203125 74.21875 
Q 40.921875 74.21875 44.703125 73.484375 
Q 48.484375 72.75 52.59375 71.296875 
" id="BitstreamVeraSans-Roman-36"/>
     </defs>
     <g transform="translate(457.62525 151.64775)scale(0.144 -0.144)">
      <use xlink:href="#BitstreamVeraSans-Roman-53"/>
      <use x="63.4765625" xlink:href="#BitstreamVeraSans-Roman-46"/>
      <use x="120.99609375" xlink:href="#BitstreamVeraSans-Roman-3d"/>
      <use x="204.78515625" xlink:href="#BitstreamVeraSans-Roman-36"/>
     </g>
    </g>
    <g id="PathCollection_27">
     <path d="M 421.62525 176.075318 
C 423.500519 176.075318 425.299235 175.330266 426.62525 174.00425 
C 427.951265 172.678235 428.696318 170.879519 428.696318 169.00425 
C 428.696318 167.128981 427.951265 165.330266 426.62525 164.00425 
C 425.299235 162.678235 423.500519 161.933182 421.62525 161.933182 
C 419.749981 161.933182 417.951265 162.678235 416.62525 164.00425 
C 415.299235 165.330266 414.554182 167.128981 414.554182 169.00425 
C 414.554182 170.879519 415.299235 172.678235 416.62525 174.00425 
C 417.951265 175.330266 419.749981 176.075318 421.62525 176.075318 
z
" style="fill:#ffff00;fill-opacity:0.6;"/>
     <path d="M 431.70525 174.815318 
C 433.580519 174.815318 435.379234 174.070265 436.70525 172.74425 
C 438.031265 171.418234 438.776318 169.619519 438.776318 167.74425 
C 438.776318 165.868981 438.031265 164.070265 436.70525 162.74425 
C 435.379234 161.418234 433.580519 160.673182 431.70525 160.673182 
C 429.829981 160.673182 428.031265 161.418234 426.70525 162.74425 
C 425.379234 164.070265 424.634182 165.868981 424.634182 167.74425 
C 424.634182 169.619519 425.379234 171.418234 426.70525 172.74425 
C 428.031265 174.070265 429.829981 174.815318 431.70525 174.815318 
z
" style="fill:#ffff00;fill-opacity:0.6;"/>
     <path d="M 441.78525 176.705318 
C 443.660519 176.705318 445.459235 175.960266 446.78525 174.63425 
C 448.111266 173.308234 448.856318 171.509519 448.856318 169.63425 
C 448.856318 167.758981 448.111266 165.960266 446.78525 164.63425 
C 445.459235 163.308234 443.660519 162.563182 441.78525 162.563182 
C 439.909981 162.563182 438.111266 163.308234 436.78525 164.63425 
C 435.459235 165.960266 434.714182 167.758981 434.714182 169.63425 
C 434.714182 171.509519 435.459235 173.308234 436.78525 174.63425 
C 438.111266 175.960266 439.909981 176.705318 441.78525 176.705318 
z
" style="fill:#ffff00;fill-opacity:0.6;"/>
    </g>
    <g id="text_21">
     <!-- SF=8 -->
     <defs>
      <path d="M 31.78125 34.625 
Q 24.75 34.625 20.71875 30.859375 
Q 16.703125 27.09375 16.703125 20.515625 
Q 16.703125 13.921875 20.71875 10.15625 
Q 24.75 6.390625 31.78125 6.390625 
Q 38.8125 6.390625 42.859375 10.171875 
Q 46.921875 13.96875 46.921875 20.515625 
Q 46.921875 27.09375 42.890625 30.859375 
Q 38.875 34.625 31.78125 34.625 
M 21.921875 38.8125 
Q 15.578125 40.375 12.03125 44.71875 
Q 8.5 49.078125 8.5 55.328125 
Q 8.5 64.0625 14.71875 69.140625 
Q 20.953125 74.21875 31.78125 74.21875 
Q 42.671875 74.21875 48.875 69.140625 
Q 55.078125 64.0625 55.078125 55.328125 
Q 55.078125 49.078125 51.53125 44.71875 
Q 48 40.375 41.703125 38.8125 
Q 48.828125 37.15625 52.796875 32.3125 
Q 56.78125 27.484375 56.78125 20.515625 
Q 56.78125 9.90625 50.3125 4.234375 
Q 43.84375 -1.421875 31.78125 -1.421875 
Q 19.734375 -1.421875 13.25 4.234375 
Q 6.78125 9.90625 6.78125 20.515625 
Q 6.78125 27.484375 10.78125 32.3125 
Q 14.796875 37.15625 21.921875 38.8125 
M 18.3125 54.390625 
Q 18.3125 48.734375 21.84375 45.5625 
Q 25.390625 42.390625 31.78125 42.390625 
Q 38.140625 42.390625 41.71875 45.5625 
Q 45.3125 48.734375 45.3125 54.390625 
Q 45.3125 60.0625 41.71875 63.234375 
Q 38.140625 66.40625 31.78125 66.40625 
Q 25.390625 66.40625 21.84375 63.234375 
Q 18.3125 60.0625 18.3125 54.390625 
" id="BitstreamVeraSans-Roman-38"/>
     </defs>
     <g transform="translate(457.62525 172.78425)scale(0.144 -0.144)">
      <use xlink:href="#BitstreamVeraSans-Roman-53"/>
      <use x="63.4765625" xlink:href="#BitstreamVeraSans-Roman-46"/>
      <use x="120.99609375" xlink:href="#BitstreamVeraSans-Roman-3d"/>
      <use x="204.78515625" xlink:href="#BitstreamVeraSans-Roman-38"/>
     </g>
    </g>
    <g id="PathCollection_28"/>
    <g id="text_22">
     <!-- SF=6 -->
     <g transform="translate(457.62525 193.92075)scale(0.144 -0.144)">
      <use xlink:href="#BitstreamVeraSans-Roman-53"/>
      <use x="63.4765625" xlink:href="#BitstreamVeraSans-Roman-46"/>
      <use x="120.99609375" xlink:href="#BitstreamVeraSans-Roman-3d"/>
      <use x="204.78515625" xlink:href="#BitstreamVeraSans-Roman-36"/>
     </g>
    </g>
    <g id="PathCollection_29">
     <path d="M 421.62525 218.348318 
C 423.500519 218.348318 425.299235 217.603265 426.62525 216.27725 
C 427.951265 214.951234 428.696318 213.152519 428.696318 211.27725 
C 428.696318 209.401981 427.951265 207.603265 426.62525 206.27725 
C 425.299235 204.951234 423.500519 204.206182 421.62525 204.206182 
C 419.749981 204.206182 417.951265 204.951234 416.62525 206.27725 
C 415.299235 207.603265 414.554182 209.401981 414.554182 211.27725 
C 414.554182 213.152519 415.299235 214.951234 416.62525 216.27725 
C 417.951265 217.603265 419.749981 218.348318 421.62525 218.348318 
z
" style="fill:#ffa500;fill-opacity:0.6;"/>
     <path d="M 431.70525 217.088318 
C 433.580519 217.088318 435.379234 216.343265 436.70525 215.01725 
C 438.031265 213.691234 438.776318 211.892519 438.776318 210.01725 
C 438.776318 208.141981 438.031265 206.343265 436.70525 205.01725 
C 435.379234 203.691234 433.580519 202.946182 431.70525 202.946182 
C 429.829981 202.946182 428.031265 203.691234 426.70525 205.01725 
C 425.379234 206.343265 424.634182 208.141981 424.634182 210.01725 
C 424.634182 211.892519 425.379234 213.691234 426.70525 215.01725 
C 428.031265 216.343265 429.829981 217.088318 431.70525 217.088318 
z
" style="fill:#ffa500;fill-opacity:0.6;"/>
     <path d="M 441.78525 218.978318 
C 443.660519 218.978318 445.459235 218.233265 446.78525 216.90725 
C 448.111266 215.581234 448.856318 213.782519 448.856318 211.90725 
C 448.856318 210.031981 448.111266 208.233265 446.78525 206.90725 
C 445.459235 205.581234 443.660519 204.836182 441.78525 204.836182 
C 439.909981 204.836182 438.111266 205.581234 436.78525 206.90725 
C 435.459235 208.233265 434.714182 210.031981 434.714182 211.90725 
C 434.714182 213.782519 435.459235 215.581234 436.78525 216.90725 
C 438.111266 218.233265 439.909981 218.978318 441.78525 218.978318 
z
" style="fill:#ffa500;fill-opacity:0.6;"/>
    </g>
    <g id="text_23">
     <!-- SF=10 -->
     <g transform="translate(457.62525 215.05725)scale(0.144 -0.144)">
      <use xlink:href="#BitstreamVeraSans-Roman-53"/>
      <use x="63.4765625" xlink:href="#BitstreamVeraSans-Roman-46"/>
      <use x="120.99609375" xlink:href="#BitstreamVeraSans-Roman-3d"/>
      <use x="204.78515625" xlink:href="#BitstreamVeraSans-Roman-31"/>
      <use x="268.408203125" xlink:href="#BitstreamVeraSans-Roman-30"/>
     </g>
    </g>
    <g id="PathCollection_30">
     <path d="M 421.62525 239.484818 
C 423.500519 239.484818 425.299235 238.739765 426.62525 237.41375 
C 427.951265 236.087734 428.696318 234.289019 428.696318 232.41375 
C 428.696318 230.538481 427.951265 228.739765 426.62525 227.41375 
C 425.299235 226.087734 423.500519 225.342682 421.62525 225.342682 
C 419.749981 225.342682 417.951265 226.087734 416.62525 227.41375 
C 415.299235 228.739765 414.554182 230.538481 414.554182 232.41375 
C 414.554182 234.289019 415.299235 236.087734 416.62525 237.41375 
C 417.951265 238.739765 419.749981 239.484818 421.62525 239.484818 
z
" style="fill:#0000ff;fill-opacity:0.6;"/>
     <path d="M 431.70525 238.224818 
C 433.580519 238.224818 435.379234 237.479765 436.70525 236.15375 
C 438.031265 234.827734 438.776318 233.029019 438.776318 231.15375 
C 438.776318 229.278481 438.031265 227.479765 436.70525 226.15375 
C 435.379234 224.827734 433.580519 224.082682 431.70525 224.082682 
C 429.829981 224.082682 428.031265 224.827734 426.70525 226.15375 
C 425.379234 227.479765 424.634182 229.278481 424.634182 231.15375 
C 424.634182 233.029019 425.379234 234.827734 426.70525 236.15375 
C 428.031265 237.479765 429.829981 238.224818 431.70525 238.224818 
z
" style="fill:#0000ff;fill-opacity:0.6;"/>
     <path d="M 441.78525 240.114818 
C 443.660519 240.114818 445.459235 239.369765 446.78525 238.04375 
C 448.111266 236.717734 448.856318 234.919019 448.856318 233.04375 
C 448.856318 231.168481 448.111266 229.369765 446.78525 228.04375 
C 445.459235 226.717734 443.660519 225.972682 441.78525 225.972682 
C 439.909981 225.972682 438.111266 226.717734 436.78525 228.04375 
C 435.459235 229.369765 434.714182 231.168481 434.714182 233.04375 
C 434.714182 234.919019 435.459235 236.717734 436.78525 238.04375 
C 438.111266 239.369765 439.909981 240.114818 441.78525 240.114818 
z
" style="fill:#0000ff;fill-opacity:0.6;"/>
    </g>
    <g id="text_24">
     <!-- SF=7 -->
     <defs>
      <path d="M 8.203125 72.90625 
L 55.078125 72.90625 
L 55.078125 68.703125 
L 28.609375 0 
L 18.3125 0 
L 43.21875 64.59375 
L 8.203125 64.59375 
z
" id="BitstreamVeraSans-Roman-37"/>
     </defs>
     <g transform="translate(457.62525 236.19375)scale(0.144 -0.144)">
      <use xlink:href="#BitstreamVeraSans-Roman-53"/>
      <use x="63.4765625" xlink:href="#BitstreamVeraSans-Roman-46"/>
      <use x="120.99609375" xlink:href="#BitstreamVeraSans-Roman-3d"/>
      <use x="204.78515625" xlink:href="#BitstreamVeraSans-Roman-37"/>
     </g>
    </g>
    <g id="PathCollection_31">
     <path d="M 421.62525 260.621318 
C 423.500519 260.621318 425.299235 259.876265 426.62525 258.55025 
C 427.951265 257.224234 428.696318 255.425519 428.696318 253.55025 
C 428.696318 251.674981 427.951265 249.876265 426.62525 248.55025 
C 425.299235 247.224234 423.500519 246.479182 421.62525 246.479182 
C 419.749981 246.479182 417.951265 247.224234 416.62525 248.55025 
C 415.299235 249.876265 414.554182 251.674981 414.554182 253.55025 
C 414.554182 255.425519 415.299235 257.224234 416.62525 258.55025 
C 417.951265 259.876265 419.749981 260.621318 421.62525 260.621318 
z
" style="fill:#ffff00;fill-opacity:0.6;"/>
     <path d="M 431.70525 259.361318 
C 433.580519 259.361318 435.379234 258.616265 436.70525 257.29025 
C 438.031265 255.964234 438.776318 254.165519 438.776318 252.29025 
C 438.776318 250.414981 438.031265 248.616265 436.70525 247.29025 
C 435.379234 245.964234 433.580519 245.219182 431.70525 245.219182 
C 429.829981 245.219182 428.031265 245.964234 426.70525 247.29025 
C 425.379234 248.616265 424.634182 250.414981 424.634182 252.29025 
C 424.634182 254.165519 425.379234 255.964234 426.70525 257.29025 
C 428.031265 258.616265 429.829981 259.361318 431.70525 259.361318 
z
" style="fill:#ffff00;fill-opacity:0.6;"/>
     <path d="M 441.78525 261.251318 
C 443.660519 261.251318 445.459235 260.506265 446.78525 259.18025 
C 448.111266 257.854234 448.856318 256.055519 448.856318 254.18025 
C 448.856318 252.304981 448.111266 250.506265 446.78525 249.18025 
C 445.459235 247.854234 443.660519 247.109182 441.78525 247.109182 
C 439.909981 247.109182 438.111266 247.854234 436.78525 249.18025 
C 435.459235 250.506265 434.714182 252.304981 434.714182 254.18025 
C 434.714182 256.055519 435.459235 257.854234 436.78525 259.18025 
C 438.111266 260.506265 439.909981 261.251318 441.78525 261.251318 
z
" style="fill:#ffff00;fill-opacity:0.6;"/>
    </g>
    <g id="text_25">
     <!-- SF=8 -->
     <g transform="translate(457.62525 257.33025)scale(0.144 -0.144)">
      <use xlink:href="#BitstreamVeraSans-Roman-53"/>
      <use x="63.4765625" xlink:href="#BitstreamVeraSans-Roman-46"/>
      <use x="120.99609375" xlink:href="#BitstreamVeraSans-Roman-3d"/>
      <use x="204.78515625" xlink:href="#BitstreamVeraSans-Roman-38"/>
     </g>
    </g>
    <g id="PathCollection_32">
     <path d="M 421.62525 281.757818 
C 423.500519 281.757818 425.299235 281.012765 426.62525 279.68675 
C 427.951265 278.360734 428.696318 276.562019 428.696318 274.68675 
C 428.696318 272.811481 427.951265 271.012765 426.62525 269.68675 
C 425.299235 268.360734 423.500519 267.615682 421.62525 267.615682 
C 419.749981 267.615682 417.951265 268.360734 416.62525 269.68675 
C 415.299235 271.012765 414.554182 272.811481 414.554182 274.68675 
C 414.554182 276.562019 415.299235 278.360734 416.62525 279.68675 
C 417.951265 281.012765 419.749981 281.757818 421.62525 281.757818 
z
" style="fill:#ffa500;fill-opacity:0.6;"/>
     <path d="M 431.70525 280.497818 
C 433.580519 280.497818 435.379234 279.752765 436.70525 278.42675 
C 438.031265 277.100734 438.776318 275.302019 438.776318 273.42675 
C 438.776318 271.551481 438.031265 269.752765 436.70525 268.42675 
C 435.379234 267.100734 433.580519 266.355682 431.70525 266.355682 
C 429.829981 266.355682 428.031265 267.100734 426.70525 268.42675 
C 425.379234 269.752765 424.634182 271.551481 424.634182 273.42675 
C 424.634182 275.302019 425.379234 277.100734 426.70525 278.42675 
C 428.031265 279.752765 429.829981 280.497818 431.70525 280.497818 
z
" style="fill:#ffa500;fill-opacity:0.6;"/>
     <path d="M 441.78525 282.387818 
C 443.660519 282.387818 445.459235 281.642765 446.78525 280.31675 
C 448.111266 278.990734 448.856318 277.192019 448.856318 275.31675 
C 448.856318 273.441481 448.111266 271.642765 446.78525 270.31675 
C 445.459235 268.990734 443.660519 268.245682 441.78525 268.245682 
C 439.909981 268.245682 438.111266 268.990734 436.78525 270.31675 
C 435.459235 271.642765 434.714182 273.441481 434.714182 275.31675 
C 434.714182 277.192019 435.459235 278.990734 436.78525 280.31675 
C 438.111266 281.642765 439.909981 282.387818 441.78525 282.387818 
z
" style="fill:#ffa500;fill-opacity:0.6;"/>
    </g>
    <g id="text_26">
     <!-- SF=10 -->
     <g transform="translate(457.62525 278.46675)scale(0.144 -0.144)">
      <use xlink:href="#BitstreamVeraSans-Roman-53"/>
      <use x="63.4765625" xlink:href="#BitstreamVeraSans-Roman-46"/>
      <use x="120.99609375" xlink:href="#BitstreamVeraSans-Roman-3d"/>
      <use x="204.78515625" xlink:href="#BitstreamVeraSans-Roman-31"/>
      <use x="268.408203125" xlink:href="#BitstreamVeraSans-Roman-30"/>
     </g>
    </g>
    <g id="PathCollection_33"/>
    <g id="text_27">
     <!-- SF=6 -->
     <g transform="translate(457.62525 299.60325)scale(0.144 -0.144)">
      <use xlink:href="#BitstreamVeraSans-Roman-53"/>
      <use x="63.4765625" xlink:href="#BitstreamVeraSans-Roman-46"/>
      <use x="120.99609375" xlink:href="#BitstreamVeraSans-Roman-3d"/>
      <use x="204.78515625" xlink:href="#BitstreamVeraSans-Roman-36"/>
     </g>
    </g>
    <g id="PathCollection_34"/>
    <g id="text_28">
     <!-- SF=6 -->
     <g transform="translate(457.62525 320.73975)scale(0.144 -0.144)">
      <use xlink:href="#BitstreamVeraSans-Roman-53"/>
      <use x="63.4765625" xlink:href="#BitstreamVeraSans-Roman-46"/>
      <use x="120.99609375" xlink:href="#BitstreamVeraSans-Roman-3d"/>
      <use x="204.78515625" xlink:href="#BitstreamVeraSans-Roman-36"/>
     </g>
    </g>
    <g id="PathCollection_35"/>
    <g id="text_29">
     <!-- SF=6 -->
     <g transform="translate(457.62525 341.87625)scale(0.144 -0.144)">
      <use xlink:href="#BitstreamVeraSans-Roman-53"/>
      <use x="63.4765625" xlink:href="#BitstreamVeraSans-Roman-46"/>
      <use x="120.99609375" xlink:href="#BitstreamVeraSans-Roman-3d"/>
      <use x="204.78515625" xlink:href="#BitstreamVeraSans-Roman-36"/>
     </g>
    </g>
    <g id="PathCollection_36">
     <path d="M 421.62525 366.303818 
C 423.500519 366.303818 425.299235 365.558765 426.62525 364.23275 
C 427.951265 362.906735 428.696318 361.108019 428.696318 359.23275 
C 428.696318 357.357481 427.951265 355.558765 426.62525 354.23275 
C 425.299235 352.906735 423.500519 352.161682 421.62525 352.161682 
C 419.749981 352.161682 417.951265 352.906735 416.62525 354.23275 
C 415.299235 355.558765 414.554182 357.357481 414.554182 359.23275 
C 414.554182 361.108019 415.299235 362.906735 416.62525 364.23275 
C 417.951265 365.558765 419.749981 366.303818 421.62525 366.303818 
z
" style="fill:#0000ff;fill-opacity:0.6;"/>
     <path d="M 431.70525 365.043818 
C 433.580519 365.043818 435.379234 364.298766 436.70525 362.97275 
C 438.031265 361.646735 438.776318 359.848019 438.776318 357.97275 
C 438.776318 356.097481 438.031265 354.298766 436.70525 352.97275 
C 435.379234 351.646735 433.580519 350.901682 431.70525 350.901682 
C 429.829981 350.901682 428.031265 351.646735 426.70525 352.97275 
C 425.379234 354.298766 424.634182 356.097481 424.634182 357.97275 
C 424.634182 359.848019 425.379234 361.646735 426.70525 362.97275 
C 428.031265 364.298766 429.829981 365.043818 431.70525 365.043818 
z
" style="fill:#0000ff;fill-opacity:0.6;"/>
     <path d="M 441.78525 366.933818 
C 443.660519 366.933818 445.459235 366.188765 446.78525 364.86275 
C 448.111266 363.536735 448.856318 361.738019 448.856318 359.86275 
C 448.856318 357.987481 448.111266 356.188765 446.78525 354.86275 
C 445.459235 353.536735 443.660519 352.791682 441.78525 352.791682 
C 439.909981 352.791682 438.111266 353.536735 436.78525 354.86275 
C 435.459235 356.188765 434.714182 357.987481 434.714182 359.86275 
C 434.714182 361.738019 435.459235 363.536735 436.78525 364.86275 
C 438.111266 366.188765 439.909981 366.933818 441.78525 366.933818 
z
" style="fill:#0000ff;fill-opacity:0.6;"/>
    </g>
    <g id="text_30">
     <!-- SF=7 -->
     <g transform="translate(457.62525 363.01275)scale(0.144 -0.144)">
      <use xlink:href="#BitstreamVeraSans-Roman-53"/>
      <use x="63.4765625" xlink:href="#BitstreamVeraSans-Roman-46"/>
      <use x="120.99609375" xlink:href="#BitstreamVeraSans-Roman-3d"/>
      <use x="204.78515625" xlink:href="#BitstreamVeraSans-Roman-37"/>
     </g>
    </g>
    <g id="PathCollection_37"/>
    <g id="text_31">
     <!-- SF=6 -->
     <g transform="translate(457.62525 384.14925)scale(0.144 -0.144)">
      <use xlink:href="#BitstreamVeraSans-Roman-53"/>
      <use x="63.4765625" xlink:href="#BitstreamVeraSans-Roman-46"/>
      <use x="120.99609375" xlink:href="#BitstreamVeraSans-Roman-3d"/>
      <use x="204.78515625" xlink:href="#BitstreamVeraSans-Roman-36"/>
     </g>
    </g>
    <g id="PathCollection_38">
     <path d="M 421.62525 408.576818 
C 423.500519 408.576818 425.299235 407.831766 426.62525 406.50575 
C 427.951265 405.179735 428.696318 403.381019 428.696318 401.50575 
C 428.696318 399.630481 427.951265 397.831766 426.62525 396.50575 
C 425.299235 395.179735 423.500519 394.434682 421.62525 394.434682 
C 419.749981 394.434682 417.951265 395.179735 416.62525 396.50575 
C 415.299235 397.831766 414.554182 399.630481 414.554182 401.50575 
C 414.554182 403.381019 415.299235 405.179735 416.62525 406.50575 
C 417.951265 407.831766 419.749981 408.576818 421.62525 408.576818 
z
" style="fill:#ffa500;fill-opacity:0.6;"/>
     <path d="M 431.70525 407.316818 
C 433.580519 407.316818 435.379234 406.571766 436.70525 405.24575 
C 438.031265 403.919735 438.776318 402.121019 438.776318 400.24575 
C 438.776318 398.370481 438.031265 396.571766 436.70525 395.24575 
C 435.379234 393.919735 433.580519 393.174682 431.70525 393.174682 
C 429.829981 393.174682 428.031265 393.919735 426.70525 395.24575 
C 425.379234 396.571766 424.634182 398.370481 424.634182 400.24575 
C 424.634182 402.121019 425.379234 403.919735 426.70525 405.24575 
C 428.031265 406.571766 429.829981 407.316818 431.70525 407.316818 
z
" style="fill:#ffa500;fill-opacity:0.6;"/>
     <path d="M 441.78525 409.206818 
C 443.660519 409.206818 445.459235 408.461766 446.78525 407.13575 
C 448.111266 405.809735 448.856318 404.011019 448.856318 402.13575 
C 448.856318 400.260481 448.111266 398.461766 446.78525 397.13575 
C 445.459235 395.809735 443.660519 395.064682 441.78525 395.064682 
C 439.909981 395.064682 438.111266 395.809735 436.78525 397.13575 
C 435.459235 398.461766 434.714182 400.260481 434.714182 402.13575 
C 434.714182 404.011019 435.459235 405.809735 436.78525 407.13575 
C 438.111266 408.461766 439.909981 409.206818 441.78525 409.206818 
z
" style="fill:#ffa500;fill-opacity:0.6;"/>
    </g>
    <g id="text_32">
     <!-- SF=10 -->
     <g transform="translate(457.62525 405.28575)scale(0.144 -0.144)">
      <use xlink:href="#BitstreamVeraSans-Roman-53"/>
      <use x="63.4765625" xlink:href="#BitstreamVeraSans-Roman-46"/>
      <use x="120.99609375" xlink:href="#BitstreamVeraSans-Roman-3d"/>
      <use x="204.78515625" xlink:href="#BitstreamVeraSans-Roman-31"/>
      <use x="268.408203125" xlink:href="#BitstreamVeraSans-Roman-30"/>
     </g>
    </g>
    <g id="PathCollection_39"/>
    <g id="text_33">
     <!-- SF=6 -->
     <g transform="translate(457.62525 426.42225)scale(0.144 -0.144)">
      <use xlink:href="#BitstreamVeraSans-Roman-53"/>
      <use x="63.4765625" xlink:href="#BitstreamVeraSans-Roman-46"/>
      <use x="120.99609375" xlink:href="#BitstreamVeraSans-Roman-3d"/>
      <use x="204.78515625" xlink:href="#BitstreamVeraSans-Roman-36"/>
     </g>
    </g>
    <g id="PathCollection_40"/>
    <g id="text_34">
     <!-- SF=6 -->
     <g transform="translate(457.62525 447.55875)scale(0.144 -0.144)">
      <use xlink:href="#BitstreamVeraSans-Roman-53"/>
      <use x="63.4765625" xlink:href="#BitstreamVeraSans-Roman-46"/>
      <use x="120.99609375" xlink:href="#BitstreamVeraSans-Roman-3d"/>
      <use x="204.78515625" xlink:href="#BitstreamVeraSans-Roman-36"/>
     </g>
    </g>
    <g id="PathCollection_41">
     <path d="M 421.62525 471.986318 
C 423.500519 471.986318 425.299235 471.241266 426.62525 469.91525 
C 427.951265 468.589235 428.696318 466.790519 428.696318 464.91525 
C 428.696318 463.039981 427.951265 461.241266 426.62525 459.91525 
C 425.299235 458.589235 423.500519 457.844182 421.62525 457.844182 
C 419.749981 457.844182 417.951265 458.589235 416.62525 459.91525 
C 415.299235 461.241266 414.554182 463.039981 414.554182 464.91525 
C 414.554182 466.790519 415.299235 468.589235 416.62525 469.91525 
C 417.951265 471.241266 419.749981 471.986318 421.62525 471.986318 
z
" style="fill:#0000ff;fill-opacity:0.6;"/>
     <path d="M 431.70525 470.726318 
C 433.580519 470.726318 435.379234 469.981266 436.70525 468.65525 
C 438.031265 467.329235 438.776318 465.530519 438.776318 463.65525 
C 438.776318 461.779981 438.031265 459.981266 436.70525 458.65525 
C 435.379234 457.329235 433.580519 456.584182 431.70525 456.584182 
C 429.829981 456.584182 428.031265 457.329235 426.70525 458.65525 
C 425.379234 459.981266 424.634182 461.779981 424.634182 463.65525 
C 424.634182 465.530519 425.379234 467.329235 426.70525 468.65525 
C 428.031265 469.981266 429.829981 470.726318 431.70525 470.726318 
z
" style="fill:#0000ff;fill-opacity:0.6;"/>
     <path d="M 441.78525 472.616318 
C 443.660519 472.616318 445.459235 471.871266 446.78525 470.54525 
C 448.111266 469.219235 448.856318 467.420519 448.856318 465.54525 
C 448.856318 463.669981 448.111266 461.871266 446.78525 460.54525 
C 445.459235 459.219235 443.660519 458.474182 441.78525 458.474182 
C 439.909981 458.474182 438.111266 459.219235 436.78525 460.54525 
C 435.459235 461.871266 434.714182 463.669981 434.714182 465.54525 
C 434.714182 467.420519 435.459235 469.219235 436.78525 470.54525 
C 438.111266 471.871266 439.909981 472.616318 441.78525 472.616318 
z
" style="fill:#0000ff;fill-opacity:0.6;"/>
    </g>
    <g id="text_35">
     <!-- SF=7 -->
     <g transform="translate(457.62525 468.69525)scale(0.144 -0.144)">
      <use xlink:href="#BitstreamVeraSans-Roman-53"/>
      <use x="63.4765625" xlink:href="#BitstreamVeraSans-Roman-46"/>
      <use x="120.99609375" xlink:href="#BitstreamVeraSans-Roman-3d"/>
      <use x="204.78515625" xlink:href="#BitstreamVeraSans-Roman-37"/>
     </g>
    </g>
   </g>
  </g>
 </g>
 <defs>
  <clipPath id="p4ada0b1ec4">
   <rect height="345.6" width="446.4" x="72.0" y="43.2"/>
  </clipPath>
 </defs>
</svg>
